<ttFont>
<head>
    <!-- Most of this table will be recalculated by the compiler -->
    <tableVersion value="1.0"/>
    <fontRevision value="2.202"/>
    <checkSumAdjustment value="0x7d920551"/>
    <magicNumber value="0x5f0f3cf5"/>
    <flags value="00000000 00000001"/>
    <unitsPerEm value="1000"/>
    <created value="Thu Mar 17 16:29:06 2016"/>
    <modified value="Thu Mar 17 16:31:56 2016"/>
    <xMin value="-123"/>
    <yMin value="-246"/>
    <xMax value="897"/>
    <yMax value="996"/>
    <macStyle value="00000000 00000010"/>
    <lowestRecPPEM value="5"/>
    <fontDirectionHint value="2"/>
    <indexToLocFormat value="0"/>
    <glyphDataFormat value="0"/>
  </head>
    <TTGlyph name=".notdef" xMin="0" yMin="-200" xMax="500" yMax="800">
      <contour>
        <pt x="0" y="-200" on="1"/>
        <pt x="0" y="800" on="1"/>
        <pt x="500" y="800" on="1"/>
        <pt x="500" y="-200" on="1"/>
      </contour>
      <contour>
        <pt x="71" y="750" on="1"/>
        <pt x="250" y="360" on="1"/>
        <pt x="429" y="750" on="1"/>
      </contour>
      <contour>
        <pt x="450" y="676" on="1"/>
        <pt x="278" y="300" on="1"/>
        <pt x="450" y="-76" on="1"/>
      </contour>
      <contour>
        <pt x="50" y="-76" on="1"/>
        <pt x="222" y="300" on="1"/>
        <pt x="50" y="676" on="1"/>
      </contour>
      <contour>
        <pt x="250" y="240" on="1"/>
        <pt x="71" y="-150" on="1"/>
        <pt x="429" y="-150" on="1"/>
      </contour>
    </TTGlyph>
    <TTGlyph name="A" xMin="-10" yMin="-7" xMax="505" yMax="693">
      <contour>
        <pt x="419" y="-7" on="1"/>
        <pt x="388" y="207" on="1"/>
        <pt x="174" y="207" on="1"/>
        <pt x="84" y="0" on="1"/>
        <pt x="-10" y="0" on="1"/>
        <pt x="306" y="693" on="1"/>
        <pt x="398" y="693" on="1"/>
        <pt x="505" y="12" on="1"/>
      </contour>
      <contour>
        <pt x="337" y="580" on="1"/>
        <pt x="210" y="289" on="1"/>
        <pt x="377" y="289" on="1"/>
      </contour>
    </TTGlyph>
    <TTGlyph name="A.flat" xMin="-10" yMin="0" xMax="507" yMax="693">
      <contour>
        <pt x="337" y="580" on="1"/>
        <pt x="210" y="289" on="1"/>
        <pt x="377" y="289" on="1"/>
      </contour>
      <contour>
        <pt x="418" y="0" on="1"/>
        <pt x="388" y="207" on="1"/>
        <pt x="174" y="207" on="1"/>
        <pt x="84" y="0" on="1"/>
        <pt x="-10" y="0" on="1"/>
        <pt x="306" y="693" on="1"/>
        <pt x="398" y="693" on="1"/>
        <pt x="507" y="0" on="1"/>
      </contour>
    </TTGlyph>
    <TTGlyph name="AE" xMin="-39" yMin="0" xMax="786" yMax="690">
      <contour>
        <pt x="407" y="289" on="1"/>
        <pt x="457" y="621" on="1"/>
        <pt x="243" y="289" on="1"/>
      </contour>
      <contour>
        <pt x="364" y="0" on="1"/>
        <pt x="395" y="208" on="1"/>
        <pt x="191" y="208" on="1"/>
        <pt x="57" y="0" on="1"/>
        <pt x="-39" y="0" on="1"/>
        <pt x="411" y="690" on="1"/>
        <pt x="786" y="690" on="1"/>
        <pt x="773" y="607" on="1"/>
        <pt x="546" y="607" on="1"/>
        <pt x="515" y="403" on="1"/>
        <pt x="691" y="403" on="1"/>
        <pt x="691" y="319" on="1"/>
        <pt x="502" y="319" on="1"/>
        <pt x="466" y="83" on="1"/>
        <pt x="705" y="83" on="1"/>
        <pt x="692" y="0" on="1"/>
      </contour>
    </TTGlyph>
    <TTGlyph name="AE.flat" xMin="-39" yMin="0" xMax="786" yMax="690">
      <contour>
        <pt x="407" y="289" on="1"/>
        <pt x="457" y="621" on="1"/>
        <pt x="243" y="289" on="1"/>
      </contour>
      <contour>
        <pt x="364" y="0" on="1"/>
        <pt x="395" y="208" on="1"/>
        <pt x="191" y="208" on="1"/>
        <pt x="57" y="0" on="1"/>
        <pt x="-39" y="0" on="1"/>
        <pt x="411" y="690" on="1"/>
        <pt x="786" y="690" on="1"/>
        <pt x="773" y="607" on="1"/>
        <pt x="546" y="607" on="1"/>
        <pt x="515" y="403" on="1"/>
        <pt x="697" y="403" on="1"/>
        <pt x="685" y="319" on="1"/>
        <pt x="502" y="319" on="1"/>
        <pt x="466" y="83" on="1"/>
        <pt x="705" y="83" on="1"/>
        <pt x="692" y="0" on="1"/>
      </contour>
    </TTGlyph>
    <TTGlyph name="AEacute" xMin="-39" yMin="0" xMax="786" yMax="892">
      <component glyphName="AE" x="0" y="0" flags="0x204"/>
      <component glyphName="acute" x="336" y="203" flags="0x4"/>
    </TTGlyph>
    <TTGlyph name="AEacute.flat" xMin="-39" yMin="0" xMax="786" yMax="892">
      <component glyphName="AE.flat" x="0" y="0" flags="0x204"/>
      <component glyphName="acute" x="336" y="203" flags="0x4"/>
    </TTGlyph>
    <TTGlyph name="Aacute" xMin="-10" yMin="-7" xMax="521" yMax="902">
      <component glyphName="A" x="0" y="0" flags="0x204"/>
      <component glyphName="acute" x="160" y="213" flags="0x4"/>
    </TTGlyph>
    <TTGlyph name="Aacute.flat" xMin="-10" yMin="0" xMax="521" yMax="902">
      <component glyphName="A.flat" x="0" y="0" flags="0x204"/>
      <component glyphName="acute" x="160" y="213" flags="0x4"/>
    </TTGlyph>
    <TTGlyph name="Abreve" xMin="-10" yMin="-7" xMax="505" yMax="882">
      <component glyphName="A" x="0" y="0" flags="0x204"/>
      <component glyphName="breve" x="108" y="213" flags="0x4"/>
    </TTGlyph>
    <TTGlyph name="Abreve.flat" xMin="-10" yMin="0" xMax="507" yMax="882">
      <component glyphName="A.flat" x="0" y="0" flags="0x204"/>
      <component glyphName="breve" x="108" y="213" flags="0x4"/>
    </TTGlyph>
    <TTGlyph name="Acircumflex" xMin="-10" yMin="-7" xMax="505" yMax="886">
      <component glyphName="A" x="0" y="0" flags="0x204"/>
      <component glyphName="circumflex" x="110" y="204" flags="0x4"/>
    </TTGlyph>
    <TTGlyph name="Acircumflex.flat" xMin="-10" yMin="0" xMax="507" yMax="886">
      <component glyphName="A.flat" x="0" y="0" flags="0x204"/>
      <component glyphName="circumflex" x="110" y="204" flags="0x4"/>
    </TTGlyph>
    <TTGlyph name="Adieresis" xMin="-10" yMin="-7" xMax="505" yMax="859">
      <component glyphName="A" x="0" y="0" flags="0x204"/>
      <component glyphName="dieresis" x="113" y="213" flags="0x4"/>
    </TTGlyph>
    <TTGlyph name="Adieresis.flat" xMin="-10" yMin="0" xMax="507" yMax="859">
      <component glyphName="A.flat" x="0" y="0" flags="0x204"/>
      <component glyphName="dieresis" x="113" y="213" flags="0x4"/>
    </TTGlyph>
    <TTGlyph name="Agrave" xMin="-10" yMin="-7" xMax="505" yMax="902">
      <component glyphName="A" x="0" y="0" flags="0x204"/>
      <component glyphName="grave" x="59" y="213" flags="0x4"/>
    </TTGlyph>
    <TTGlyph name="Agrave.flat" xMin="-10" yMin="0" xMax="507" yMax="902">
      <component glyphName="A.flat" x="0" y="0" flags="0x204"/>
      <component glyphName="grave" x="59" y="213" flags="0x4"/>
    </TTGlyph>
    <TTGlyph name="Amacron" xMin="-10" yMin="-7" xMax="505" yMax="846">
      <component glyphName="A" x="0" y="0" flags="0x204"/>
      <component glyphName="macron" x="113" y="213" flags="0x4"/>
    </TTGlyph>
    <TTGlyph name="Amacron.flat" xMin="-10" yMin="0" xMax="507" yMax="846">
      <component glyphName="A.flat" x="0" y="0" flags="0x204"/>
      <component glyphName="macron" x="113" y="213" flags="0x4"/>
    </TTGlyph>
    <TTGlyph name="Aogonek" xMin="-10" yMin="-181" xMax="505" yMax="693">
      <component glyphName="A" x="0" y="0" flags="0x204"/>
      <component glyphName="ogonek" x="256" y="0" flags="0x4"/>
    </TTGlyph>
    <TTGlyph name="Aogonek.flat" xMin="-10" yMin="-181" xMax="507" yMax="693">
      <component glyphName="A.flat" x="0" y="0" flags="0x204"/>
      <component glyphName="ogonek" x="252" y="0" flags="0x4"/>
    </TTGlyph>
    <TTGlyph name="Aring" xMin="-10" yMin="-7" xMax="505" yMax="824">
      <contour>
        <pt x="419" y="-7" on="1"/>
        <pt x="388" y="207" on="1"/>
        <pt x="174" y="207" on="1"/>
        <pt x="84" y="0" on="1"/>
        <pt x="-10" y="0" on="1"/>
        <pt x="287" y="652" on="1"/>
        <pt x="272" y="665" on="0"/>
        <pt x="255" y="703" on="0"/>
        <pt x="255" y="726" on="1"/>
        <pt x="255" y="768" on="0"/>
        <pt x="311" y="824" on="0"/>
        <pt x="353" y="824" on="1"/>
        <pt x="396" y="824" on="0"/>
        <pt x="452" y="768" on="0"/>
        <pt x="452" y="726" on="1"/>
        <pt x="452" y="698" on="0"/>
        <pt x="427" y="655" on="0"/>
        <pt x="406" y="642" on="1"/>
        <pt x="505" y="12" on="1"/>
      </contour>
      <contour>
        <pt x="353" y="670" on="1"/>
        <pt x="376" y="670" on="0"/>
        <pt x="406" y="702" on="0"/>
        <pt x="406" y="726" on="1"/>
        <pt x="406" y="750" on="0"/>
        <pt x="376" y="782" on="0"/>
        <pt x="353" y="782" on="1"/>
        <pt x="331" y="782" on="0"/>
        <pt x="301" y="750" on="0"/>
        <pt x="301" y="726" on="1"/>
        <pt x="301" y="702" on="0"/>
        <pt x="331" y="670" on="0"/>
      </contour>
      <contour>
        <pt x="337" y="580" on="1"/>
        <pt x="210" y="289" on="1"/>
        <pt x="377" y="289" on="1"/>
      </contour>
    </TTGlyph>
    <TTGlyph name="Aring.flat" xMin="-10" yMin="0" xMax="507" yMax="824">
      <contour>
        <pt x="353" y="670" on="1"/>
        <pt x="376" y="670" on="0"/>
        <pt x="406" y="702" on="0"/>
        <pt x="406" y="726" on="1"/>
        <pt x="406" y="750" on="0"/>
        <pt x="376" y="782" on="0"/>
        <pt x="353" y="782" on="1"/>
        <pt x="331" y="782" on="0"/>
        <pt x="301" y="750" on="0"/>
        <pt x="301" y="726" on="1"/>
        <pt x="301" y="702" on="0"/>
        <pt x="331" y="670" on="0"/>
      </contour>
      <contour>
        <pt x="337" y="580" on="1"/>
        <pt x="210" y="289" on="1"/>
        <pt x="377" y="289" on="1"/>
      </contour>
      <contour>
        <pt x="418" y="0" on="1"/>
        <pt x="388" y="207" on="1"/>
        <pt x="174" y="207" on="1"/>
        <pt x="84" y="0" on="1"/>
        <pt x="-10" y="0" on="1"/>
        <pt x="287" y="652" on="1"/>
        <pt x="272" y="665" on="0"/>
        <pt x="255" y="703" on="0"/>
        <pt x="255" y="726" on="1"/>
        <pt x="255" y="768" on="0"/>
        <pt x="311" y="824" on="0"/>
        <pt x="353" y="824" on="1"/>
        <pt x="396" y="824" on="0"/>
        <pt x="452" y="768" on="0"/>
        <pt x="452" y="726" on="1"/>
        <pt x="452" y="698" on="0"/>
        <pt x="427" y="655" on="0"/>
        <pt x="406" y="642" on="1"/>
        <pt x="507" y="0" on="1"/>
      </contour>
    </TTGlyph>
    <TTGlyph name="Aringacute" xMin="-10" yMin="-7" xMax="536" yMax="996">
      <component glyphName="acute" x="175" y="307" flags="0x4"/>
      <component glyphName="Aring" x="0" y="0" flags="0x204"/>
    </TTGlyph>
    <TTGlyph name="Aringacute.flat" xMin="-10" yMin="0" xMax="536" yMax="996">
      <component glyphName="acute" x="175" y="307" flags="0x4"/>
      <component glyphName="Aring.flat" x="0" y="0" flags="0x204"/>
    </TTGlyph>
    <TTGlyph name="Atilde" xMin="-10" yMin="-7" xMax="525" yMax="881">
      <component glyphName="A" x="0" y="0" flags="0x204"/>
      <component glyphName="tilde" x="114" y="213" flags="0x4"/>
    </TTGlyph>
    <TTGlyph name="Atilde.flat" xMin="-10" yMin="0" xMax="525" yMax="881">
      <component glyphName="A.flat" x="0" y="0" flags="0x204"/>
      <component glyphName="tilde" x="114" y="213" flags="0x4"/>
    </TTGlyph>
    <TTGlyph name="B" xMin="32" yMin="0" xMax="464" yMax="690">
      <contour>
        <pt x="464" y="533" on="1"/>
        <pt x="464" y="467" on="0"/>
        <pt x="391" y="380" on="0"/>
        <pt x="342" y="363" on="1"/>
        <pt x="386" y="344" on="0"/>
        <pt x="443" y="269" on="0"/>
        <pt x="443" y="212" on="1"/>
        <pt x="443" y="116" on="0"/>
        <pt x="300" y="0" on="0"/>
        <pt x="173" y="0" on="1"/>
        <pt x="32" y="0" on="1"/>
        <pt x="134" y="690" on="1"/>
        <pt x="254" y="690" on="1"/>
        <pt x="367" y="690" on="0"/>
        <pt x="464" y="597" on="0"/>
      </contour>
      <contour>
        <pt x="375" y="523" on="1"/>
        <pt x="375" y="560" on="0"/>
        <pt x="323" y="614" on="0"/>
        <pt x="255" y="614" on="1"/>
        <pt x="212" y="614" on="1"/>
        <pt x="180" y="399" on="1"/>
        <pt x="230" y="399" on="1"/>
        <pt x="291" y="399" on="0"/>
        <pt x="375" y="465" on="0"/>
      </contour>
      <contour>
        <pt x="354" y="211" on="1"/>
        <pt x="354" y="264" on="0"/>
        <pt x="283" y="324" on="0"/>
        <pt x="217" y="324" on="1"/>
        <pt x="169" y="324" on="1"/>
        <pt x="131" y="77" on="1"/>
        <pt x="189" y="77" on="1"/>
        <pt x="265" y="77" on="0"/>
        <pt x="354" y="148" on="0"/>
      </contour>
    </TTGlyph>
    <TTGlyph name="C" xMin="50" yMin="-12" xMax="523" yMax="703">
      <contour>
        <pt x="523" y="647" on="1"/>
        <pt x="497" y="557" on="1"/>
        <pt x="472" y="583" on="0"/>
        <pt x="406" y="620" on="0"/>
        <pt x="367" y="620" on="1"/>
        <pt x="319" y="620" on="0"/>
        <pt x="236" y="567" on="0"/>
        <pt x="177" y="475" on="0"/>
        <pt x="143" y="351" on="0"/>
        <pt x="143" y="280" on="1"/>
        <pt x="143" y="171" on="0"/>
        <pt x="228" y="70" on="0"/>
        <pt x="290" y="70" on="1"/>
        <pt x="324" y="70" on="0"/>
        <pt x="402" y="101" on="0"/>
        <pt x="440" y="131" on="1"/>
        <pt x="440" y="41" on="1"/>
        <pt x="412" y="21" on="0"/>
        <pt x="328" y="-12" on="0"/>
        <pt x="281" y="-12" on="1"/>
        <pt x="231" y="-12" on="0"/>
        <pt x="146" y="24" on="0"/>
        <pt x="85" y="95" on="0"/>
        <pt x="50" y="202" on="0"/>
        <pt x="50" y="273" on="1"/>
        <pt x="50" y="362" on="0"/>
        <pt x="98" y="520" on="0"/>
        <pt x="183" y="636" on="0"/>
        <pt x="300" y="703" on="0"/>
        <pt x="368" y="703" on="1"/>
        <pt x="417" y="703" on="0"/>
        <pt x="495" y="671" on="0"/>
      </contour>
    </TTGlyph>
    <TTGlyph name="Cacute" xMin="50" yMin="-12" xMax="531" yMax="902">
      <component glyphName="C" x="0" y="0" flags="0x204"/>
      <component glyphName="acute" x="170" y="213" flags="0x4"/>
    </TTGlyph>
    <TTGlyph name="Ccaron" xMin="50" yMin="-12" xMax="523" yMax="894">
      <component glyphName="C" x="0" y="0" flags="0x204"/>
      <component glyphName="caron" x="123" y="213" flags="0x4"/>
    </TTGlyph>
    <TTGlyph name="Ccedilla" xMin="50" yMin="-193" xMax="523" yMax="703">
      <component glyphName="cedilla" x="67" y="-3" flags="0x4"/>
      <component glyphName="C" x="0" y="0" flags="0x204"/>
    </TTGlyph>
    <TTGlyph name="Cdotaccent" xMin="50" yMin="-12" xMax="523" yMax="859">
      <component glyphName="C" x="0" y="0" flags="0x204"/>
      <component glyphName="dotaccent" x="123" y="213" flags="0x4"/>
    </TTGlyph>
    <TTGlyph name="D" xMin="32" yMin="0" xMax="551" yMax="690">
      <contour>
        <pt x="551" y="409" on="1"/>
        <pt x="551" y="316" on="0"/>
        <pt x="491" y="158" on="0"/>
        <pt x="438" y="105" on="1"/>
        <pt x="389" y="56" on="0"/>
        <pt x="251" y="0" on="0"/>
        <pt x="156" y="0" on="1"/>
        <pt x="32" y="0" on="1"/>
        <pt x="135" y="690" on="1"/>
        <pt x="270" y="690" on="1"/>
        <pt x="401" y="690" on="0"/>
        <pt x="551" y="540" on="0"/>
      </contour>
      <contour>
        <pt x="458" y="405" on="1"/>
        <pt x="458" y="505" on="0"/>
        <pt x="358" y="610" on="0"/>
        <pt x="266" y="610" on="1"/>
        <pt x="213" y="610" on="1"/>
        <pt x="134" y="78" on="1"/>
        <pt x="168" y="81" on="1"/>
        <pt x="238" y="81" on="0"/>
        <pt x="335" y="121" on="0"/>
        <pt x="370" y="156" on="1"/>
        <pt x="412" y="197" on="0"/>
        <pt x="458" y="325" on="0"/>
      </contour>
    </TTGlyph>
    <TTGlyph name="Dcaron" xMin="32" yMin="0" xMax="551" yMax="884">
      <component glyphName="D" x="0" y="0" flags="0x204"/>
      <component glyphName="caron" x="83" y="203" flags="0x4"/>
    </TTGlyph>
    <TTGlyph name="Dcroat" xMin="23" yMin="0" xMax="559" yMax="690">
      <component glyphName="Eth" x="0" y="0" flags="0x204"/>
    </TTGlyph>
    <TTGlyph name="Dcroat.flat" xMin="17" yMin="0" xMax="559" yMax="690">
      <component glyphName="Eth.flat" x="0" y="0" flags="0x204"/>
    </TTGlyph>
    <TTGlyph name="E" xMin="32" yMin="0" xMax="453" yMax="690">
      <contour>
        <pt x="453" y="690" on="1"/>
        <pt x="441" y="607" on="1"/>
        <pt x="213" y="607" on="1"/>
        <pt x="182" y="403" on="1"/>
        <pt x="359" y="403" on="1"/>
        <pt x="359" y="319" on="1"/>
        <pt x="170" y="319" on="1"/>
        <pt x="134" y="83" on="1"/>
        <pt x="372" y="83" on="1"/>
        <pt x="360" y="0" on="1"/>
        <pt x="32" y="0" on="1"/>
        <pt x="134" y="690" on="1"/>
      </contour>
    </TTGlyph>
    <TTGlyph name="E.flat" xMin="32" yMin="0" xMax="453" yMax="690">
      <contour>
        <pt x="453" y="690" on="1"/>
        <pt x="441" y="607" on="1"/>
        <pt x="213" y="607" on="1"/>
        <pt x="182" y="403" on="1"/>
        <pt x="365" y="403" on="1"/>
        <pt x="352" y="319" on="1"/>
        <pt x="170" y="319" on="1"/>
        <pt x="134" y="83" on="1"/>
        <pt x="372" y="83" on="1"/>
        <pt x="360" y="0" on="1"/>
        <pt x="32" y="0" on="1"/>
        <pt x="134" y="690" on="1"/>
      </contour>
    </TTGlyph>
    <TTGlyph name="Eacute" xMin="32" yMin="0" xMax="460" yMax="892">
      <component glyphName="E" x="0" y="0" flags="0x204"/>
      <component glyphName="acute" x="99" y="203" flags="0x4"/>
    </TTGlyph>
    <TTGlyph name="Eacute.flat" xMin="32" yMin="0" xMax="460" yMax="892">
      <component glyphName="E.flat" x="0" y="0" flags="0x204"/>
      <component glyphName="acute" x="99" y="203" flags="0x4"/>
    </TTGlyph>
    <TTGlyph name="Ebreve" xMin="32" yMin="0" xMax="453" yMax="872">
      <component glyphName="E" x="0" y="0" flags="0x204"/>
      <component glyphName="breve" x="48" y="203" flags="0x4"/>
    </TTGlyph>
    <TTGlyph name="Ebreve.flat" xMin="32" yMin="0" xMax="453" yMax="872">
      <component glyphName="E.flat" x="0" y="0" flags="0x204"/>
      <component glyphName="breve" x="48" y="203" flags="0x4"/>
    </TTGlyph>
    <TTGlyph name="Ecaron" xMin="32" yMin="0" xMax="453" yMax="884">
      <component glyphName="E" x="0" y="0" flags="0x204"/>
      <component glyphName="caron" x="53" y="203" flags="0x4"/>
    </TTGlyph>
    <TTGlyph name="Ecaron.flat" xMin="32" yMin="0" xMax="453" yMax="884">
      <component glyphName="E.flat" x="0" y="0" flags="0x204"/>
      <component glyphName="caron" x="53" y="203" flags="0x4"/>
    </TTGlyph>
    <TTGlyph name="Ecircumflex" xMin="32" yMin="0" xMax="453" yMax="885">
      <component glyphName="E" x="0" y="0" flags="0x204"/>
      <component glyphName="circumflex" x="50" y="203" flags="0x4"/>
    </TTGlyph>
    <TTGlyph name="Ecircumflex.flat" xMin="32" yMin="0" xMax="453" yMax="885">
      <component glyphName="E.flat" x="0" y="0" flags="0x204"/>
      <component glyphName="circumflex" x="50" y="203" flags="0x4"/>
    </TTGlyph>
    <TTGlyph name="Edieresis" xMin="32" yMin="0" xMax="453" yMax="849">
      <component glyphName="E" x="0" y="0" flags="0x204"/>
      <component glyphName="dieresis" x="52" y="203" flags="0x4"/>
    </TTGlyph>
    <TTGlyph name="Edieresis.flat" xMin="32" yMin="0" xMax="453" yMax="849">
      <component glyphName="E.flat" x="0" y="0" flags="0x204"/>
      <component glyphName="dieresis" x="52" y="203" flags="0x4"/>
    </TTGlyph>
    <TTGlyph name="Edotaccent" xMin="32" yMin="0" xMax="453" yMax="849">
      <component glyphName="E" x="0" y="0" flags="0x204"/>
      <component glyphName="dotaccent" x="52" y="203" flags="0x4"/>
    </TTGlyph>
    <TTGlyph name="Edotaccent.flat" xMin="32" yMin="0" xMax="453" yMax="849">
      <component glyphName="E.flat" x="0" y="0" flags="0x204"/>
      <component glyphName="dotaccent" x="52" y="203" flags="0x4"/>
    </TTGlyph>
    <TTGlyph name="Egrave" xMin="32" yMin="0" xMax="453" yMax="892">
      <component glyphName="E" x="0" y="0" flags="0x204"/>
      <component glyphName="grave" x="-2" y="203" flags="0x4"/>
    </TTGlyph>
    <TTGlyph name="Egrave.flat" xMin="32" yMin="0" xMax="453" yMax="892">
      <component glyphName="E.flat" x="0" y="0" flags="0x204"/>
      <component glyphName="grave" x="-2" y="203" flags="0x4"/>
    </TTGlyph>
    <TTGlyph name="Emacron" xMin="32" yMin="0" xMax="453" yMax="836">
      <component glyphName="E" x="0" y="0" flags="0x204"/>
      <component glyphName="macron" x="52" y="203" flags="0x4"/>
    </TTGlyph>
    <TTGlyph name="Emacron.flat" xMin="32" yMin="0" xMax="453" yMax="836">
      <component glyphName="E.flat" x="0" y="0" flags="0x204"/>
      <component glyphName="macron" x="52" y="203" flags="0x4"/>
    </TTGlyph>
    <TTGlyph name="Eogonek" xMin="32" yMin="-181" xMax="453" yMax="690">
      <component glyphName="ogonek" x="107" y="0" flags="0x4"/>
      <component glyphName="E" x="0" y="0" flags="0x204"/>
    </TTGlyph>
    <TTGlyph name="Eogonek.flat" xMin="32" yMin="-181" xMax="453" yMax="690">
      <component glyphName="ogonek" x="107" y="0" flags="0x4"/>
      <component glyphName="E.flat" x="0" y="0" flags="0x204"/>
    </TTGlyph>
    <TTGlyph name="Eth" xMin="23" yMin="0" xMax="559" yMax="690">
      <contour>
        <pt x="142" y="78" on="1"/>
        <pt x="176" y="81" on="1"/>
        <pt x="246" y="81" on="0"/>
        <pt x="343" y="121" on="0"/>
        <pt x="378" y="156" on="1"/>
        <pt x="420" y="197" on="0"/>
        <pt x="466" y="325" on="0"/>
        <pt x="466" y="405" on="1"/>
        <pt x="466" y="505" on="0"/>
        <pt x="366" y="610" on="0"/>
        <pt x="274" y="610" on="1"/>
        <pt x="221" y="610" on="1"/>
        <pt x="190" y="401" on="1"/>
        <pt x="328" y="401" on="1"/>
        <pt x="315" y="321" on="1"/>
        <pt x="178" y="321" on="1"/>
      </contour>
      <contour>
        <pt x="164" y="0" on="1"/>
        <pt x="40" y="0" on="1"/>
        <pt x="88" y="320" on="1"/>
        <pt x="23" y="320" on="1"/>
        <pt x="23" y="401" on="1"/>
        <pt x="100" y="401" on="1"/>
        <pt x="143" y="690" on="1"/>
        <pt x="278" y="690" on="1"/>
        <pt x="409" y="690" on="0"/>
        <pt x="559" y="540" on="0"/>
        <pt x="559" y="409" on="1"/>
        <pt x="559" y="316" on="0"/>
        <pt x="499" y="158" on="0"/>
        <pt x="446" y="105" on="1"/>
        <pt x="397" y="56" on="0"/>
        <pt x="259" y="0" on="0"/>
      </contour>
    </TTGlyph>
    <TTGlyph name="Eth.flat" xMin="17" yMin="0" xMax="559" yMax="690">
      <contour>
        <pt x="142" y="78" on="1"/>
        <pt x="176" y="81" on="1"/>
        <pt x="246" y="81" on="0"/>
        <pt x="343" y="121" on="0"/>
        <pt x="378" y="156" on="1"/>
        <pt x="420" y="197" on="0"/>
        <pt x="466" y="325" on="0"/>
        <pt x="466" y="405" on="1"/>
        <pt x="466" y="505" on="0"/>
        <pt x="366" y="610" on="0"/>
        <pt x="274" y="610" on="1"/>
        <pt x="221" y="610" on="1"/>
        <pt x="190" y="401" on="1"/>
        <pt x="328" y="401" on="1"/>
        <pt x="315" y="321" on="1"/>
        <pt x="178" y="321" on="1"/>
      </contour>
      <contour>
        <pt x="164" y="0" on="1"/>
        <pt x="40" y="0" on="1"/>
        <pt x="88" y="320" on="1"/>
        <pt x="17" y="320" on="1"/>
        <pt x="29" y="401" on="1"/>
        <pt x="100" y="401" on="1"/>
        <pt x="143" y="690" on="1"/>
        <pt x="278" y="690" on="1"/>
        <pt x="409" y="690" on="0"/>
        <pt x="559" y="540" on="0"/>
        <pt x="559" y="409" on="1"/>
        <pt x="559" y="316" on="0"/>
        <pt x="499" y="158" on="0"/>
        <pt x="446" y="105" on="1"/>
        <pt x="397" y="56" on="0"/>
        <pt x="259" y="0" on="0"/>
      </contour>
    </TTGlyph>
    <TTGlyph name="Euro" xMin="31" yMin="-13" xMax="556" yMax="695">
      <contour>
        <pt x="472" y="38" on="1"/>
        <pt x="444" y="18" on="0"/>
        <pt x="370" y="-13" on="0"/>
        <pt x="326" y="-13" on="1"/>
        <pt x="237" y="-13" on="0"/>
        <pt x="121" y="107" on="0"/>
        <pt x="111" y="226" on="1"/>
        <pt x="31" y="226" on="1"/>
        <pt x="31" y="295" on="1"/>
        <pt x="109" y="295" on="1"/>
        <pt x="110" y="320" on="0"/>
        <pt x="116" y="370" on="0"/>
        <pt x="120" y="393" on="1"/>
        <pt x="50" y="393" on="1"/>
        <pt x="60" y="462" on="1"/>
        <pt x="139" y="462" on="1"/>
        <pt x="156" y="513" on="0"/>
        <pt x="209" y="599" on="0"/>
        <pt x="277" y="660" on="0"/>
        <pt x="359" y="695" on="0"/>
        <pt x="405" y="695" on="1"/>
        <pt x="453" y="695" on="0"/>
        <pt x="529" y="665" on="0"/>
        <pt x="556" y="643" on="1"/>
        <pt x="532" y="563" on="1"/>
        <pt x="506" y="588" on="0"/>
        <pt x="441" y="620" on="0"/>
        <pt x="401" y="620" on="1"/>
        <pt x="346" y="620" on="0"/>
        <pt x="254" y="534" on="0"/>
        <pt x="226" y="462" on="1"/>
        <pt x="435" y="462" on="1"/>
        <pt x="435" y="393" on="1"/>
        <pt x="206" y="393" on="1"/>
        <pt x="202" y="370" on="0"/>
        <pt x="196" y="321" on="0"/>
        <pt x="195" y="295" on="1"/>
        <pt x="416" y="295" on="1"/>
        <pt x="405" y="226" on="1"/>
        <pt x="198" y="226" on="1"/>
        <pt x="206" y="143" on="0"/>
        <pt x="278" y="64" on="0"/>
        <pt x="332" y="64" on="1"/>
        <pt x="364" y="64" on="0"/>
        <pt x="434" y="91" on="0"/>
        <pt x="471" y="122" on="1"/>
      </contour>
    </TTGlyph>
    <TTGlyph name="Euro.flat" xMin="26" yMin="-13" xMax="556" yMax="695">
      <contour>
        <pt x="472" y="38" on="1"/>
        <pt x="444" y="18" on="0"/>
        <pt x="370" y="-13" on="0"/>
        <pt x="326" y="-13" on="1"/>
        <pt x="237" y="-13" on="0"/>
        <pt x="121" y="107" on="0"/>
        <pt x="111" y="226" on="1"/>
        <pt x="26" y="226" on="1"/>
        <pt x="36" y="295" on="1"/>
        <pt x="109" y="295" on="1"/>
        <pt x="110" y="320" on="0"/>
        <pt x="116" y="370" on="0"/>
        <pt x="120" y="393" on="1"/>
        <pt x="50" y="393" on="1"/>
        <pt x="60" y="462" on="1"/>
        <pt x="139" y="462" on="1"/>
        <pt x="156" y="513" on="0"/>
        <pt x="209" y="599" on="0"/>
        <pt x="277" y="660" on="0"/>
        <pt x="359" y="695" on="0"/>
        <pt x="405" y="695" on="1"/>
        <pt x="453" y="695" on="0"/>
        <pt x="529" y="665" on="0"/>
        <pt x="556" y="643" on="1"/>
        <pt x="532" y="563" on="1"/>
        <pt x="506" y="588" on="0"/>
        <pt x="441" y="620" on="0"/>
        <pt x="401" y="620" on="1"/>
        <pt x="346" y="620" on="0"/>
        <pt x="254" y="534" on="0"/>
        <pt x="226" y="462" on="1"/>
        <pt x="440" y="462" on="1"/>
        <pt x="430" y="393" on="1"/>
        <pt x="206" y="393" on="1"/>
        <pt x="202" y="370" on="0"/>
        <pt x="196" y="321" on="0"/>
        <pt x="195" y="295" on="1"/>
        <pt x="416" y="295" on="1"/>
        <pt x="405" y="226" on="1"/>
        <pt x="198" y="226" on="1"/>
        <pt x="206" y="143" on="0"/>
        <pt x="278" y="64" on="0"/>
        <pt x="332" y="64" on="1"/>
        <pt x="364" y="64" on="0"/>
        <pt x="434" y="91" on="0"/>
        <pt x="471" y="122" on="1"/>
      </contour>
    </TTGlyph>
    <TTGlyph name="Euro.tab" xMin="29" yMin="-12" xMax="521" yMax="696">
      <contour>
        <pt x="436" y="36" on="1"/>
        <pt x="408" y="15" on="0"/>
        <pt x="337" y="-12" on="0"/>
        <pt x="300" y="-12" on="1"/>
        <pt x="215" y="-12" on="0"/>
        <pt x="108" y="112" on="0"/>
        <pt x="100" y="226" on="1"/>
        <pt x="29" y="226" on="1"/>
        <pt x="29" y="295" on="1"/>
        <pt x="98" y="295" on="1"/>
        <pt x="99" y="320" on="0"/>
        <pt x="106" y="370" on="0"/>
        <pt x="110" y="393" on="1"/>
        <pt x="48" y="393" on="1"/>
        <pt x="58" y="462" on="1"/>
        <pt x="127" y="462" on="1"/>
        <pt x="161" y="565" on="0"/>
        <pt x="294" y="696" on="0"/>
        <pt x="381" y="696" on="1"/>
        <pt x="423" y="696" on="0"/>
        <pt x="493" y="667" on="0"/>
        <pt x="521" y="641" on="1"/>
        <pt x="496" y="562" on="1"/>
        <pt x="468" y="590" on="0"/>
        <pt x="411" y="622" on="0"/>
        <pt x="377" y="622" on="1"/>
        <pt x="326" y="622" on="0"/>
        <pt x="237" y="534" on="0"/>
        <pt x="211" y="462" on="1"/>
        <pt x="401" y="462" on="1"/>
        <pt x="401" y="393" on="1"/>
        <pt x="192" y="393" on="1"/>
        <pt x="188" y="370" on="0"/>
        <pt x="182" y="321" on="0"/>
        <pt x="181" y="295" on="1"/>
        <pt x="382" y="295" on="1"/>
        <pt x="371" y="226" on="1"/>
        <pt x="183" y="226" on="1"/>
        <pt x="191" y="141" on="0"/>
        <pt x="257" y="64" on="0"/>
        <pt x="308" y="64" on="1"/>
        <pt x="338" y="64" on="0"/>
        <pt x="404" y="93" on="0"/>
        <pt x="436" y="119" on="1"/>
      </contour>
    </TTGlyph>
    <TTGlyph name="Euro.tab_flat" xMin="24" yMin="-12" xMax="521" yMax="696">
      <contour>
        <pt x="436" y="36" on="1"/>
        <pt x="408" y="15" on="0"/>
        <pt x="337" y="-12" on="0"/>
        <pt x="300" y="-12" on="1"/>
        <pt x="215" y="-12" on="0"/>
        <pt x="108" y="112" on="0"/>
        <pt x="100" y="226" on="1"/>
        <pt x="24" y="226" on="1"/>
        <pt x="34" y="295" on="1"/>
        <pt x="98" y="295" on="1"/>
        <pt x="99" y="320" on="0"/>
        <pt x="106" y="370" on="0"/>
        <pt x="110" y="393" on="1"/>
        <pt x="48" y="393" on="1"/>
        <pt x="58" y="462" on="1"/>
        <pt x="127" y="462" on="1"/>
        <pt x="161" y="565" on="0"/>
        <pt x="294" y="696" on="0"/>
        <pt x="381" y="696" on="1"/>
        <pt x="423" y="696" on="0"/>
        <pt x="493" y="667" on="0"/>
        <pt x="521" y="641" on="1"/>
        <pt x="496" y="562" on="1"/>
        <pt x="468" y="590" on="0"/>
        <pt x="411" y="622" on="0"/>
        <pt x="377" y="622" on="1"/>
        <pt x="326" y="622" on="0"/>
        <pt x="237" y="534" on="0"/>
        <pt x="211" y="462" on="1"/>
        <pt x="406" y="462" on="1"/>
        <pt x="396" y="393" on="1"/>
        <pt x="192" y="393" on="1"/>
        <pt x="188" y="370" on="0"/>
        <pt x="182" y="321" on="0"/>
        <pt x="181" y="295" on="1"/>
        <pt x="382" y="295" on="1"/>
        <pt x="371" y="226" on="1"/>
        <pt x="183" y="226" on="1"/>
        <pt x="191" y="141" on="0"/>
        <pt x="257" y="64" on="0"/>
        <pt x="308" y="64" on="1"/>
        <pt x="338" y="64" on="0"/>
        <pt x="404" y="93" on="0"/>
        <pt x="436" y="119" on="1"/>
      </contour>
    </TTGlyph>
    <TTGlyph name="F" xMin="32" yMin="0" xMax="448" yMax="690">
      <contour>
        <pt x="448" y="690" on="1"/>
        <pt x="435" y="607" on="1"/>
        <pt x="213" y="607" on="1"/>
        <pt x="181" y="392" on="1"/>
        <pt x="352" y="392" on="1"/>
        <pt x="352" y="309" on="1"/>
        <pt x="168" y="309" on="1"/>
        <pt x="122" y="0" on="1"/>
        <pt x="32" y="0" on="1"/>
        <pt x="134" y="690" on="1"/>
      </contour>
    </TTGlyph>
    <TTGlyph name="F.flat" xMin="32" yMin="0" xMax="448" yMax="690">
      <contour>
        <pt x="448" y="690" on="1"/>
        <pt x="435" y="607" on="1"/>
        <pt x="213" y="607" on="1"/>
        <pt x="181" y="392" on="1"/>
        <pt x="358" y="392" on="1"/>
        <pt x="345" y="309" on="1"/>
        <pt x="168" y="309" on="1"/>
        <pt x="122" y="0" on="1"/>
        <pt x="32" y="0" on="1"/>
        <pt x="134" y="690" on="1"/>
      </contour>
    </TTGlyph>
    <TTGlyph name="G" xMin="49" yMin="-12" xMax="548" yMax="702">
      <contour>
        <pt x="528" y="377" on="1"/>
        <pt x="480" y="48" on="1"/>
        <pt x="446" y="26" on="0"/>
        <pt x="354" y="-12" on="0"/>
        <pt x="295" y="-12" on="1"/>
        <pt x="186" y="-12" on="0"/>
        <pt x="49" y="136" on="0"/>
        <pt x="49" y="273" on="1"/>
        <pt x="49" y="362" on="0"/>
        <pt x="100" y="519" on="0"/>
        <pt x="188" y="635" on="0"/>
        <pt x="309" y="702" on="0"/>
        <pt x="378" y="702" on="1"/>
        <pt x="430" y="702" on="0"/>
        <pt x="517" y="672" on="0"/>
        <pt x="548" y="650" on="1"/>
        <pt x="522" y="561" on="1"/>
        <pt x="493" y="586" on="0"/>
        <pt x="420" y="620" on="0"/>
        <pt x="376" y="620" on="1"/>
        <pt x="328" y="620" on="0"/>
        <pt x="243" y="567" on="0"/>
        <pt x="179" y="476" on="0"/>
        <pt x="142" y="352" on="0"/>
        <pt x="142" y="283" on="1"/>
        <pt x="142" y="172" on="0"/>
        <pt x="235" y="68" on="0"/>
        <pt x="301" y="68" on="1"/>
        <pt x="332" y="68" on="0"/>
        <pt x="380" y="83" on="0"/>
        <pt x="399" y="94" on="1"/>
        <pt x="429" y="294" on="1"/>
        <pt x="308" y="294" on="1"/>
        <pt x="308" y="377" on="1"/>
      </contour>
    </TTGlyph>
    <TTGlyph name="G.flat" xMin="49" yMin="-12" xMax="548" yMax="702">
      <contour>
        <pt x="528" y="377" on="1"/>
        <pt x="480" y="48" on="1"/>
        <pt x="446" y="26" on="0"/>
        <pt x="354" y="-12" on="0"/>
        <pt x="295" y="-12" on="1"/>
        <pt x="186" y="-12" on="0"/>
        <pt x="49" y="136" on="0"/>
        <pt x="49" y="273" on="1"/>
        <pt x="49" y="362" on="0"/>
        <pt x="100" y="519" on="0"/>
        <pt x="188" y="635" on="0"/>
        <pt x="309" y="702" on="0"/>
        <pt x="378" y="702" on="1"/>
        <pt x="430" y="702" on="0"/>
        <pt x="517" y="672" on="0"/>
        <pt x="548" y="650" on="1"/>
        <pt x="522" y="561" on="1"/>
        <pt x="493" y="586" on="0"/>
        <pt x="420" y="620" on="0"/>
        <pt x="376" y="620" on="1"/>
        <pt x="328" y="620" on="0"/>
        <pt x="243" y="567" on="0"/>
        <pt x="179" y="476" on="0"/>
        <pt x="142" y="352" on="0"/>
        <pt x="142" y="283" on="1"/>
        <pt x="142" y="172" on="0"/>
        <pt x="235" y="68" on="0"/>
        <pt x="301" y="68" on="1"/>
        <pt x="332" y="68" on="0"/>
        <pt x="380" y="83" on="0"/>
        <pt x="399" y="94" on="1"/>
        <pt x="429" y="294" on="1"/>
        <pt x="301" y="294" on="1"/>
        <pt x="314" y="377" on="1"/>
      </contour>
    </TTGlyph>
    <TTGlyph name="Gbreve" xMin="49" yMin="-12" xMax="548" yMax="882">
      <component glyphName="G" x="0" y="0" flags="0x204"/>
      <component glyphName="breve" x="128" y="213" flags="0x4"/>
    </TTGlyph>
    <TTGlyph name="Gbreve.flat" xMin="49" yMin="-12" xMax="548" yMax="882">
      <component glyphName="G.flat" x="0" y="0" flags="0x204"/>
      <component glyphName="breve" x="128" y="213" flags="0x4"/>
    </TTGlyph>
    <TTGlyph name="Gcommaaccent" xMin="49" yMin="-246" xMax="548" yMax="702">
      <component glyphName="G" x="0" y="0" flags="0x204"/>
      <component glyphName="commaaccent" x="81" y="-8" flags="0x4"/>
    </TTGlyph>
    <TTGlyph name="Gcommaaccent.flat" xMin="49" yMin="-246" xMax="548" yMax="702">
      <component glyphName="G.flat" x="0" y="0" flags="0x204"/>
      <component glyphName="commaaccent" x="81" y="-8" flags="0x4"/>
    </TTGlyph>
    <TTGlyph name="Gdotaccent" xMin="49" yMin="-12" xMax="548" yMax="859">
      <component glyphName="G" x="0" y="0" flags="0x204"/>
      <component glyphName="dotaccent" x="133" y="213" flags="0x4"/>
    </TTGlyph>
    <TTGlyph name="Gdotaccent.flat" xMin="49" yMin="-12" xMax="548" yMax="859">
      <component glyphName="G.flat" x="0" y="0" flags="0x204"/>
      <component glyphName="dotaccent" x="133" y="213" flags="0x4"/>
    </TTGlyph>
    <TTGlyph name="H" xMin="32" yMin="0" xMax="578" yMax="690">
      <contour>
        <pt x="578" y="690" on="1"/>
        <pt x="475" y="0" on="1"/>
        <pt x="385" y="0" on="1"/>
        <pt x="432" y="319" on="1"/>
        <pt x="170" y="319" on="1"/>
        <pt x="122" y="0" on="1"/>
        <pt x="32" y="0" on="1"/>
        <pt x="135" y="690" on="1"/>
        <pt x="225" y="690" on="1"/>
        <pt x="183" y="403" on="1"/>
        <pt x="445" y="403" on="1"/>
        <pt x="488" y="690" on="1"/>
      </contour>
    </TTGlyph>
    <TTGlyph name="Hbar" xMin="42" yMin="0" xMax="647" yMax="690">
      <contour>
        <pt x="191" y="394" on="1"/>
        <pt x="454" y="394" on="1"/>
        <pt x="472" y="517" on="1"/>
        <pt x="209" y="517" on="1"/>
      </contour>
      <contour>
        <pt x="179" y="312" on="1"/>
        <pt x="132" y="0" on="1"/>
        <pt x="42" y="0" on="1"/>
        <pt x="119" y="515" on="1"/>
        <pt x="53" y="515" on="1"/>
        <pt x="53" y="592" on="1"/>
        <pt x="130" y="592" on="1"/>
        <pt x="145" y="690" on="1"/>
        <pt x="235" y="690" on="1"/>
        <pt x="220" y="592" on="1"/>
        <pt x="483" y="592" on="1"/>
        <pt x="498" y="690" on="1"/>
        <pt x="588" y="690" on="1"/>
        <pt x="573" y="592" on="1"/>
        <pt x="647" y="592" on="1"/>
        <pt x="636" y="515" on="1"/>
        <pt x="562" y="515" on="1"/>
        <pt x="485" y="0" on="1"/>
        <pt x="395" y="0" on="1"/>
        <pt x="441" y="312" on="1"/>
      </contour>
    </TTGlyph>
    <TTGlyph name="Hbar.flat" xMin="42" yMin="0" xMax="647" yMax="690">
      <contour>
        <pt x="191" y="394" on="1"/>
        <pt x="454" y="394" on="1"/>
        <pt x="472" y="517" on="1"/>
        <pt x="209" y="517" on="1"/>
      </contour>
      <contour>
        <pt x="179" y="312" on="1"/>
        <pt x="132" y="0" on="1"/>
        <pt x="42" y="0" on="1"/>
        <pt x="119" y="515" on="1"/>
        <pt x="47" y="515" on="1"/>
        <pt x="58" y="592" on="1"/>
        <pt x="130" y="592" on="1"/>
        <pt x="145" y="690" on="1"/>
        <pt x="235" y="690" on="1"/>
        <pt x="220" y="592" on="1"/>
        <pt x="483" y="592" on="1"/>
        <pt x="498" y="690" on="1"/>
        <pt x="588" y="690" on="1"/>
        <pt x="573" y="592" on="1"/>
        <pt x="647" y="592" on="1"/>
        <pt x="636" y="515" on="1"/>
        <pt x="562" y="515" on="1"/>
        <pt x="485" y="0" on="1"/>
        <pt x="395" y="0" on="1"/>
        <pt x="441" y="312" on="1"/>
      </contour>
    </TTGlyph>
    <TTGlyph name="I" xMin="37" yMin="0" xMax="230" yMax="690">
      <contour>
        <pt x="230" y="690" on="1"/>
        <pt x="230" y="690" on="0"/>
        <pt x="197" y="474" on="0"/>
        <pt x="159" y="216" on="0"/>
        <pt x="127" y="0" on="0"/>
        <pt x="127" y="0" on="1"/>
        <pt x="37" y="0" on="1"/>
        <pt x="37" y="0" on="0"/>
        <pt x="69" y="216" on="0"/>
        <pt x="107" y="474" on="0"/>
        <pt x="139" y="690" on="0"/>
        <pt x="139" y="690" on="1"/>
      </contour>
    </TTGlyph>
    <TTGlyph name="Iacute" xMin="37" yMin="0" xMax="352" yMax="892">
      <component glyphName="I" x="0" y="0" flags="0x204"/>
      <component glyphName="acute" x="-9" y="203" flags="0x4"/>
    </TTGlyph>
    <TTGlyph name="Ibreve" xMin="37" yMin="0" xMax="331" yMax="872">
      <component glyphName="I" x="0" y="0" flags="0x204"/>
      <component glyphName="breve" x="-61" y="203" flags="0x4"/>
    </TTGlyph>
    <TTGlyph name="Icircumflex" xMin="37" yMin="0" xMax="319" yMax="885">
      <component glyphName="I" x="0" y="0" flags="0x204"/>
      <component glyphName="circumflex" x="-58" y="203" flags="0x4"/>
    </TTGlyph>
    <TTGlyph name="Idieresis" xMin="37" yMin="0" xMax="335" yMax="849">
      <component glyphName="I" x="0" y="0" flags="0x204"/>
      <component glyphName="dieresis" x="-56" y="203" flags="0x4"/>
    </TTGlyph>
    <TTGlyph name="Idotaccent" xMin="37" yMin="0" xMax="256" yMax="849">
      <component glyphName="I" x="0" y="0" flags="0x204"/>
      <component glyphName="dotaccent" x="-56" y="203" flags="0x4"/>
    </TTGlyph>
    <TTGlyph name="Igrave" xMin="37" yMin="0" xMax="230" yMax="892">
      <component glyphName="I" x="0" y="0" flags="0x204"/>
      <component glyphName="grave" x="-110" y="203" flags="0x4"/>
    </TTGlyph>
    <TTGlyph name="Imacron" xMin="37" yMin="0" xMax="333" yMax="836">
      <component glyphName="I" x="0" y="0" flags="0x204"/>
      <component glyphName="macron" x="-56" y="203" flags="0x4"/>
    </TTGlyph>
    <TTGlyph name="Iogonek" xMin="-21" yMin="-181" xMax="230" yMax="690">
      <component glyphName="I" x="0" y="0" flags="0x204"/>
      <component glyphName="ogonek" x="-116" y="0" flags="0x4"/>
    </TTGlyph>
    <TTGlyph name="J" xMin="-4" yMin="-7" xMax="328" yMax="690">
      <contour>
        <pt x="328" y="690" on="1"/>
        <pt x="249" y="161" on="1"/>
        <pt x="236" y="74" on="0"/>
        <pt x="140" y="-7" on="0"/>
        <pt x="65" y="-7" on="1"/>
        <pt x="45" y="-7" on="0"/>
        <pt x="9" y="-3" on="0"/>
        <pt x="-4" y="1" on="1"/>
        <pt x="-4" y="85" on="1"/>
        <pt x="12" y="81" on="0"/>
        <pt x="45" y="75" on="0"/>
        <pt x="62" y="75" on="1"/>
        <pt x="99" y="75" on="0"/>
        <pt x="151" y="115" on="0"/>
        <pt x="159" y="166" on="1"/>
        <pt x="237" y="690" on="1"/>
      </contour>
    </TTGlyph>
    <TTGlyph name="K" xMin="31" yMin="-7" xMax="551" yMax="690">
      <contour>
        <pt x="551" y="690" on="1"/>
        <pt x="264" y="359" on="1"/>
        <pt x="462" y="14" on="1"/>
        <pt x="374" y="-7" on="1"/>
        <pt x="174" y="348" on="1"/>
        <pt x="122" y="0" on="1"/>
        <pt x="31" y="0" on="1"/>
        <pt x="31" y="0" on="0"/>
        <pt x="64" y="216" on="0"/>
        <pt x="102" y="474" on="0"/>
        <pt x="134" y="690" on="0"/>
        <pt x="134" y="690" on="1"/>
        <pt x="225" y="690" on="1"/>
        <pt x="177" y="374" on="1"/>
        <pt x="442" y="690" on="1"/>
      </contour>
    </TTGlyph>
    <TTGlyph name="K.flat" xMin="31" yMin="0" xMax="551" yMax="690">
      <contour>
        <pt x="551" y="690" on="1"/>
        <pt x="264" y="359" on="1"/>
        <pt x="470" y="0" on="1"/>
        <pt x="370" y="0" on="1"/>
        <pt x="174" y="348" on="1"/>
        <pt x="122" y="0" on="1"/>
        <pt x="31" y="0" on="1"/>
        <pt x="31" y="0" on="0"/>
        <pt x="64" y="216" on="0"/>
        <pt x="102" y="474" on="0"/>
        <pt x="134" y="690" on="0"/>
        <pt x="134" y="690" on="1"/>
        <pt x="225" y="690" on="1"/>
        <pt x="177" y="374" on="1"/>
        <pt x="442" y="690" on="1"/>
      </contour>
    </TTGlyph>
    <TTGlyph name="Kcommaaccent" xMin="31" yMin="-230" xMax="551" yMax="690">
      <component glyphName="K" x="0" y="0" flags="0x204"/>
      <component glyphName="commaaccent" x="47" y="8" flags="0x4"/>
    </TTGlyph>
    <TTGlyph name="Kcommaaccent.flat" xMin="31" yMin="-230" xMax="551" yMax="690">
      <component glyphName="K.flat" x="0" y="0" flags="0x204"/>
      <component glyphName="commaaccent" x="47" y="8" flags="0x4"/>
    </TTGlyph>
    <TTGlyph name="L" xMin="32" yMin="0" xMax="343" yMax="690">
      <contour>
        <pt x="343" y="0" on="1"/>
        <pt x="32" y="0" on="1"/>
        <pt x="135" y="690" on="1"/>
        <pt x="225" y="690" on="1"/>
        <pt x="134" y="84" on="1"/>
        <pt x="343" y="84" on="1"/>
      </contour>
    </TTGlyph>
    <TTGlyph name="L.flat" xMin="32" yMin="0" xMax="349" yMax="690">
      <contour>
        <pt x="336" y="0" on="1"/>
        <pt x="32" y="0" on="1"/>
        <pt x="135" y="690" on="1"/>
        <pt x="225" y="690" on="1"/>
        <pt x="134" y="84" on="1"/>
        <pt x="349" y="84" on="1"/>
      </contour>
    </TTGlyph>
    <TTGlyph name="Lacute" xMin="32" yMin="0" xMax="356" yMax="894">
      <component glyphName="L" x="0" y="0" flags="0x204"/>
      <component glyphName="acute" x="-5" y="205" flags="0x4"/>
    </TTGlyph>
    <TTGlyph name="Lacute.flat" xMin="32" yMin="0" xMax="356" yMax="894">
      <component glyphName="L.flat" x="0" y="0" flags="0x204"/>
      <component glyphName="acute" x="-5" y="205" flags="0x4"/>
    </TTGlyph>
    <TTGlyph name="Lcaron" xMin="32" yMin="0" xMax="375" yMax="696">
      <component glyphName="L" x="0" y="0" flags="0x204"/>
      <component glyphName="caron.alt" x="51" y="-25" flags="0x4"/>
    </TTGlyph>
    <TTGlyph name="Lcaron.flat" xMin="32" yMin="0" xMax="375" yMax="696">
      <component glyphName="L.flat" x="0" y="0" flags="0x204"/>
      <component glyphName="caron.alt" x="51" y="-25" flags="0x4"/>
    </TTGlyph>
    <TTGlyph name="Lcommaaccent" xMin="32" yMin="-238" xMax="343" yMax="690">
      <component glyphName="L" x="0" y="0" flags="0x204"/>
      <component glyphName="commaaccent" x="-2" y="0" flags="0x4"/>
    </TTGlyph>
    <TTGlyph name="Lcommaaccent.flat" xMin="32" yMin="-238" xMax="349" yMax="690">
      <component glyphName="L.flat" x="0" y="0" flags="0x204"/>
      <component glyphName="commaaccent" x="-2" y="0" flags="0x4"/>
    </TTGlyph>
    <TTGlyph name="Ldot" xMin="32" yMin="0" xMax="384" yMax="690">
      <contour>
        <pt x="343" y="0" on="1"/>
        <pt x="32" y="0" on="1"/>
        <pt x="135" y="690" on="1"/>
        <pt x="225" y="690" on="1"/>
        <pt x="134" y="84" on="1"/>
        <pt x="343" y="84" on="1"/>
      </contour>
      <contour>
        <pt x="369" y="308" on="1"/>
        <pt x="276" y="308" on="1"/>
        <pt x="291" y="406" on="1"/>
        <pt x="384" y="406" on="1"/>
      </contour>
    </TTGlyph>
    <TTGlyph name="Ldot.flat" xMin="32" yMin="0" xMax="384" yMax="690">
      <contour>
        <pt x="336" y="0" on="1"/>
        <pt x="32" y="0" on="1"/>
        <pt x="135" y="690" on="1"/>
        <pt x="225" y="690" on="1"/>
        <pt x="134" y="84" on="1"/>
        <pt x="349" y="84" on="1"/>
      </contour>
      <contour>
        <pt x="369" y="308" on="1"/>
        <pt x="276" y="308" on="1"/>
        <pt x="291" y="406" on="1"/>
        <pt x="384" y="406" on="1"/>
      </contour>
    </TTGlyph>
    <TTGlyph name="Lslash" xMin="27" yMin="0" xMax="361" yMax="690">
      <contour>
        <pt x="361" y="0" on="1"/>
        <pt x="50" y="0" on="1"/>
        <pt x="89" y="262" on="1"/>
        <pt x="27" y="229" on="1"/>
        <pt x="27" y="313" on="1"/>
        <pt x="103" y="352" on="1"/>
        <pt x="153" y="690" on="1"/>
        <pt x="243" y="690" on="1"/>
        <pt x="200" y="401" on="1"/>
        <pt x="337" y="472" on="1"/>
        <pt x="323" y="380" on="1"/>
        <pt x="186" y="310" on="1"/>
        <pt x="152" y="84" on="1"/>
        <pt x="361" y="84" on="1"/>
      </contour>
    </TTGlyph>
    <TTGlyph name="Lslash.flat" xMin="20" yMin="0" xMax="364" yMax="690">
      <contour>
        <pt x="357" y="0" on="1"/>
        <pt x="50" y="0" on="1"/>
        <pt x="89" y="262" on="1"/>
        <pt x="20" y="225" on="1"/>
        <pt x="33" y="316" on="1"/>
        <pt x="103" y="352" on="1"/>
        <pt x="153" y="690" on="1"/>
        <pt x="243" y="690" on="1"/>
        <pt x="200" y="401" on="1"/>
        <pt x="337" y="472" on="1"/>
        <pt x="323" y="380" on="1"/>
        <pt x="186" y="310" on="1"/>
        <pt x="152" y="84" on="1"/>
        <pt x="364" y="84" on="1"/>
      </contour>
    </TTGlyph>
    <TTGlyph name="M" xMin="15" yMin="-3" xMax="734" yMax="690">
      <contour>
        <pt x="734" y="690" on="1"/>
        <pt x="677" y="0" on="1"/>
        <pt x="589" y="0" on="1"/>
        <pt x="638" y="552" on="1"/>
        <pt x="380" y="-3" on="1"/>
        <pt x="307" y="-3" on="1"/>
        <pt x="215" y="551" on="1"/>
        <pt x="100" y="0" on="1"/>
        <pt x="15" y="0" on="1"/>
        <pt x="164" y="690" on="1"/>
        <pt x="274" y="690" on="1"/>
        <pt x="364" y="127" on="1"/>
        <pt x="621" y="690" on="1"/>
      </contour>
    </TTGlyph>
    <TTGlyph name="M.alt" xMin="32" yMin="-3" xMax="746" yMax="690">
      <contour>
        <pt x="643" y="0" on="1"/>
        <pt x="558" y="0" on="1"/>
        <pt x="639" y="543" on="1"/>
        <pt x="373" y="-3" on="1"/>
        <pt x="297" y="-3" on="1"/>
        <pt x="194" y="543" on="1"/>
        <pt x="113" y="0" on="1"/>
        <pt x="32" y="0" on="1"/>
        <pt x="135" y="690" on="1"/>
        <pt x="246" y="690" on="1"/>
        <pt x="354" y="120" on="1"/>
        <pt x="629" y="690" on="1"/>
        <pt x="746" y="690" on="1"/>
      </contour>
    </TTGlyph>
    <TTGlyph name="N" xMin="31" yMin="0" xMax="579" yMax="690">
      <contour>
        <pt x="579" y="690" on="1"/>
        <pt x="579" y="690" on="0"/>
        <pt x="546" y="474" on="0"/>
        <pt x="508" y="216" on="0"/>
        <pt x="476" y="0" on="0"/>
        <pt x="476" y="0" on="1"/>
        <pt x="408" y="0" on="1"/>
        <pt x="194" y="543" on="1"/>
        <pt x="114" y="0" on="1"/>
        <pt x="31" y="0" on="1"/>
        <pt x="31" y="0" on="0"/>
        <pt x="64" y="216" on="0"/>
        <pt x="102" y="474" on="0"/>
        <pt x="134" y="690" on="0"/>
        <pt x="134" y="690" on="1"/>
        <pt x="223" y="690" on="1"/>
        <pt x="422" y="182" on="1"/>
        <pt x="496" y="690" on="1"/>
      </contour>
    </TTGlyph>
    <TTGlyph name="Nacute" xMin="31" yMin="0" xMax="579" yMax="882">
      <component glyphName="N" x="0" y="0" flags="0x204"/>
      <component glyphName="acute" x="163" y="193" flags="0x4"/>
    </TTGlyph>
    <TTGlyph name="Ncaron" xMin="31" yMin="0" xMax="579" yMax="874">
      <component glyphName="N" x="0" y="0" flags="0x204"/>
      <component glyphName="caron" x="115" y="193" flags="0x4"/>
    </TTGlyph>
    <TTGlyph name="Ncommaaccent" xMin="31" yMin="-230" xMax="579" yMax="690">
      <component glyphName="N" x="0" y="0" flags="0x204"/>
      <component glyphName="commaaccent" x="69" y="8" flags="0x4"/>
    </TTGlyph>
    <TTGlyph name="Ntilde" xMin="31" yMin="0" xMax="579" yMax="861">
      <component glyphName="N" x="0" y="0" flags="0x204"/>
      <component glyphName="tilde" x="117" y="193" flags="0x4"/>
    </TTGlyph>
    <TTGlyph name="O" xMin="50" yMin="-13" xMax="581" yMax="703">
      <contour>
        <pt x="278" y="-13" on="1"/>
        <pt x="223" y="-13" on="0"/>
        <pt x="137" y="28" on="0"/>
        <pt x="80" y="103" on="0"/>
        <pt x="50" y="207" on="0"/>
        <pt x="50" y="270" on="1"/>
        <pt x="50" y="322" on="0"/>
        <pt x="67" y="425" on="0"/>
        <pt x="99" y="518" on="0"/>
        <pt x="146" y="598" on="0"/>
        <pt x="176" y="628" on="1"/>
        <pt x="210" y="662" on="0"/>
        <pt x="297" y="703" on="0"/>
        <pt x="353" y="703" on="1"/>
        <pt x="408" y="703" on="0"/>
        <pt x="494" y="662" on="0"/>
        <pt x="551" y="588" on="0"/>
        <pt x="581" y="483" on="0"/>
        <pt x="581" y="421" on="1"/>
        <pt x="581" y="368" on="0"/>
        <pt x="564" y="265" on="0"/>
        <pt x="532" y="172" on="0"/>
        <pt x="485" y="92" on="0"/>
        <pt x="455" y="63" on="1"/>
        <pt x="421" y="29" on="0"/>
        <pt x="334" y="-13" on="0"/>
      </contour>
      <contour>
        <pt x="280" y="66" on="1"/>
        <pt x="311" y="66" on="0"/>
        <pt x="365" y="92" on="0"/>
        <pt x="387" y="114" on="1"/>
        <pt x="434" y="161" on="0"/>
        <pt x="489" y="326" on="0"/>
        <pt x="489" y="420" on="1"/>
        <pt x="489" y="518" on="0"/>
        <pt x="417" y="624" on="0"/>
        <pt x="351" y="624" on="1"/>
        <pt x="320" y="624" on="0"/>
        <pt x="266" y="599" on="0"/>
        <pt x="244" y="576" on="1"/>
        <pt x="197" y="529" on="0"/>
        <pt x="142" y="365" on="0"/>
        <pt x="142" y="271" on="1"/>
        <pt x="142" y="173" on="0"/>
        <pt x="214" y="66" on="0"/>
      </contour>
    </TTGlyph>
    <TTGlyph name="OE" xMin="52" yMin="0" xMax="772" yMax="690">
      <contour>
        <pt x="333" y="0" on="1"/>
        <pt x="202" y="0" on="0"/>
        <pt x="52" y="150" on="0"/>
        <pt x="52" y="281" on="1"/>
        <pt x="52" y="374" on="0"/>
        <pt x="112" y="532" on="0"/>
        <pt x="165" y="585" on="1"/>
        <pt x="214" y="634" on="0"/>
        <pt x="352" y="690" on="0"/>
        <pt x="447" y="690" on="1"/>
        <pt x="772" y="690" on="1"/>
        <pt x="759" y="607" on="1"/>
        <pt x="532" y="607" on="1"/>
        <pt x="501" y="403" on="1"/>
        <pt x="677" y="403" on="1"/>
        <pt x="677" y="319" on="1"/>
        <pt x="488" y="319" on="1"/>
        <pt x="452" y="83" on="1"/>
        <pt x="691" y="83" on="1"/>
        <pt x="678" y="0" on="1"/>
      </contour>
      <contour>
        <pt x="337" y="81" on="1"/>
        <pt x="363" y="81" on="1"/>
        <pt x="442" y="609" on="1"/>
        <pt x="430" y="609" on="1"/>
        <pt x="362" y="608" on="0"/>
        <pt x="267" y="569" on="0"/>
        <pt x="233" y="535" on="1"/>
        <pt x="191" y="493" on="0"/>
        <pt x="145" y="366" on="0"/>
        <pt x="145" y="285" on="1"/>
        <pt x="145" y="185" on="0"/>
        <pt x="245" y="81" on="0"/>
      </contour>
    </TTGlyph>
    <TTGlyph name="OE.flat" xMin="52" yMin="0" xMax="772" yMax="690">
      <contour>
        <pt x="333" y="0" on="1"/>
        <pt x="202" y="0" on="0"/>
        <pt x="52" y="150" on="0"/>
        <pt x="52" y="281" on="1"/>
        <pt x="52" y="374" on="0"/>
        <pt x="112" y="532" on="0"/>
        <pt x="165" y="585" on="1"/>
        <pt x="214" y="634" on="0"/>
        <pt x="352" y="690" on="0"/>
        <pt x="447" y="690" on="1"/>
        <pt x="772" y="690" on="1"/>
        <pt x="759" y="607" on="1"/>
        <pt x="532" y="607" on="1"/>
        <pt x="501" y="403" on="1"/>
        <pt x="683" y="403" on="1"/>
        <pt x="671" y="319" on="1"/>
        <pt x="488" y="319" on="1"/>
        <pt x="452" y="83" on="1"/>
        <pt x="691" y="83" on="1"/>
        <pt x="678" y="0" on="1"/>
      </contour>
      <contour>
        <pt x="337" y="81" on="1"/>
        <pt x="363" y="81" on="1"/>
        <pt x="442" y="609" on="1"/>
        <pt x="430" y="609" on="1"/>
        <pt x="362" y="608" on="0"/>
        <pt x="267" y="569" on="0"/>
        <pt x="233" y="535" on="1"/>
        <pt x="191" y="493" on="0"/>
        <pt x="145" y="366" on="0"/>
        <pt x="145" y="285" on="1"/>
        <pt x="145" y="185" on="0"/>
        <pt x="245" y="81" on="0"/>
      </contour>
    </TTGlyph>
    <TTGlyph name="Oacute" xMin="50" yMin="-13" xMax="581" yMax="902">
      <component glyphName="O" x="0" y="0" flags="0x204"/>
      <component glyphName="acute" x="175" y="213" flags="0x4"/>
    </TTGlyph>
    <TTGlyph name="Obreve" xMin="50" yMin="-13" xMax="581" yMax="882">
      <component glyphName="O" x="0" y="0" flags="0x204"/>
      <component glyphName="breve" x="122" y="213" flags="0x4"/>
    </TTGlyph>
    <TTGlyph name="Ocircumflex" xMin="50" yMin="-13" xMax="581" yMax="895">
      <component glyphName="O" x="0" y="0" flags="0x204"/>
      <component glyphName="circumflex" x="125" y="213" flags="0x4"/>
    </TTGlyph>
    <TTGlyph name="Odieresis" xMin="50" yMin="-13" xMax="581" yMax="859">
      <component glyphName="O" x="0" y="0" flags="0x204"/>
      <component glyphName="dieresis" x="127" y="213" flags="0x4"/>
    </TTGlyph>
    <TTGlyph name="Ograve" xMin="50" yMin="-13" xMax="581" yMax="902">
      <component glyphName="O" x="0" y="0" flags="0x204"/>
      <component glyphName="grave" x="74" y="213" flags="0x4"/>
    </TTGlyph>
    <TTGlyph name="Ohungarumlaut" xMin="50" yMin="-13" xMax="594" yMax="902">
      <component glyphName="O" x="0" y="0" flags="0x204"/>
      <component glyphName="hungarumlaut" x="172" y="213" flags="0x4"/>
    </TTGlyph>
    <TTGlyph name="Omacron" xMin="50" yMin="-13" xMax="581" yMax="846">
      <component glyphName="O" x="0" y="0" flags="0x204"/>
      <component glyphName="macron" x="127" y="213" flags="0x4"/>
    </TTGlyph>
    <TTGlyph name="Oslash" xMin="-9" yMin="-13" xMax="640" yMax="703">
      <contour>
        <pt x="278" y="-13" on="1"/>
        <pt x="227" y="-13" on="0"/>
        <pt x="147" y="22" on="0"/>
        <pt x="119" y="53" on="1"/>
        <pt x="67" y="-10" on="1"/>
        <pt x="-9" y="10" on="1"/>
        <pt x="79" y="115" on="1"/>
        <pt x="65" y="147" on="0"/>
        <pt x="50" y="226" on="0"/>
        <pt x="50" y="270" on="1"/>
        <pt x="50" y="322" on="0"/>
        <pt x="67" y="425" on="0"/>
        <pt x="99" y="518" on="0"/>
        <pt x="146" y="598" on="0"/>
        <pt x="176" y="628" on="1"/>
        <pt x="210" y="662" on="0"/>
        <pt x="297" y="703" on="0"/>
        <pt x="353" y="703" on="1"/>
        <pt x="404" y="703" on="0"/>
        <pt x="485" y="668" on="0"/>
        <pt x="513" y="636" on="1"/>
        <pt x="565" y="700" on="1"/>
        <pt x="640" y="680" on="1"/>
        <pt x="552" y="575" on="1"/>
        <pt x="566" y="543" on="0"/>
        <pt x="581" y="465" on="0"/>
        <pt x="581" y="421" on="1"/>
        <pt x="581" y="368" on="0"/>
        <pt x="564" y="265" on="0"/>
        <pt x="532" y="172" on="0"/>
        <pt x="485" y="92" on="0"/>
        <pt x="455" y="63" on="1"/>
        <pt x="421" y="29" on="0"/>
        <pt x="334" y="-13" on="0"/>
      </contour>
      <contour>
        <pt x="140" y="271" on="1"/>
        <pt x="140" y="249" on="0"/>
        <pt x="144" y="208" on="0"/>
        <pt x="148" y="190" on="1"/>
        <pt x="458" y="568" on="1"/>
        <pt x="440" y="596" on="0"/>
        <pt x="386" y="626" on="0"/>
        <pt x="351" y="626" on="1"/>
        <pt x="320" y="626" on="0"/>
        <pt x="266" y="601" on="0"/>
        <pt x="243" y="578" on="1"/>
        <pt x="195" y="530" on="0"/>
        <pt x="140" y="365" on="0"/>
      </contour>
      <contour>
        <pt x="280" y="64" on="1"/>
        <pt x="311" y="64" on="0"/>
        <pt x="365" y="90" on="0"/>
        <pt x="388" y="113" on="1"/>
        <pt x="436" y="160" on="0"/>
        <pt x="491" y="325" on="0"/>
        <pt x="491" y="420" on="1"/>
        <pt x="491" y="442" on="0"/>
        <pt x="488" y="482" on="0"/>
        <pt x="484" y="500" on="1"/>
        <pt x="174" y="121" on="1"/>
        <pt x="191" y="93" on="0"/>
        <pt x="245" y="64" on="0"/>
      </contour>
    </TTGlyph>
    <TTGlyph name="Oslashacute" xMin="-9" yMin="-13" xMax="640" yMax="902">
      <component glyphName="Oslash" x="0" y="0" flags="0x204"/>
      <component glyphName="acute" x="175" y="213" flags="0x4"/>
    </TTGlyph>
    <TTGlyph name="Otilde" xMin="50" yMin="-13" xMax="581" yMax="881">
      <component glyphName="O" x="0" y="0" flags="0x204"/>
      <component glyphName="tilde" x="128" y="213" flags="0x4"/>
    </TTGlyph>
    <TTGlyph name="P" xMin="32" yMin="0" xMax="479" yMax="690">
      <contour>
        <pt x="479" y="501" on="1"/>
        <pt x="479" y="447" on="0"/>
        <pt x="440" y="360" on="0"/>
        <pt x="370" y="300" on="0"/>
        <pt x="270" y="268" on="0"/>
        <pt x="210" y="268" on="1"/>
        <pt x="162" y="268" on="1"/>
        <pt x="122" y="0" on="1"/>
        <pt x="32" y="0" on="1"/>
        <pt x="135" y="690" on="1"/>
        <pt x="252" y="690" on="1"/>
        <pt x="364" y="690" on="0"/>
        <pt x="479" y="588" on="0"/>
      </contour>
      <contour>
        <pt x="389" y="498" on="1"/>
        <pt x="389" y="555" on="0"/>
        <pt x="317" y="611" on="0"/>
        <pt x="251" y="611" on="1"/>
        <pt x="213" y="611" on="1"/>
        <pt x="175" y="348" on="1"/>
        <pt x="219" y="348" on="1"/>
        <pt x="302" y="348" on="0"/>
        <pt x="389" y="431" on="0"/>
      </contour>
    </TTGlyph>
    <TTGlyph name="Q" xMin="50" yMin="-143" xMax="581" yMax="703">
      <contour>
        <pt x="492" y="-143" on="1"/>
        <pt x="230" y="-21" on="1"/>
        <pt x="136" y="23" on="0"/>
        <pt x="50" y="157" on="0"/>
        <pt x="50" y="270" on="1"/>
        <pt x="50" y="323" on="0"/>
        <pt x="67" y="426" on="0"/>
        <pt x="99" y="518" on="0"/>
        <pt x="146" y="598" on="0"/>
        <pt x="176" y="628" on="1"/>
        <pt x="210" y="662" on="0"/>
        <pt x="297" y="703" on="0"/>
        <pt x="353" y="703" on="1"/>
        <pt x="409" y="703" on="0"/>
        <pt x="494" y="661" on="0"/>
        <pt x="552" y="587" on="0"/>
        <pt x="581" y="483" on="0"/>
        <pt x="581" y="422" on="1"/>
        <pt x="581" y="316" on="0"/>
        <pt x="516" y="125" on="0"/>
        <pt x="458" y="67" on="1"/>
        <pt x="439" y="48" on="0"/>
        <pt x="392" y="15" on="0"/>
        <pt x="365" y="5" on="1"/>
        <pt x="522" y="-60" on="1"/>
      </contour>
      <contour>
        <pt x="280" y="66" on="1"/>
        <pt x="311" y="66" on="0"/>
        <pt x="365" y="92" on="0"/>
        <pt x="387" y="114" on="1"/>
        <pt x="434" y="161" on="0"/>
        <pt x="489" y="326" on="0"/>
        <pt x="489" y="420" on="1"/>
        <pt x="489" y="518" on="0"/>
        <pt x="417" y="624" on="0"/>
        <pt x="351" y="624" on="1"/>
        <pt x="320" y="624" on="0"/>
        <pt x="266" y="599" on="0"/>
        <pt x="244" y="576" on="1"/>
        <pt x="197" y="529" on="0"/>
        <pt x="142" y="365" on="0"/>
        <pt x="142" y="271" on="1"/>
        <pt x="142" y="173" on="0"/>
        <pt x="214" y="66" on="0"/>
      </contour>
    </TTGlyph>
    <TTGlyph name="Q.alt" xMin="50" yMin="-14" xMax="581" yMax="703">
      <contour>
        <pt x="520" y="-14" on="1"/>
        <pt x="450" y="59" on="1"/>
        <pt x="416" y="26" on="0"/>
        <pt x="332" y="-13" on="0"/>
        <pt x="278" y="-13" on="1"/>
        <pt x="223" y="-13" on="0"/>
        <pt x="137" y="28" on="0"/>
        <pt x="80" y="103" on="0"/>
        <pt x="50" y="207" on="0"/>
        <pt x="50" y="270" on="1"/>
        <pt x="50" y="322" on="0"/>
        <pt x="67" y="425" on="0"/>
        <pt x="99" y="518" on="0"/>
        <pt x="146" y="598" on="0"/>
        <pt x="176" y="628" on="1"/>
        <pt x="210" y="662" on="0"/>
        <pt x="297" y="703" on="0"/>
        <pt x="353" y="703" on="1"/>
        <pt x="408" y="703" on="0"/>
        <pt x="494" y="662" on="0"/>
        <pt x="551" y="588" on="0"/>
        <pt x="581" y="483" on="0"/>
        <pt x="581" y="421" on="1"/>
        <pt x="581" y="339" on="0"/>
        <pt x="539" y="183" on="0"/>
        <pt x="502" y="123" on="1"/>
        <pt x="549" y="75" on="1"/>
      </contour>
      <contour>
        <pt x="280" y="66" on="1"/>
        <pt x="311" y="66" on="0"/>
        <pt x="365" y="92" on="0"/>
        <pt x="388" y="114" on="1"/>
        <pt x="389" y="115" on="0"/>
        <pt x="391" y="118" on="0"/>
        <pt x="392" y="119" on="1"/>
        <pt x="269" y="242" on="1"/>
        <pt x="366" y="263" on="1"/>
        <pt x="439" y="187" on="1"/>
        <pt x="463" y="235" on="0"/>
        <pt x="489" y="355" on="0"/>
        <pt x="489" y="420" on="1"/>
        <pt x="489" y="518" on="0"/>
        <pt x="417" y="624" on="0"/>
        <pt x="351" y="624" on="1"/>
        <pt x="320" y="624" on="0"/>
        <pt x="266" y="599" on="0"/>
        <pt x="244" y="576" on="1"/>
        <pt x="197" y="529" on="0"/>
        <pt x="142" y="365" on="0"/>
        <pt x="142" y="271" on="1"/>
        <pt x="142" y="173" on="0"/>
        <pt x="214" y="66" on="0"/>
      </contour>
    </TTGlyph>
    <TTGlyph name="Q.alt_flat" xMin="50" yMin="-15" xMax="581" yMax="703">
      <contour>
        <pt x="535" y="-15" on="1"/>
        <pt x="454" y="63" on="1"/>
        <pt x="420" y="29" on="0"/>
        <pt x="334" y="-13" on="0"/>
        <pt x="278" y="-13" on="1"/>
        <pt x="223" y="-13" on="0"/>
        <pt x="137" y="28" on="0"/>
        <pt x="80" y="103" on="0"/>
        <pt x="50" y="207" on="0"/>
        <pt x="50" y="270" on="1"/>
        <pt x="50" y="322" on="0"/>
        <pt x="67" y="425" on="0"/>
        <pt x="99" y="518" on="0"/>
        <pt x="146" y="598" on="0"/>
        <pt x="176" y="628" on="1"/>
        <pt x="210" y="662" on="0"/>
        <pt x="297" y="703" on="0"/>
        <pt x="353" y="703" on="1"/>
        <pt x="408" y="703" on="0"/>
        <pt x="494" y="662" on="0"/>
        <pt x="551" y="588" on="0"/>
        <pt x="581" y="483" on="0"/>
        <pt x="581" y="421" on="1"/>
        <pt x="581" y="340" on="0"/>
        <pt x="541" y="187" on="0"/>
        <pt x="504" y="127" on="1"/>
        <pt x="558" y="77" on="1"/>
      </contour>
      <contour>
        <pt x="280" y="66" on="1"/>
        <pt x="311" y="66" on="0"/>
        <pt x="365" y="92" on="0"/>
        <pt x="388" y="114" on="1"/>
        <pt x="389" y="115" on="0"/>
        <pt x="392" y="118" on="0"/>
        <pt x="393" y="119" on="1"/>
        <pt x="311" y="196" on="1"/>
        <pt x="333" y="289" on="1"/>
        <pt x="440" y="188" on="1"/>
        <pt x="463" y="236" on="0"/>
        <pt x="489" y="356" on="0"/>
        <pt x="489" y="420" on="1"/>
        <pt x="489" y="518" on="0"/>
        <pt x="417" y="624" on="0"/>
        <pt x="351" y="624" on="1"/>
        <pt x="320" y="624" on="0"/>
        <pt x="266" y="599" on="0"/>
        <pt x="244" y="576" on="1"/>
        <pt x="197" y="529" on="0"/>
        <pt x="142" y="365" on="0"/>
        <pt x="142" y="271" on="1"/>
        <pt x="142" y="173" on="0"/>
        <pt x="214" y="66" on="0"/>
      </contour>
    </TTGlyph>
    <TTGlyph name="R" xMin="31" yMin="-7" xMax="476" yMax="690">
      <contour>
        <pt x="476" y="513" on="1"/>
        <pt x="476" y="469" on="0"/>
        <pt x="449" y="397" on="0"/>
        <pt x="403" y="345" on="0"/>
        <pt x="341" y="311" on="0"/>
        <pt x="307" y="303" on="1"/>
        <pt x="447" y="14" on="1"/>
        <pt x="357" y="-7" on="1"/>
        <pt x="216" y="294" on="1"/>
        <pt x="165" y="294" on="1"/>
        <pt x="121" y="0" on="1"/>
        <pt x="31" y="0" on="1"/>
        <pt x="31" y="0" on="0"/>
        <pt x="64" y="216" on="0"/>
        <pt x="102" y="474" on="0"/>
        <pt x="134" y="690" on="0"/>
        <pt x="134" y="690" on="1"/>
        <pt x="256" y="690" on="1"/>
        <pt x="362" y="690" on="0"/>
        <pt x="476" y="598" on="0"/>
      </contour>
      <contour>
        <pt x="385" y="506" on="1"/>
        <pt x="385" y="550" on="0"/>
        <pt x="327" y="611" on="0"/>
        <pt x="254" y="611" on="1"/>
        <pt x="212" y="611" on="1"/>
        <pt x="176" y="370" on="1"/>
        <pt x="239" y="370" on="1"/>
        <pt x="311" y="370" on="0"/>
        <pt x="385" y="449" on="0"/>
      </contour>
    </TTGlyph>
    <TTGlyph name="R.flat" xMin="31" yMin="0" xMax="476" yMax="690">
      <contour>
        <pt x="385" y="506" on="1"/>
        <pt x="385" y="550" on="0"/>
        <pt x="327" y="611" on="0"/>
        <pt x="254" y="611" on="1"/>
        <pt x="212" y="611" on="1"/>
        <pt x="176" y="370" on="1"/>
        <pt x="239" y="370" on="1"/>
        <pt x="311" y="370" on="0"/>
        <pt x="385" y="449" on="0"/>
      </contour>
      <contour>
        <pt x="476" y="513" on="1"/>
        <pt x="476" y="469" on="0"/>
        <pt x="449" y="397" on="0"/>
        <pt x="403" y="345" on="0"/>
        <pt x="341" y="311" on="0"/>
        <pt x="307" y="303" on="1"/>
        <pt x="454" y="0" on="1"/>
        <pt x="354" y="0" on="1"/>
        <pt x="216" y="294" on="1"/>
        <pt x="165" y="294" on="1"/>
        <pt x="121" y="0" on="1"/>
        <pt x="31" y="0" on="1"/>
        <pt x="31" y="0" on="0"/>
        <pt x="64" y="216" on="0"/>
        <pt x="102" y="474" on="0"/>
        <pt x="134" y="690" on="0"/>
        <pt x="134" y="690" on="1"/>
        <pt x="256" y="690" on="1"/>
        <pt x="362" y="690" on="0"/>
        <pt x="476" y="598" on="0"/>
      </contour>
    </TTGlyph>
    <TTGlyph name="R_p" xMin="35" yMin="-187" xMax="882" yMax="683">
      <contour>
        <pt x="349" y="-7" on="1"/>
        <pt x="212" y="291" on="1"/>
        <pt x="164" y="291" on="1"/>
        <pt x="121" y="0" on="1"/>
        <pt x="35" y="0" on="1"/>
        <pt x="137" y="683" on="1"/>
        <pt x="249" y="683" on="1"/>
        <pt x="354" y="683" on="0"/>
        <pt x="467" y="592" on="0"/>
        <pt x="467" y="508" on="1"/>
        <pt x="467" y="464" on="0"/>
        <pt x="440" y="393" on="0"/>
        <pt x="395" y="342" on="0"/>
        <pt x="334" y="308" on="0"/>
        <pt x="300" y="300" on="1"/>
        <pt x="435" y="14" on="1"/>
      </contour>
      <contour>
        <pt x="379" y="501" on="1"/>
        <pt x="379" y="546" on="0"/>
        <pt x="322" y="607" on="0"/>
        <pt x="250" y="607" on="1"/>
        <pt x="211" y="607" on="1"/>
        <pt x="175" y="365" on="1"/>
        <pt x="235" y="365" on="1"/>
        <pt x="307" y="365" on="0"/>
        <pt x="379" y="444" on="0"/>
      </contour>
      <contour>
        <pt x="578" y="81" on="1"/>
        <pt x="594" y="74" on="0"/>
        <pt x="621" y="67" on="0"/>
        <pt x="640" y="67" on="1"/>
        <pt x="669" y="67" on="0"/>
        <pt x="725" y="102" on="0"/>
        <pt x="769" y="166" on="0"/>
        <pt x="796" y="258" on="0"/>
        <pt x="796" y="315" on="1"/>
        <pt x="796" y="360" on="0"/>
        <pt x="766" y="416" on="0"/>
        <pt x="735" y="416" on="1"/>
        <pt x="706" y="416" on="0"/>
        <pt x="649" y="372" on="0"/>
        <pt x="616" y="337" on="1"/>
      </contour>
      <contour>
        <pt x="453" y="-187" on="1"/>
        <pt x="536" y="363" on="1"/>
        <pt x="536" y="482" on="1"/>
        <pt x="611" y="482" on="1"/>
        <pt x="616" y="413" on="1"/>
        <pt x="644" y="445" on="0"/>
        <pt x="713" y="492" on="0"/>
        <pt x="752" y="492" on="1"/>
        <pt x="806" y="492" on="0"/>
        <pt x="882" y="404" on="0"/>
        <pt x="882" y="320" on="1"/>
        <pt x="882" y="247" on="0"/>
        <pt x="841" y="126" on="0"/>
        <pt x="774" y="41" on="0"/>
        <pt x="685" y="-6" on="0"/>
        <pt x="637" y="-6" on="1"/>
        <pt x="617" y="-6" on="0"/>
        <pt x="581" y="1" on="0"/>
        <pt x="566" y="6" on="1"/>
        <pt x="566" y="6" on="0"/>
        <pt x="558" y="-50" on="0"/>
        <pt x="548" y="-117" on="0"/>
        <pt x="540" y="-173" on="0"/>
        <pt x="540" y="-173" on="1"/>
      </contour>
    </TTGlyph>
    <TTGlyph name="R_p.flat" xMin="35" yMin="-187" xMax="882" yMax="683">
      <contour>
        <pt x="379" y="501" on="1"/>
        <pt x="379" y="546" on="0"/>
        <pt x="322" y="607" on="0"/>
        <pt x="250" y="607" on="1"/>
        <pt x="211" y="607" on="1"/>
        <pt x="175" y="365" on="1"/>
        <pt x="235" y="365" on="1"/>
        <pt x="307" y="365" on="0"/>
        <pt x="379" y="444" on="0"/>
      </contour>
      <contour>
        <pt x="578" y="81" on="1"/>
        <pt x="594" y="74" on="0"/>
        <pt x="621" y="67" on="0"/>
        <pt x="640" y="67" on="1"/>
        <pt x="669" y="67" on="0"/>
        <pt x="725" y="102" on="0"/>
        <pt x="769" y="166" on="0"/>
        <pt x="796" y="258" on="0"/>
        <pt x="796" y="315" on="1"/>
        <pt x="796" y="360" on="0"/>
        <pt x="766" y="416" on="0"/>
        <pt x="735" y="416" on="1"/>
        <pt x="706" y="416" on="0"/>
        <pt x="649" y="372" on="0"/>
        <pt x="616" y="337" on="1"/>
      </contour>
      <contour>
        <pt x="346" y="0" on="1"/>
        <pt x="212" y="291" on="1"/>
        <pt x="164" y="291" on="1"/>
        <pt x="121" y="0" on="1"/>
        <pt x="35" y="0" on="1"/>
        <pt x="137" y="683" on="1"/>
        <pt x="249" y="683" on="1"/>
        <pt x="354" y="683" on="0"/>
        <pt x="467" y="592" on="0"/>
        <pt x="467" y="508" on="1"/>
        <pt x="467" y="464" on="0"/>
        <pt x="440" y="393" on="0"/>
        <pt x="395" y="342" on="0"/>
        <pt x="334" y="308" on="0"/>
        <pt x="300" y="300" on="1"/>
        <pt x="442" y="0" on="1"/>
      </contour>
      <contour>
        <pt x="453" y="-187" on="1"/>
        <pt x="536" y="363" on="1"/>
        <pt x="536" y="482" on="1"/>
        <pt x="611" y="482" on="1"/>
        <pt x="616" y="413" on="1"/>
        <pt x="644" y="445" on="0"/>
        <pt x="713" y="492" on="0"/>
        <pt x="752" y="492" on="1"/>
        <pt x="806" y="492" on="0"/>
        <pt x="882" y="404" on="0"/>
        <pt x="882" y="320" on="1"/>
        <pt x="882" y="247" on="0"/>
        <pt x="841" y="126" on="0"/>
        <pt x="774" y="41" on="0"/>
        <pt x="685" y="-6" on="0"/>
        <pt x="637" y="-6" on="1"/>
        <pt x="617" y="-6" on="0"/>
        <pt x="581" y="1" on="0"/>
        <pt x="566" y="6" on="1"/>
        <pt x="566" y="6" on="0"/>
        <pt x="558" y="-50" on="0"/>
        <pt x="548" y="-117" on="0"/>
        <pt x="540" y="-173" on="0"/>
        <pt x="540" y="-173" on="1"/>
      </contour>
    </TTGlyph>
    <TTGlyph name="Racute" xMin="31" yMin="-7" xMax="476" yMax="892">
      <component glyphName="R" x="0" y="0" flags="0x204"/>
      <component glyphName="acute" x="102" y="203" flags="0x4"/>
    </TTGlyph>
    <TTGlyph name="Racute.flat" xMin="31" yMin="0" xMax="476" yMax="892">
      <component glyphName="R.flat" x="0" y="0" flags="0x204"/>
      <component glyphName="acute" x="102" y="203" flags="0x4"/>
    </TTGlyph>
    <TTGlyph name="Rcaron" xMin="31" yMin="-7" xMax="476" yMax="884">
      <component glyphName="R" x="0" y="0" flags="0x204"/>
      <component glyphName="caron" x="54" y="203" flags="0x4"/>
    </TTGlyph>
    <TTGlyph name="Rcaron.flat" xMin="31" yMin="0" xMax="476" yMax="884">
      <component glyphName="R.flat" x="0" y="0" flags="0x204"/>
      <component glyphName="caron" x="54" y="203" flags="0x4"/>
    </TTGlyph>
    <TTGlyph name="Rcommaaccent" xMin="31" yMin="-230" xMax="476" yMax="690">
      <component glyphName="R" x="0" y="0" flags="0x204"/>
      <component glyphName="commaaccent" x="39" y="8" flags="0x4"/>
    </TTGlyph>
    <TTGlyph name="Rcommaaccent.flat" xMin="31" yMin="-230" xMax="476" yMax="690">
      <component glyphName="R.flat" x="0" y="0" flags="0x4"/>
      <component glyphName="commaaccent" x="39" y="8" flags="0x4"/>
    </TTGlyph>
    <TTGlyph name="S" xMin="11" yMin="-10" xMax="436" yMax="699">
      <contour>
        <pt x="436" y="654" on="1"/>
        <pt x="410" y="569" on="1"/>
        <pt x="380" y="590" on="0"/>
        <pt x="315" y="619" on="0"/>
        <pt x="278" y="619" on="1"/>
        <pt x="229" y="619" on="0"/>
        <pt x="178" y="562" on="0"/>
        <pt x="178" y="525" on="1"/>
        <pt x="178" y="491" on="0"/>
        <pt x="221" y="435" on="0"/>
        <pt x="272" y="393" on="1"/>
        <pt x="338" y="339" on="0"/>
        <pt x="396" y="247" on="0"/>
        <pt x="396" y="190" on="1"/>
        <pt x="396" y="143" on="0"/>
        <pt x="363" y="68" on="0"/>
        <pt x="306" y="17" on="0"/>
        <pt x="230" y="-10" on="0"/>
        <pt x="188" y="-10" on="1"/>
        <pt x="137" y="-10" on="0"/>
        <pt x="42" y="23" on="0"/>
        <pt x="11" y="44" on="1"/>
        <pt x="36" y="130" on="1"/>
        <pt x="68" y="106" on="0"/>
        <pt x="147" y="71" on="0"/>
        <pt x="190" y="71" on="1"/>
        <pt x="239" y="71" on="0"/>
        <pt x="305" y="131" on="0"/>
        <pt x="305" y="182" on="1"/>
        <pt x="305" y="219" on="0"/>
        <pt x="266" y="277" on="0"/>
        <pt x="217" y="317" on="1"/>
        <pt x="153" y="368" on="0"/>
        <pt x="88" y="456" on="0"/>
        <pt x="88" y="516" on="1"/>
        <pt x="88" y="594" on="0"/>
        <pt x="196" y="699" on="0"/>
        <pt x="283" y="699" on="1"/>
        <pt x="329" y="699" on="0"/>
        <pt x="410" y="671" on="0"/>
      </contour>
    </TTGlyph>
    <TTGlyph name="Sacute" xMin="11" yMin="-10" xMax="452" yMax="902">
      <component glyphName="S" x="0" y="0" flags="0x204"/>
      <component glyphName="acute" x="91" y="213" flags="0x4"/>
    </TTGlyph>
    <TTGlyph name="Scaron" xMin="11" yMin="-10" xMax="441" yMax="894">
      <component glyphName="S" x="0" y="0" flags="0x204"/>
      <component glyphName="caron" x="43" y="213" flags="0x4"/>
    </TTGlyph>
    <TTGlyph name="Scedilla" xMin="11" yMin="-193" xMax="436" yMax="699">
      <component glyphName="cedilla" x="-2" y="-3" flags="0x4"/>
      <component glyphName="S" x="0" y="0" flags="0x204"/>
    </TTGlyph>
    <TTGlyph name="Scommaaccent" xMin="11" yMin="-246" xMax="436" yMax="699">
      <component glyphName="S" x="0" y="0" flags="0x204"/>
      <component glyphName="commaaccent" x="-9" y="-8" flags="0x4"/>
    </TTGlyph>
    <TTGlyph name="T" xMin="77" yMin="0" xMax="519" yMax="690">
      <contour>
        <pt x="519" y="608" on="1"/>
        <pt x="341" y="608" on="1"/>
        <pt x="250" y="0" on="1"/>
        <pt x="160" y="0" on="1"/>
        <pt x="250" y="608" on="1"/>
        <pt x="77" y="608" on="1"/>
        <pt x="90" y="690" on="1"/>
        <pt x="519" y="690" on="1"/>
      </contour>
    </TTGlyph>
    <TTGlyph name="T.flat" xMin="77" yMin="0" xMax="525" yMax="690">
      <contour>
        <pt x="513" y="608" on="1"/>
        <pt x="341" y="608" on="1"/>
        <pt x="250" y="0" on="1"/>
        <pt x="160" y="0" on="1"/>
        <pt x="250" y="608" on="1"/>
        <pt x="77" y="608" on="1"/>
        <pt x="90" y="690" on="1"/>
        <pt x="525" y="690" on="1"/>
      </contour>
    </TTGlyph>
    <TTGlyph name="Tcaron" xMin="77" yMin="0" xMax="519" yMax="884">
      <component glyphName="T" x="0" y="0" flags="0x204"/>
      <component glyphName="caron" x="68" y="203" flags="0x4"/>
    </TTGlyph>
    <TTGlyph name="Tcaron.flat" xMin="77" yMin="0" xMax="525" yMax="884">
      <component glyphName="T.flat" x="0" y="0" flags="0x204"/>
      <component glyphName="caron" x="68" y="203" flags="0x4"/>
    </TTGlyph>
    <TTGlyph name="Tcommaaccent" xMin="77" yMin="-238" xMax="519" yMax="690">
      <component glyphName="T" x="0" y="0" flags="0x204"/>
      <component glyphName="commaaccent" x="18" y="0" flags="0x4"/>
    </TTGlyph>
    <TTGlyph name="Tcommaaccent.flat" xMin="77" yMin="-238" xMax="525" yMax="690">
      <component glyphName="T.flat" x="0" y="0" flags="0x204"/>
      <component glyphName="commaaccent" x="18" y="0" flags="0x4"/>
    </TTGlyph>
    <TTGlyph name="Thorn" xMin="32" yMin="0" xMax="457" yMax="690">
      <contour>
        <pt x="457" y="375" on="1"/>
        <pt x="457" y="273" on="0"/>
        <pt x="315" y="149" on="0"/>
        <pt x="196" y="149" on="1"/>
        <pt x="144" y="149" on="1"/>
        <pt x="122" y="0" on="1"/>
        <pt x="32" y="0" on="1"/>
        <pt x="135" y="690" on="1"/>
        <pt x="225" y="690" on="1"/>
        <pt x="206" y="560" on="1"/>
        <pt x="240" y="560" on="1"/>
        <pt x="349" y="560" on="0"/>
        <pt x="457" y="459" on="0"/>
      </contour>
      <contour>
        <pt x="367" y="370" on="1"/>
        <pt x="367" y="424" on="0"/>
        <pt x="298" y="481" on="0"/>
        <pt x="235" y="481" on="1"/>
        <pt x="194" y="481" on="1"/>
        <pt x="157" y="228" on="1"/>
        <pt x="204" y="228" on="1"/>
        <pt x="286" y="228" on="0"/>
        <pt x="367" y="310" on="0"/>
      </contour>
    </TTGlyph>
    <TTGlyph name="U" xMin="56" yMin="-13" xMax="570" yMax="690">
      <contour>
        <pt x="570" y="690" on="1"/>
        <pt x="500" y="221" on="1"/>
        <pt x="483" y="106" on="0"/>
        <pt x="356" y="-13" on="0"/>
        <pt x="257" y="-13" on="1"/>
        <pt x="162" y="-13" on="0"/>
        <pt x="56" y="90" on="0"/>
        <pt x="56" y="182" on="1"/>
        <pt x="56" y="195" on="0"/>
        <pt x="59" y="228" on="0"/>
        <pt x="61" y="244" on="1"/>
        <pt x="127" y="690" on="1"/>
        <pt x="218" y="690" on="1"/>
        <pt x="152" y="242" on="1"/>
        <pt x="150" y="230" on="0"/>
        <pt x="148" y="204" on="0"/>
        <pt x="148" y="193" on="1"/>
        <pt x="148" y="136" on="0"/>
        <pt x="207" y="69" on="0"/>
        <pt x="264" y="69" on="1"/>
        <pt x="326" y="69" on="0"/>
        <pt x="400" y="154" on="0"/>
        <pt x="411" y="229" on="1"/>
        <pt x="480" y="690" on="1"/>
      </contour>
    </TTGlyph>
    <TTGlyph name="U.alt" xMin="54" yMin="-8" xMax="567" yMax="690">
      <contour>
        <pt x="567" y="690" on="1"/>
        <pt x="464" y="0" on="1"/>
        <pt x="392" y="0" on="1"/>
        <pt x="392" y="67" on="1"/>
        <pt x="348" y="35" on="0"/>
        <pt x="260" y="-8" on="0"/>
        <pt x="206" y="-8" on="1"/>
        <pt x="135" y="-8" on="0"/>
        <pt x="54" y="60" on="0"/>
        <pt x="54" y="133" on="1"/>
        <pt x="54" y="144" on="0"/>
        <pt x="56" y="169" on="0"/>
        <pt x="58" y="182" on="1"/>
        <pt x="133" y="690" on="1"/>
        <pt x="224" y="690" on="1"/>
        <pt x="149" y="188" on="1"/>
        <pt x="148" y="180" on="0"/>
        <pt x="146" y="162" on="0"/>
        <pt x="146" y="154" on="1"/>
        <pt x="146" y="113" on="0"/>
        <pt x="188" y="73" on="0"/>
        <pt x="229" y="73" on="1"/>
        <pt x="271" y="73" on="0"/>
        <pt x="350" y="114" on="0"/>
        <pt x="396" y="150" on="1"/>
        <pt x="477" y="690" on="1"/>
      </contour>
    </TTGlyph>
    <TTGlyph name="Uacute" xMin="56" yMin="-13" xMax="570" yMax="882">
      <component glyphName="U" x="0" y="0" flags="0x204"/>
      <component glyphName="acute" x="154" y="193" flags="0x4"/>
    </TTGlyph>
    <TTGlyph name="Uacute.alt" xMin="54" yMin="-8" xMax="567" yMax="882">
      <component glyphName="U.alt" x="0" y="0" flags="0x204"/>
      <component glyphName="acute" x="154" y="193" flags="0x4"/>
    </TTGlyph>
    <TTGlyph name="Ubreve" xMin="56" yMin="-13" xMax="570" yMax="859">
      <component glyphName="U" x="0" y="0" flags="0x204"/>
      <component glyphName="breve" x="101" y="190" flags="0x4"/>
    </TTGlyph>
    <TTGlyph name="Ubreve.alt" xMin="54" yMin="-8" xMax="567" yMax="859">
      <component glyphName="U.alt" x="0" y="0" flags="0x204"/>
      <component glyphName="breve" x="103" y="190" flags="0x4"/>
    </TTGlyph>
    <TTGlyph name="Ucircumflex" xMin="56" yMin="-13" xMax="570" yMax="875">
      <component glyphName="U" x="0" y="0" flags="0x204"/>
      <component glyphName="circumflex" x="105" y="193" flags="0x4"/>
    </TTGlyph>
    <TTGlyph name="Ucircumflex.alt" xMin="54" yMin="-8" xMax="567" yMax="875">
      <component glyphName="U.alt" x="0" y="0" flags="0x204"/>
      <component glyphName="circumflex" x="105" y="193" flags="0x4"/>
    </TTGlyph>
    <TTGlyph name="Udieresis" xMin="56" yMin="-13" xMax="570" yMax="839">
      <component glyphName="U" x="0" y="0" flags="0x204"/>
      <component glyphName="dieresis" x="106" y="193" flags="0x4"/>
    </TTGlyph>
    <TTGlyph name="Udieresis.alt" xMin="54" yMin="-8" xMax="567" yMax="839">
      <component glyphName="U.alt" x="0" y="0" flags="0x204"/>
      <component glyphName="dieresis" x="107" y="193" flags="0x4"/>
    </TTGlyph>
    <TTGlyph name="Ugrave" xMin="56" yMin="-13" xMax="570" yMax="882">
      <component glyphName="U" x="0" y="0" flags="0x204"/>
      <component glyphName="grave" x="53" y="193" flags="0x4"/>
    </TTGlyph>
    <TTGlyph name="Ugrave.alt" xMin="54" yMin="-8" xMax="567" yMax="882">
      <component glyphName="U.alt" x="0" y="0" flags="0x204"/>
      <component glyphName="grave" x="53" y="193" flags="0x4"/>
    </TTGlyph>
    <TTGlyph name="Uhungarumlaut" xMin="56" yMin="-13" xMax="573" yMax="882">
      <component glyphName="U" x="0" y="0" flags="0x204"/>
      <component glyphName="hungarumlaut" x="151" y="193" flags="0x4"/>
    </TTGlyph>
    <TTGlyph name="Uhungarumlaut.alt" xMin="54" yMin="-8" xMax="574" yMax="882">
      <component glyphName="U.alt" x="0" y="0" flags="0x204"/>
      <component glyphName="hungarumlaut" x="152" y="193" flags="0x4"/>
    </TTGlyph>
    <TTGlyph name="Umacron" xMin="56" yMin="-13" xMax="570" yMax="826">
      <component glyphName="U" x="0" y="0" flags="0x204"/>
      <component glyphName="macron" x="106" y="193" flags="0x4"/>
    </TTGlyph>
    <TTGlyph name="Umacron.alt" xMin="54" yMin="-8" xMax="567" yMax="826">
      <component glyphName="U.alt" x="0" y="0" flags="0x204"/>
      <component glyphName="macron" x="108" y="193" flags="0x4"/>
    </TTGlyph>
    <TTGlyph name="Uogonek" xMin="56" yMin="-181" xMax="570" yMax="690">
      <component glyphName="U" x="0" y="0" flags="0x204"/>
      <component glyphName="ogonek" x="59" y="0" flags="0x4"/>
    </TTGlyph>
    <TTGlyph name="Uogonek.alt" xMin="54" yMin="-181" xMax="567" yMax="690">
      <component glyphName="U.alt" x="0" y="0" flags="0x4"/>
      <component glyphName="ogonek" x="223" y="0" flags="0x4"/>
    </TTGlyph>
    <TTGlyph name="Uring" xMin="56" yMin="-13" xMax="570" yMax="924">
      <component glyphName="U" x="0" y="0" flags="0x204"/>
      <component glyphName="ring" x="106" y="188" flags="0x4"/>
    </TTGlyph>
    <TTGlyph name="Uring.alt" xMin="54" yMin="-8" xMax="567" yMax="924">
      <component glyphName="U.alt" x="0" y="0" flags="0x204"/>
      <component glyphName="ring" x="107" y="188" flags="0x4"/>
    </TTGlyph>
    <TTGlyph name="V" xMin="88" yMin="-3" xMax="592" yMax="697">
      <contour>
        <pt x="592" y="690" on="1"/>
        <pt x="278" y="-3" on="1"/>
        <pt x="194" y="-3" on="1"/>
        <pt x="88" y="677" on="1"/>
        <pt x="180" y="697" on="1"/>
        <pt x="255" y="128" on="1"/>
        <pt x="496" y="690" on="1"/>
      </contour>
    </TTGlyph>
    <TTGlyph name="V.flat" xMin="86" yMin="-3" xMax="591" yMax="690">
      <contour>
        <pt x="591" y="690" on="1"/>
        <pt x="277" y="-3" on="1"/>
        <pt x="194" y="-3" on="1"/>
        <pt x="86" y="690" on="1"/>
        <pt x="180" y="690" on="1"/>
        <pt x="255" y="128" on="1"/>
        <pt x="496" y="690" on="1"/>
      </contour>
    </TTGlyph>
    <TTGlyph name="W" xMin="97" yMin="0" xMax="895" yMax="697">
      <contour>
        <pt x="895" y="690" on="1"/>
        <pt x="621" y="0" on="1"/>
        <pt x="539" y="0" on="1"/>
        <pt x="474" y="556" on="1"/>
        <pt x="245" y="0" on="1"/>
        <pt x="162" y="0" on="1"/>
        <pt x="97" y="677" on="1"/>
        <pt x="188" y="697" on="1"/>
        <pt x="229" y="154" on="1"/>
        <pt x="448" y="690" on="1"/>
        <pt x="541" y="690" on="1"/>
        <pt x="602" y="153" on="1"/>
        <pt x="802" y="690" on="1"/>
      </contour>
    </TTGlyph>
    <TTGlyph name="W.alt" xMin="88" yMin="-3" xMax="897" yMax="697">
      <contour>
        <pt x="510" y="-3" on="1"/>
        <pt x="449" y="370" on="1"/>
        <pt x="275" y="-3" on="1"/>
        <pt x="194" y="-3" on="1"/>
        <pt x="88" y="677" on="1"/>
        <pt x="179" y="697" on="1"/>
        <pt x="256" y="129" on="1"/>
        <pt x="428" y="503" on="1"/>
        <pt x="401" y="677" on="1"/>
        <pt x="490" y="697" on="1"/>
        <pt x="571" y="129" on="1"/>
        <pt x="802" y="690" on="1"/>
        <pt x="897" y="690" on="1"/>
        <pt x="591" y="-3" on="1"/>
      </contour>
    </TTGlyph>
    <TTGlyph name="W.alt_flat" xMin="86" yMin="-3" xMax="897" yMax="690">
      <contour>
        <pt x="510" y="-3" on="1"/>
        <pt x="449" y="370" on="1"/>
        <pt x="275" y="-3" on="1"/>
        <pt x="194" y="-3" on="1"/>
        <pt x="86" y="690" on="1"/>
        <pt x="179" y="690" on="1"/>
        <pt x="256" y="129" on="1"/>
        <pt x="428" y="503" on="1"/>
        <pt x="399" y="690" on="1"/>
        <pt x="491" y="690" on="1"/>
        <pt x="571" y="129" on="1"/>
        <pt x="802" y="690" on="1"/>
        <pt x="897" y="690" on="1"/>
        <pt x="591" y="-3" on="1"/>
      </contour>
    </TTGlyph>
    <TTGlyph name="W.flat" xMin="96" yMin="0" xMax="895" yMax="690">
      <contour>
        <pt x="895" y="690" on="1"/>
        <pt x="621" y="0" on="1"/>
        <pt x="539" y="0" on="1"/>
        <pt x="474" y="556" on="1"/>
        <pt x="245" y="0" on="1"/>
        <pt x="162" y="0" on="1"/>
        <pt x="96" y="690" on="1"/>
        <pt x="188" y="690" on="1"/>
        <pt x="229" y="154" on="1"/>
        <pt x="448" y="690" on="1"/>
        <pt x="541" y="690" on="1"/>
        <pt x="602" y="153" on="1"/>
        <pt x="802" y="690" on="1"/>
      </contour>
    </TTGlyph>
    <TTGlyph name="Wacute" xMin="97" yMin="0" xMax="895" yMax="892">
      <component glyphName="W" x="0" y="0" flags="0x204"/>
      <component glyphName="acute" x="301" y="203" flags="0x4"/>
    </TTGlyph>
    <TTGlyph name="Wacute.alt" xMin="88" yMin="-3" xMax="897" yMax="892">
      <component glyphName="W.alt" x="0" y="0" flags="0x204"/>
      <component glyphName="acute" x="287" y="203" flags="0x4"/>
    </TTGlyph>
    <TTGlyph name="Wacute.alt_flat" xMin="86" yMin="-3" xMax="897" yMax="892">
      <component glyphName="W.alt_flat" x="0" y="0" flags="0x204"/>
      <component glyphName="acute" x="287" y="203" flags="0x4"/>
    </TTGlyph>
    <TTGlyph name="Wacute.flat" xMin="96" yMin="0" xMax="895" yMax="892">
      <component glyphName="W.flat" x="0" y="0" flags="0x204"/>
      <component glyphName="acute" x="301" y="203" flags="0x4"/>
    </TTGlyph>
    <TTGlyph name="Wcircumflex" xMin="97" yMin="0" xMax="895" yMax="885">
      <component glyphName="W" x="0" y="0" flags="0x204"/>
      <component glyphName="circumflex" x="252" y="203" flags="0x4"/>
    </TTGlyph>
    <TTGlyph name="Wcircumflex.alt" xMin="88" yMin="-3" xMax="897" yMax="885">
      <component glyphName="W.alt" x="0" y="0" flags="0x204"/>
      <component glyphName="circumflex" x="238" y="203" flags="0x4"/>
    </TTGlyph>
    <TTGlyph name="Wcircumflex.alt_flat" xMin="86" yMin="-3" xMax="897" yMax="885">
      <component glyphName="W.alt_flat" x="0" y="0" flags="0x204"/>
      <component glyphName="circumflex" x="238" y="203" flags="0x4"/>
    </TTGlyph>
    <TTGlyph name="Wcircumflex.flat" xMin="96" yMin="0" xMax="895" yMax="885">
      <component glyphName="W.flat" x="0" y="0" flags="0x204"/>
      <component glyphName="circumflex" x="252" y="203" flags="0x4"/>
    </TTGlyph>
    <TTGlyph name="Wdieresis" xMin="97" yMin="0" xMax="895" yMax="849">
      <component glyphName="W" x="0" y="0" flags="0x204"/>
      <component glyphName="dieresis" x="253" y="203" flags="0x4"/>
    </TTGlyph>
    <TTGlyph name="Wdieresis.alt" xMin="88" yMin="-3" xMax="897" yMax="849">
      <component glyphName="W.alt" x="0" y="0" flags="0x204"/>
      <component glyphName="dieresis" x="240" y="203" flags="0x4"/>
    </TTGlyph>
    <TTGlyph name="Wdieresis.alt_flat" xMin="86" yMin="-3" xMax="897" yMax="849">
      <component glyphName="W.alt_flat" x="0" y="0" flags="0x204"/>
      <component glyphName="dieresis" x="240" y="203" flags="0x4"/>
    </TTGlyph>
    <TTGlyph name="Wdieresis.flat" xMin="96" yMin="0" xMax="895" yMax="849">
      <component glyphName="W.flat" x="0" y="0" flags="0x204"/>
      <component glyphName="dieresis" x="253" y="203" flags="0x4"/>
    </TTGlyph>
    <TTGlyph name="Wgrave" xMin="97" yMin="0" xMax="895" yMax="892">
      <component glyphName="W" x="0" y="0" flags="0x204"/>
      <component glyphName="grave" x="200" y="203" flags="0x4"/>
    </TTGlyph>
    <TTGlyph name="Wgrave.alt" xMin="88" yMin="-3" xMax="897" yMax="892">
      <component glyphName="W.alt" x="0" y="0" flags="0x204"/>
      <component glyphName="grave" x="186" y="203" flags="0x4"/>
    </TTGlyph>
    <TTGlyph name="Wgrave.alt_flat" xMin="86" yMin="-3" xMax="897" yMax="892">
      <component glyphName="W.alt_flat" x="0" y="0" flags="0x204"/>
      <component glyphName="grave" x="186" y="203" flags="0x4"/>
    </TTGlyph>
    <TTGlyph name="Wgrave.flat" xMin="96" yMin="0" xMax="895" yMax="892">
      <component glyphName="W.flat" x="0" y="0" flags="0x204"/>
      <component glyphName="grave" x="200" y="203" flags="0x4"/>
    </TTGlyph>
    <TTGlyph name="X" xMin="-20" yMin="-7" xMax="556" yMax="697">
      <contour>
        <pt x="378" y="-7" on="1"/>
        <pt x="268" y="282" on="1"/>
        <pt x="81" y="0" on="1"/>
        <pt x="-20" y="0" on="1"/>
        <pt x="232" y="364" on="1"/>
        <pt x="103" y="678" on="1"/>
        <pt x="193" y="697" on="1"/>
        <pt x="292" y="439" on="1"/>
        <pt x="456" y="690" on="1"/>
        <pt x="556" y="690" on="1"/>
        <pt x="328" y="356" on="1"/>
        <pt x="468" y="13" on="1"/>
      </contour>
    </TTGlyph>
    <TTGlyph name="X.flat" xMin="-20" yMin="0" xMax="558" yMax="690">
      <contour>
        <pt x="374" y="0" on="1"/>
        <pt x="268" y="281" on="1"/>
        <pt x="81" y="0" on="1"/>
        <pt x="-20" y="0" on="1"/>
        <pt x="232" y="362" on="1"/>
        <pt x="98" y="690" on="1"/>
        <pt x="195" y="690" on="1"/>
        <pt x="291" y="437" on="1"/>
        <pt x="458" y="690" on="1"/>
        <pt x="558" y="690" on="1"/>
        <pt x="328" y="355" on="1"/>
        <pt x="472" y="0" on="1"/>
      </contour>
    </TTGlyph>
    <TTGlyph name="Y" xMin="80" yMin="0" xMax="579" yMax="697">
      <contour>
        <pt x="579" y="690" on="1"/>
        <pt x="309" y="270" on="1"/>
        <pt x="269" y="0" on="1"/>
        <pt x="179" y="0" on="1"/>
        <pt x="220" y="272" on="1"/>
        <pt x="80" y="678" on="1"/>
        <pt x="170" y="697" on="1"/>
        <pt x="278" y="361" on="1"/>
        <pt x="477" y="690" on="1"/>
      </contour>
    </TTGlyph>
    <TTGlyph name="Y.flat" xMin="76" yMin="0" xMax="579" yMax="690">
      <contour>
        <pt x="579" y="690" on="1"/>
        <pt x="309" y="270" on="1"/>
        <pt x="269" y="0" on="1"/>
        <pt x="179" y="0" on="1"/>
        <pt x="220" y="272" on="1"/>
        <pt x="76" y="690" on="1"/>
        <pt x="173" y="690" on="1"/>
        <pt x="278" y="361" on="1"/>
        <pt x="477" y="690" on="1"/>
      </contour>
    </TTGlyph>
    <TTGlyph name="Yacute" xMin="80" yMin="0" xMax="579" yMax="882">
      <component glyphName="Y" x="0" y="0" flags="0x204"/>
      <component glyphName="acute" x="131" y="193" flags="0x4"/>
    </TTGlyph>
    <TTGlyph name="Yacute.flat" xMin="76" yMin="0" xMax="579" yMax="882">
      <component glyphName="Y.flat" x="0" y="0" flags="0x204"/>
      <component glyphName="acute" x="131" y="193" flags="0x4"/>
    </TTGlyph>
    <TTGlyph name="Ycircumflex" xMin="80" yMin="0" xMax="579" yMax="875">
      <component glyphName="Y" x="0" y="0" flags="0x204"/>
      <component glyphName="circumflex" x="82" y="193" flags="0x4"/>
    </TTGlyph>
    <TTGlyph name="Ycircumflex.flat" xMin="76" yMin="0" xMax="579" yMax="875">
      <component glyphName="Y.flat" x="0" y="0" flags="0x204"/>
      <component glyphName="circumflex" x="82" y="193" flags="0x4"/>
    </TTGlyph>
    <TTGlyph name="Ydieresis" xMin="80" yMin="0" xMax="579" yMax="839">
      <component glyphName="Y" x="0" y="0" flags="0x204"/>
      <component glyphName="dieresis" x="84" y="193" flags="0x4"/>
    </TTGlyph>
    <TTGlyph name="Ydieresis.flat" xMin="76" yMin="0" xMax="579" yMax="839">
      <component glyphName="Y.flat" x="0" y="0" flags="0x204"/>
      <component glyphName="dieresis" x="84" y="193" flags="0x4"/>
    </TTGlyph>
    <TTGlyph name="Ygrave" xMin="80" yMin="0" xMax="579" yMax="882">
      <component glyphName="Y" x="0" y="0" flags="0x204"/>
      <component glyphName="grave" x="30" y="193" flags="0x4"/>
    </TTGlyph>
    <TTGlyph name="Ygrave.flat" xMin="76" yMin="0" xMax="579" yMax="882">
      <component glyphName="Y.flat" x="0" y="0" flags="0x204"/>
      <component glyphName="grave" x="30" y="193" flags="0x4"/>
    </TTGlyph>
    <TTGlyph name="Z" xMin="2" yMin="0" xMax="514" yMax="690">
      <contour>
        <pt x="514" y="690" on="1"/>
        <pt x="503" y="622" on="1"/>
        <pt x="119" y="78" on="1"/>
        <pt x="422" y="78" on="1"/>
        <pt x="422" y="0" on="1"/>
        <pt x="2" y="0" on="1"/>
        <pt x="13" y="68" on="1"/>
        <pt x="397" y="612" on="1"/>
        <pt x="117" y="612" on="1"/>
        <pt x="117" y="690" on="1"/>
      </contour>
    </TTGlyph>
    <TTGlyph name="Z.flat" xMin="2" yMin="0" xMax="514" yMax="690">
      <contour>
        <pt x="514" y="690" on="1"/>
        <pt x="503" y="622" on="1"/>
        <pt x="119" y="78" on="1"/>
        <pt x="427" y="78" on="1"/>
        <pt x="416" y="0" on="1"/>
        <pt x="2" y="0" on="1"/>
        <pt x="13" y="68" on="1"/>
        <pt x="397" y="612" on="1"/>
        <pt x="111" y="612" on="1"/>
        <pt x="122" y="690" on="1"/>
      </contour>
    </TTGlyph>
    <TTGlyph name="Zacute" xMin="2" yMin="0" xMax="514" yMax="892">
      <component glyphName="Z" x="0" y="0" flags="0x204"/>
      <component glyphName="acute" x="115" y="203" flags="0x4"/>
    </TTGlyph>
    <TTGlyph name="Zacute.flat" xMin="2" yMin="0" xMax="514" yMax="892">
      <component glyphName="Z.flat" x="0" y="0" flags="0x204"/>
      <component glyphName="acute" x="115" y="203" flags="0x4"/>
    </TTGlyph>
    <TTGlyph name="Zcaron" xMin="2" yMin="0" xMax="514" yMax="884">
      <component glyphName="Z" x="0" y="0" flags="0x204"/>
      <component glyphName="caron" x="68" y="203" flags="0x4"/>
    </TTGlyph>
    <TTGlyph name="Zcaron.flat" xMin="2" yMin="0" xMax="514" yMax="884">
      <component glyphName="Z.flat" x="0" y="0" flags="0x204"/>
      <component glyphName="caron" x="68" y="203" flags="0x4"/>
    </TTGlyph>
    <TTGlyph name="Zdotaccent" xMin="2" yMin="0" xMax="514" yMax="849">
      <component glyphName="Z" x="0" y="0" flags="0x204"/>
      <component glyphName="dotaccent" x="68" y="203" flags="0x4"/>
    </TTGlyph>
    <TTGlyph name="Zdotaccent.flat" xMin="2" yMin="0" xMax="514" yMax="849">
      <component glyphName="Z.flat" x="0" y="0" flags="0x204"/>
      <component glyphName="dotaccent" x="68" y="203" flags="0x4"/>
    </TTGlyph>
    <TTGlyph name="a" xMin="28" yMin="-10" xMax="425" yMax="488">
      <contour>
        <pt x="296" y="153" on="1"/>
        <pt x="332" y="403" on="1"/>
        <pt x="319" y="410" on="0"/>
        <pt x="292" y="416" on="0"/>
        <pt x="274" y="416" on="1"/>
        <pt x="244" y="416" on="0"/>
        <pt x="186" y="378" on="0"/>
        <pt x="142" y="312" on="0"/>
        <pt x="114" y="218" on="0"/>
        <pt x="114" y="163" on="1"/>
        <pt x="114" y="118" on="0"/>
        <pt x="143" y="66" on="0"/>
        <pt x="173" y="66" on="1"/>
        <pt x="201" y="66" on="0"/>
        <pt x="263" y="116" on="0"/>
      </contour>
      <contour>
        <pt x="295" y="74" on="1"/>
        <pt x="263" y="37" on="0"/>
        <pt x="193" y="-10" on="0"/>
        <pt x="156" y="-10" on="1"/>
        <pt x="102" y="-10" on="0"/>
        <pt x="28" y="74" on="0"/>
        <pt x="28" y="157" on="1"/>
        <pt x="28" y="231" on="0"/>
        <pt x="70" y="353" on="0"/>
        <pt x="140" y="440" on="0"/>
        <pt x="231" y="488" on="0"/>
        <pt x="280" y="488" on="1"/>
        <pt x="316" y="488" on="0"/>
        <pt x="384" y="472" on="0"/>
        <pt x="425" y="456" on="1"/>
        <pt x="375" y="121" on="1"/>
        <pt x="375" y="0" on="1"/>
        <pt x="300" y="0" on="1"/>
      </contour>
    </TTGlyph>
    <TTGlyph name="a.alt" xMin="11" yMin="-10" xMax="385" yMax="492">
      <contour>
        <pt x="145" y="64" on="1"/>
        <pt x="173" y="64" on="0"/>
        <pt x="232" y="99" on="0"/>
        <pt x="266" y="129" on="1"/>
        <pt x="284" y="244" on="1"/>
        <pt x="178" y="230" on="0"/>
        <pt x="96" y="162" on="0"/>
        <pt x="96" y="119" on="1"/>
        <pt x="96" y="93" on="0"/>
        <pt x="122" y="64" on="0"/>
      </contour>
      <contour>
        <pt x="299" y="340" on="1"/>
        <pt x="305" y="379" on="0"/>
        <pt x="273" y="416" on="0"/>
        <pt x="237" y="416" on="1"/>
        <pt x="204" y="416" on="0"/>
        <pt x="130" y="392" on="0"/>
        <pt x="91" y="373" on="1"/>
        <pt x="91" y="451" on="1"/>
        <pt x="124" y="467" on="0"/>
        <pt x="204" y="492" on="0"/>
        <pt x="250" y="492" on="1"/>
        <pt x="331" y="492" on="0"/>
        <pt x="393" y="410" on="0"/>
        <pt x="382" y="336" on="1"/>
        <pt x="345" y="92" on="1"/>
        <pt x="345" y="0" on="1"/>
        <pt x="270" y="0" on="1"/>
        <pt x="265" y="61" on="1"/>
        <pt x="234" y="32" on="0"/>
        <pt x="164" y="-10" on="0"/>
        <pt x="123" y="-10" on="1"/>
        <pt x="72" y="-10" on="0"/>
        <pt x="11" y="54" on="0"/>
        <pt x="11" y="108" on="1"/>
        <pt x="11" y="190" on="0"/>
        <pt x="148" y="295" on="0"/>
        <pt x="294" y="308" on="1"/>
      </contour>
    </TTGlyph>
    <TTGlyph name="aacute" xMin="28" yMin="-10" xMax="452" yMax="689">
      <component glyphName="a" x="0" y="0" flags="0x204"/>
      <component glyphName="acute" x="91" y="0" flags="0x4"/>
    </TTGlyph>
    <TTGlyph name="aacute.alt" xMin="11" yMin="-10" xMax="414" yMax="689">
      <component glyphName="a.alt" x="0" y="0" flags="0x204"/>
      <component glyphName="acute" x="53" y="0" flags="0x4"/>
    </TTGlyph>
    <TTGlyph name="abreve" xMin="28" yMin="-10" xMax="432" yMax="669">
      <component glyphName="a" x="0" y="0" flags="0x204"/>
      <component glyphName="breve" x="40" y="0" flags="0x4"/>
    </TTGlyph>
    <TTGlyph name="abreve.alt" xMin="11" yMin="-10" xMax="393" yMax="669">
      <component glyphName="a.alt" x="0" y="0" flags="0x204"/>
      <component glyphName="breve" x="1" y="0" flags="0x4"/>
    </TTGlyph>
    <TTGlyph name="acircumflex" xMin="28" yMin="-10" xMax="425" yMax="682">
      <component glyphName="a" x="0" y="0" flags="0x204"/>
      <component glyphName="circumflex" x="42" y="0" flags="0x4"/>
    </TTGlyph>
    <TTGlyph name="acircumflex.alt" xMin="11" yMin="-10" xMax="385" yMax="682">
      <component glyphName="a.alt" x="0" y="0" flags="0x204"/>
      <component glyphName="circumflex" x="4" y="0" flags="0x4"/>
    </TTGlyph>
    <TTGlyph name="acute" xMin="163" yMin="543" xMax="361" yMax="689">
      <contour>
        <pt x="361" y="665" on="1"/>
        <pt x="227" y="543" on="1"/>
        <pt x="163" y="543" on="1"/>
        <pt x="259" y="689" on="1"/>
      </contour>
    </TTGlyph>
    <TTGlyph name="adieresis" xMin="28" yMin="-10" xMax="435" yMax="646">
      <component glyphName="a" x="0" y="0" flags="0x204"/>
      <component glyphName="dieresis" x="44" y="0" flags="0x4"/>
    </TTGlyph>
    <TTGlyph name="adieresis.alt" xMin="11" yMin="-10" xMax="396" yMax="646">
      <component glyphName="a.alt" x="0" y="0" flags="0x204"/>
      <component glyphName="dieresis" x="5" y="0" flags="0x4"/>
    </TTGlyph>
    <TTGlyph name="ae" xMin="11" yMin="-10" xMax="639" yMax="492">
      <contour>
        <pt x="639" y="318" on="1"/>
        <pt x="639" y="293" on="0"/>
        <pt x="633" y="245" on="0"/>
        <pt x="629" y="224" on="1"/>
        <pt x="364" y="224" on="1"/>
        <pt x="363" y="217" on="0"/>
        <pt x="363" y="199" on="0"/>
        <pt x="363" y="190" on="1"/>
        <pt x="363" y="131" on="0"/>
        <pt x="412" y="64" on="0"/>
        <pt x="458" y="64" on="1"/>
        <pt x="495" y="64" on="0"/>
        <pt x="561" y="95" on="0"/>
        <pt x="595" y="121" on="1"/>
        <pt x="595" y="39" on="1"/>
        <pt x="561" y="17" on="0"/>
        <pt x="491" y="-10" on="0"/>
        <pt x="449" y="-10" on="1"/>
        <pt x="399" y="-10" on="0"/>
        <pt x="324" y="32" on="0"/>
        <pt x="303" y="72" on="1"/>
        <pt x="263" y="37" on="0"/>
        <pt x="177" y="-10" on="0"/>
        <pt x="131" y="-10" on="1"/>
        <pt x="80" y="-10" on="0"/>
        <pt x="11" y="53" on="0"/>
        <pt x="11" y="110" on="1"/>
        <pt x="11" y="189" on="0"/>
        <pt x="142" y="291" on="0"/>
        <pt x="290" y="309" on="1"/>
        <pt x="293" y="334" on="1"/>
        <pt x="300" y="377" on="0"/>
        <pt x="266" y="416" on="0"/>
        <pt x="232" y="416" on="1"/>
        <pt x="201" y="416" on="0"/>
        <pt x="129" y="392" on="0"/>
        <pt x="91" y="373" on="1"/>
        <pt x="91" y="451" on="1"/>
        <pt x="124" y="467" on="0"/>
        <pt x="202" y="492" on="0"/>
        <pt x="245" y="492" on="1"/>
        <pt x="291" y="492" on="0"/>
        <pt x="349" y="459" on="0"/>
        <pt x="361" y="427" on="1"/>
        <pt x="388" y="458" on="0"/>
        <pt x="456" y="492" on="0"/>
        <pt x="495" y="492" on="1"/>
        <pt x="568" y="492" on="0"/>
        <pt x="639" y="392" on="0"/>
      </contour>
      <contour>
        <pt x="555" y="291" on="1"/>
        <pt x="559" y="351" on="0"/>
        <pt x="530" y="425" on="0"/>
        <pt x="489" y="425" on="1"/>
        <pt x="454" y="425" on="0"/>
        <pt x="392" y="351" on="0"/>
        <pt x="376" y="291" on="1"/>
      </contour>
      <contour>
        <pt x="282" y="135" on="1"/>
        <pt x="280" y="148" on="0"/>
        <pt x="278" y="175" on="0"/>
        <pt x="278" y="190" on="1"/>
        <pt x="278" y="203" on="0"/>
        <pt x="280" y="230" on="0"/>
        <pt x="281" y="244" on="1"/>
        <pt x="226" y="236" on="0"/>
        <pt x="154" y="209" on="0"/>
        <pt x="112" y="177" on="0"/>
        <pt x="96" y="139" on="0"/>
        <pt x="96" y="120" on="1"/>
        <pt x="96" y="92" on="0"/>
        <pt x="126" y="64" on="0"/>
        <pt x="152" y="64" on="1"/>
        <pt x="177" y="64" on="0"/>
        <pt x="239" y="97" on="0"/>
      </contour>
    </TTGlyph>
    <TTGlyph name="aeacute" xMin="11" yMin="-10" xMax="639" yMax="689">
      <component glyphName="ae" x="0" y="0" flags="0x204"/>
      <component glyphName="acute" x="192" y="0" flags="0x4"/>
    </TTGlyph>
    <TTGlyph name="agrave" xMin="28" yMin="-10" xMax="425" yMax="689">
      <component glyphName="a" x="0" y="0" flags="0x204"/>
      <component glyphName="grave" x="-10" y="0" flags="0x4"/>
    </TTGlyph>
    <TTGlyph name="agrave.alt" xMin="11" yMin="-10" xMax="385" yMax="689">
      <component glyphName="a.alt" x="0" y="0" flags="0x204"/>
      <component glyphName="grave" x="-48" y="0" flags="0x4"/>
    </TTGlyph>
    <TTGlyph name="amacron" xMin="28" yMin="-10" xMax="434" yMax="633">
      <component glyphName="a" x="0" y="0" flags="0x204"/>
      <component glyphName="macron" x="45" y="0" flags="0x4"/>
    </TTGlyph>
    <TTGlyph name="amacron.alt" xMin="11" yMin="-10" xMax="395" yMax="633">
      <component glyphName="a.alt" x="0" y="0" flags="0x204"/>
      <component glyphName="macron" x="6" y="0" flags="0x4"/>
    </TTGlyph>
    <TTGlyph name="ampersand" xMin="18" yMin="-12" xMax="547" yMax="703">
      <contour>
        <pt x="204" y="65" on="1"/>
        <pt x="241" y="65" on="0"/>
        <pt x="317" y="115" on="0"/>
        <pt x="352" y="164" on="1"/>
        <pt x="239" y="333" on="1"/>
        <pt x="177" y="306" on="0"/>
        <pt x="107" y="219" on="0"/>
        <pt x="107" y="165" on="1"/>
        <pt x="107" y="124" on="0"/>
        <pt x="158" y="65" on="0"/>
      </contour>
      <contour>
        <pt x="463" y="-7" on="1"/>
        <pt x="395" y="98" on="1"/>
        <pt x="352" y="45" on="0"/>
        <pt x="252" y="-12" on="0"/>
        <pt x="195" y="-12" on="1"/>
        <pt x="113" y="-12" on="0"/>
        <pt x="18" y="87" on="0"/>
        <pt x="18" y="159" on="1"/>
        <pt x="18" y="241" on="0"/>
        <pt x="121" y="357" on="0"/>
        <pt x="199" y="394" on="1"/>
        <pt x="180" y="427" on="0"/>
        <pt x="155" y="492" on="0"/>
        <pt x="155" y="527" on="1"/>
        <pt x="155" y="600" on="0"/>
        <pt x="256" y="703" on="0"/>
        <pt x="337" y="703" on="1"/>
        <pt x="383" y="703" on="0"/>
        <pt x="453" y="678" on="0"/>
        <pt x="482" y="660" on="1"/>
        <pt x="455" y="581" on="1"/>
        <pt x="428" y="600" on="0"/>
        <pt x="369" y="626" on="0"/>
        <pt x="337" y="626" on="1"/>
        <pt x="294" y="626" on="0"/>
        <pt x="243" y="573" on="0"/>
        <pt x="243" y="532" on="1"/>
        <pt x="243" y="499" on="0"/>
        <pt x="269" y="439" on="0"/>
        <pt x="292" y="405" on="1"/>
        <pt x="399" y="242" on="1"/>
        <pt x="415" y="276" on="0"/>
        <pt x="446" y="355" on="0"/>
        <pt x="460" y="402" on="1"/>
        <pt x="536" y="383" on="1"/>
        <pt x="517" y="323" on="0"/>
        <pt x="471" y="215" on="0"/>
        <pt x="446" y="171" on="1"/>
        <pt x="547" y="16" on="1"/>
      </contour>
    </TTGlyph>
    <TTGlyph name="ampersand.flat" xMin="18" yMin="-12" xMax="557" yMax="703">
      <contour>
        <pt x="204" y="65" on="1"/>
        <pt x="241" y="65" on="0"/>
        <pt x="317" y="115" on="0"/>
        <pt x="352" y="164" on="1"/>
        <pt x="239" y="333" on="1"/>
        <pt x="177" y="306" on="0"/>
        <pt x="107" y="219" on="0"/>
        <pt x="107" y="165" on="1"/>
        <pt x="107" y="124" on="0"/>
        <pt x="158" y="65" on="0"/>
      </contour>
      <contour>
        <pt x="459" y="0" on="1"/>
        <pt x="396" y="98" on="1"/>
        <pt x="353" y="46" on="0"/>
        <pt x="252" y="-12" on="0"/>
        <pt x="195" y="-12" on="1"/>
        <pt x="113" y="-12" on="0"/>
        <pt x="18" y="87" on="0"/>
        <pt x="18" y="159" on="1"/>
        <pt x="18" y="241" on="0"/>
        <pt x="121" y="357" on="0"/>
        <pt x="199" y="394" on="1"/>
        <pt x="180" y="427" on="0"/>
        <pt x="155" y="492" on="0"/>
        <pt x="155" y="527" on="1"/>
        <pt x="155" y="600" on="0"/>
        <pt x="256" y="703" on="0"/>
        <pt x="337" y="703" on="1"/>
        <pt x="383" y="703" on="0"/>
        <pt x="453" y="678" on="0"/>
        <pt x="482" y="660" on="1"/>
        <pt x="455" y="581" on="1"/>
        <pt x="428" y="600" on="0"/>
        <pt x="369" y="626" on="0"/>
        <pt x="337" y="626" on="1"/>
        <pt x="294" y="626" on="0"/>
        <pt x="243" y="573" on="0"/>
        <pt x="243" y="532" on="1"/>
        <pt x="243" y="499" on="0"/>
        <pt x="269" y="439" on="0"/>
        <pt x="292" y="405" on="1"/>
        <pt x="399" y="242" on="1"/>
        <pt x="415" y="276" on="0"/>
        <pt x="446" y="355" on="0"/>
        <pt x="460" y="402" on="1"/>
        <pt x="536" y="383" on="1"/>
        <pt x="517" y="323" on="0"/>
        <pt x="471" y="215" on="0"/>
        <pt x="445" y="171" on="1"/>
        <pt x="557" y="0" on="1"/>
      </contour>
    </TTGlyph>
    <TTGlyph name="aogonek" xMin="28" yMin="-181" xMax="425" yMax="488">
      <component glyphName="ogonek" x="128" y="0" flags="0x4"/>
      <component glyphName="a" x="0" y="0" flags="0x204"/>
    </TTGlyph>
    <TTGlyph name="aogonek.alt" xMin="11" yMin="-181" xMax="385" yMax="492">
      <component glyphName="ogonek" x="97" y="0" flags="0x4"/>
      <component glyphName="a.alt" x="0" y="0" flags="0x204"/>
    </TTGlyph>
    <TTGlyph name="aring" xMin="28" yMin="-10" xMax="425" yMax="736">
      <component glyphName="a" x="0" y="0" flags="0x204"/>
      <component glyphName="ring" x="45" y="0" flags="0x4"/>
    </TTGlyph>
    <TTGlyph name="aring.alt" xMin="11" yMin="-10" xMax="385" yMax="736">
      <component glyphName="a.alt" x="0" y="0" flags="0x204"/>
      <component glyphName="ring" x="7" y="0" flags="0x4"/>
    </TTGlyph>
    <TTGlyph name="aringacute" xMin="28" yMin="-10" xMax="483" yMax="930">
      <component glyphName="aring" x="0" y="0" flags="0x204"/>
      <component glyphName="acute" x="122" y="241" flags="0x4"/>
    </TTGlyph>
    <TTGlyph name="aringacute.alt" xMin="11" yMin="-10" xMax="439" yMax="926">
      <component glyphName="acute" x="78" y="237" flags="0x4"/>
      <component glyphName="aring.alt" x="0" y="0" flags="0x4"/>
    </TTGlyph>
    <TTGlyph name="asciicircum" xMin="100" yMin="512" xMax="384" yMax="693">
      <contour>
        <pt x="384" y="512" on="1"/>
        <pt x="317" y="512" on="1"/>
        <pt x="260" y="617" on="1"/>
        <pt x="170" y="512" on="1"/>
        <pt x="100" y="512" on="1"/>
        <pt x="232" y="693" on="1"/>
        <pt x="306" y="693" on="1"/>
      </contour>
    </TTGlyph>
    <TTGlyph name="asciitilde" xMin="47" yMin="244" xMax="384" yMax="385">
      <contour>
        <pt x="384" y="375" on="1"/>
        <pt x="368" y="308" on="0"/>
        <pt x="315" y="248" on="0"/>
        <pt x="282" y="248" on="1"/>
        <pt x="261" y="248" on="0"/>
        <pt x="226" y="265" on="0"/>
        <pt x="207" y="277" on="1"/>
        <pt x="184" y="290" on="0"/>
        <pt x="157" y="304" on="0"/>
        <pt x="147" y="304" on="1"/>
        <pt x="135" y="304" on="0"/>
        <pt x="117" y="279" on="0"/>
        <pt x="107" y="244" on="1"/>
        <pt x="47" y="255" on="1"/>
        <pt x="63" y="322" on="0"/>
        <pt x="116" y="382" on="0"/>
        <pt x="149" y="382" on="1"/>
        <pt x="170" y="382" on="0"/>
        <pt x="205" y="364" on="0"/>
        <pt x="224" y="353" on="1"/>
        <pt x="246" y="340" on="0"/>
        <pt x="274" y="326" on="0"/>
        <pt x="284" y="326" on="1"/>
        <pt x="296" y="326" on="0"/>
        <pt x="314" y="351" on="0"/>
        <pt x="324" y="385" on="1"/>
      </contour>
    </TTGlyph>
    <TTGlyph name="asterisk" xMin="71" yMin="416" xMax="365" yMax="695">
      <contour>
        <pt x="365" y="579" on="1"/>
        <pt x="265" y="531" on="1"/>
        <pt x="318" y="432" on="1"/>
        <pt x="294" y="416" on="1"/>
        <pt x="218" y="497" on="1"/>
        <pt x="142" y="416" on="1"/>
        <pt x="118" y="432" on="1"/>
        <pt x="171" y="531" on="1"/>
        <pt x="71" y="579" on="1"/>
        <pt x="80" y="606" on="1"/>
        <pt x="190" y="586" on="1"/>
        <pt x="203" y="695" on="1"/>
        <pt x="233" y="695" on="1"/>
        <pt x="246" y="586" on="1"/>
        <pt x="356" y="606" on="1"/>
      </contour>
    </TTGlyph>
    <TTGlyph name="at" xMin="37" yMin="-138" xMax="716" yMax="627">
      <contour>
        <pt x="333" y="-138" on="1"/>
        <pt x="198" y="-138" on="0"/>
        <pt x="37" y="29" on="0"/>
        <pt x="37" y="175" on="1"/>
        <pt x="37" y="267" on="0"/>
        <pt x="100" y="432" on="0"/>
        <pt x="206" y="555" on="0"/>
        <pt x="349" y="627" on="0"/>
        <pt x="428" y="627" on="1"/>
        <pt x="491" y="627" on="0"/>
        <pt x="597" y="586" on="0"/>
        <pt x="673" y="509" on="0"/>
        <pt x="716" y="396" on="0"/>
        <pt x="716" y="324" on="1"/>
        <pt x="716" y="264" on="0"/>
        <pt x="691" y="162" on="0"/>
        <pt x="645" y="87" on="0"/>
        <pt x="581" y="45" on="0"/>
        <pt x="542" y="45" on="1"/>
        <pt x="496" y="45" on="0"/>
        <pt x="439" y="92" on="0"/>
        <pt x="435" y="134" on="1"/>
        <pt x="400" y="91" on="0"/>
        <pt x="340" y="45" on="0"/>
        <pt x="303" y="45" on="1"/>
        <pt x="262" y="45" on="0"/>
        <pt x="202" y="110" on="0"/>
        <pt x="202" y="173" on="1"/>
        <pt x="202" y="230" on="0"/>
        <pt x="239" y="332" on="0"/>
        <pt x="302" y="407" on="0"/>
        <pt x="386" y="450" on="0"/>
        <pt x="432" y="450" on="1"/>
        <pt x="466" y="450" on="0"/>
        <pt x="519" y="435" on="0"/>
        <pt x="544" y="424" on="1"/>
        <pt x="506" y="185" on="1"/>
        <pt x="505" y="178" on="0"/>
        <pt x="502" y="156" on="0"/>
        <pt x="502" y="147" on="1"/>
        <pt x="502" y="122" on="0"/>
        <pt x="528" y="93" on="0"/>
        <pt x="553" y="93" on="1"/>
        <pt x="578" y="93" on="0"/>
        <pt x="622" y="128" on="0"/>
        <pt x="655" y="189" on="0"/>
        <pt x="674" y="273" on="0"/>
        <pt x="674" y="323" on="1"/>
        <pt x="674" y="389" on="0"/>
        <pt x="637" y="490" on="0"/>
        <pt x="571" y="557" on="0"/>
        <pt x="479" y="591" on="0"/>
        <pt x="426" y="591" on="1"/>
        <pt x="357" y="591" on="0"/>
        <pt x="231" y="526" on="0"/>
        <pt x="136" y="414" on="0"/>
        <pt x="80" y="262" on="0"/>
        <pt x="80" y="176" on="1"/>
        <pt x="80" y="107" on="0"/>
        <pt x="118" y="2" on="0"/>
        <pt x="186" y="-67" on="0"/>
        <pt x="280" y="-102" on="0"/>
        <pt x="334" y="-102" on="1"/>
        <pt x="392" y="-102" on="0"/>
        <pt x="490" y="-75" on="0"/>
        <pt x="532" y="-53" on="1"/>
        <pt x="538" y="-90" on="1"/>
        <pt x="496" y="-111" on="0"/>
        <pt x="395" y="-138" on="0"/>
      </contour>
      <contour>
        <pt x="323" y="111" on="1"/>
        <pt x="346" y="111" on="0"/>
        <pt x="402" y="161" on="0"/>
        <pt x="434" y="202" on="1"/>
        <pt x="463" y="380" on="1"/>
        <pt x="453" y="383" on="0"/>
        <pt x="436" y="386" on="0"/>
        <pt x="424" y="386" on="1"/>
        <pt x="394" y="386" on="0"/>
        <pt x="340" y="351" on="0"/>
        <pt x="300" y="295" on="0"/>
        <pt x="276" y="221" on="0"/>
        <pt x="276" y="183" on="1"/>
        <pt x="276" y="146" on="0"/>
        <pt x="301" y="111" on="0"/>
      </contour>
    </TTGlyph>
    <TTGlyph name="atilde" xMin="28" yMin="-10" xMax="456" yMax="668">
      <component glyphName="a" x="0" y="0" flags="0x204"/>
      <component glyphName="tilde" x="45" y="0" flags="0x4"/>
    </TTGlyph>
    <TTGlyph name="atilde.alt" xMin="11" yMin="-10" xMax="418" yMax="668">
      <component glyphName="a.alt" x="0" y="0" flags="0x204"/>
      <component glyphName="tilde" x="7" y="0" flags="0x4"/>
    </TTGlyph>
    <TTGlyph name="b" xMin="28" yMin="-6" xMax="428" yMax="722">
      <contour>
        <pt x="28" y="27" on="1"/>
        <pt x="129" y="708" on="1"/>
        <pt x="216" y="722" on="1"/>
        <pt x="171" y="427" on="1"/>
        <pt x="196" y="453" on="0"/>
        <pt x="259" y="492" on="0"/>
        <pt x="296" y="492" on="1"/>
        <pt x="351" y="492" on="0"/>
        <pt x="428" y="404" on="0"/>
        <pt x="428" y="320" on="1"/>
        <pt x="428" y="247" on="0"/>
        <pt x="387" y="126" on="0"/>
        <pt x="318" y="41" on="0"/>
        <pt x="228" y="-6" on="0"/>
        <pt x="179" y="-6" on="1"/>
        <pt x="142" y="-6" on="0"/>
        <pt x="68" y="11" on="0"/>
      </contour>
      <contour>
        <pt x="120" y="81" on="1"/>
        <pt x="136" y="74" on="0"/>
        <pt x="166" y="67" on="0"/>
        <pt x="185" y="67" on="1"/>
        <pt x="214" y="67" on="0"/>
        <pt x="271" y="102" on="0"/>
        <pt x="315" y="166" on="0"/>
        <pt x="342" y="258" on="0"/>
        <pt x="342" y="315" on="1"/>
        <pt x="342" y="360" on="0"/>
        <pt x="312" y="416" on="0"/>
        <pt x="280" y="416" on="1"/>
        <pt x="250" y="416" on="0"/>
        <pt x="192" y="372" on="0"/>
        <pt x="158" y="337" on="1"/>
      </contour>
    </TTGlyph>
    <TTGlyph name="backslash" xMin="46" yMin="-126" xMax="415" yMax="698">
      <contour>
        <pt x="415" y="-111" on="1"/>
        <pt x="344" y="-126" on="1"/>
        <pt x="46" y="683" on="1"/>
        <pt x="117" y="698" on="1"/>
      </contour>
    </TTGlyph>
    <TTGlyph name="baht" xMin="-58" yMin="-125" xMax="521" yMax="751">
      <contour>
        <pt x="382" y="517" on="1"/>
        <pt x="382" y="557" on="0"/>
        <pt x="329" y="608" on="0"/>
        <pt x="274" y="608" on="1"/>
        <pt x="211" y="608" on="1"/>
        <pt x="179" y="394" on="1"/>
        <pt x="238" y="394" on="1"/>
        <pt x="299" y="394" on="0"/>
        <pt x="382" y="460" on="0"/>
      </contour>
      <contour>
        <pt x="359" y="208" on="1"/>
        <pt x="359" y="261" on="0"/>
        <pt x="289" y="320" on="0"/>
        <pt x="223" y="320" on="1"/>
        <pt x="168" y="320" on="1"/>
        <pt x="131" y="75" on="1"/>
        <pt x="196" y="75" on="1"/>
        <pt x="271" y="75" on="0"/>
        <pt x="359" y="146" on="0"/>
      </contour>
      <contour>
        <pt x="185" y="0" on="1"/>
        <pt x="87" y="0" on="1"/>
        <pt x="13" y="-125" on="1"/>
        <pt x="-58" y="-109" on="1"/>
        <pt x="47" y="72" on="1"/>
        <pt x="137" y="683" on="1"/>
        <pt x="280" y="683" on="1"/>
        <pt x="313" y="683" on="0"/>
        <pt x="368" y="671" on="0"/>
        <pt x="390" y="659" on="1"/>
        <pt x="449" y="751" on="1"/>
        <pt x="521" y="734" on="1"/>
        <pt x="443" y="613" on="1"/>
        <pt x="455" y="595" on="0"/>
        <pt x="468" y="551" on="0"/>
        <pt x="468" y="526" on="1"/>
        <pt x="468" y="464" on="0"/>
        <pt x="398" y="376" on="0"/>
        <pt x="343" y="358" on="1"/>
        <pt x="391" y="339" on="0"/>
        <pt x="445" y="261" on="0"/>
        <pt x="445" y="209" on="1"/>
        <pt x="445" y="115" on="0"/>
        <pt x="304" y="0" on="0"/>
      </contour>
    </TTGlyph>
    <TTGlyph name="bar" xMin="20" yMin="-194" xMax="230" yMax="727">
      <contour>
        <pt x="94" y="-185" on="1"/>
        <pt x="20" y="-194" on="1"/>
        <pt x="156" y="716" on="1"/>
        <pt x="230" y="727" on="1"/>
      </contour>
    </TTGlyph>
    <TTGlyph name="bar.tab" xMin="32" yMin="-115" xMax="244" yMax="806">
      <contour>
        <pt x="108" y="-106" on="1"/>
        <pt x="32" y="-115" on="1"/>
        <pt x="168" y="795" on="1"/>
        <pt x="244" y="806" on="1"/>
      </contour>
    </TTGlyph>
    <TTGlyph name="braceleft" xMin="47" yMin="-94" xMax="456" yMax="700">
      <contour>
        <pt x="456" y="700" on="1"/>
        <pt x="447" y="634" on="1"/>
        <pt x="360" y="634" on="1"/>
        <pt x="319" y="634" on="0"/>
        <pt x="283" y="587" on="0"/>
        <pt x="283" y="545" on="1"/>
        <pt x="283" y="467" on="1"/>
        <pt x="283" y="395" on="0"/>
        <pt x="219" y="314" on="0"/>
        <pt x="160" y="303" on="1"/>
        <pt x="160" y="301" on="1"/>
        <pt x="200" y="291" on="0"/>
        <pt x="243" y="248" on="0"/>
        <pt x="243" y="205" on="1"/>
        <pt x="243" y="184" on="0"/>
        <pt x="231" y="133" on="0"/>
        <pt x="217" y="82" on="0"/>
        <pt x="205" y="35" on="0"/>
        <pt x="205" y="20" on="1"/>
        <pt x="205" y="-3" on="0"/>
        <pt x="234" y="-28" on="0"/>
        <pt x="264" y="-28" on="1"/>
        <pt x="343" y="-28" on="1"/>
        <pt x="343" y="-94" on="1"/>
        <pt x="244" y="-94" on="1"/>
        <pt x="185" y="-94" on="0"/>
        <pt x="122" y="-46" on="0"/>
        <pt x="122" y="5" on="1"/>
        <pt x="122" y="27" on="0"/>
        <pt x="134" y="78" on="0"/>
        <pt x="149" y="129" on="0"/>
        <pt x="161" y="178" on="0"/>
        <pt x="161" y="198" on="1"/>
        <pt x="161" y="236" on="0"/>
        <pt x="116" y="271" on="0"/>
        <pt x="75" y="271" on="1"/>
        <pt x="47" y="271" on="1"/>
        <pt x="47" y="336" on="1"/>
        <pt x="89" y="336" on="1"/>
        <pt x="144" y="336" on="0"/>
        <pt x="201" y="401" on="0"/>
        <pt x="201" y="467" on="1"/>
        <pt x="201" y="539" on="1"/>
        <pt x="201" y="618" on="0"/>
        <pt x="279" y="700" on="0"/>
        <pt x="364" y="700" on="1"/>
      </contour>
    </TTGlyph>
    <TTGlyph name="braceleft.flat" xMin="41" yMin="-94" xMax="456" yMax="700">
      <contour>
        <pt x="456" y="700" on="1"/>
        <pt x="447" y="634" on="1"/>
        <pt x="360" y="634" on="1"/>
        <pt x="319" y="634" on="0"/>
        <pt x="283" y="587" on="0"/>
        <pt x="283" y="545" on="1"/>
        <pt x="283" y="467" on="1"/>
        <pt x="283" y="395" on="0"/>
        <pt x="219" y="314" on="0"/>
        <pt x="160" y="303" on="1"/>
        <pt x="160" y="301" on="1"/>
        <pt x="200" y="291" on="0"/>
        <pt x="243" y="248" on="0"/>
        <pt x="243" y="205" on="1"/>
        <pt x="243" y="184" on="0"/>
        <pt x="231" y="133" on="0"/>
        <pt x="217" y="82" on="0"/>
        <pt x="205" y="35" on="0"/>
        <pt x="205" y="20" on="1"/>
        <pt x="205" y="-3" on="0"/>
        <pt x="234" y="-28" on="0"/>
        <pt x="264" y="-28" on="1"/>
        <pt x="348" y="-28" on="1"/>
        <pt x="338" y="-94" on="1"/>
        <pt x="244" y="-94" on="1"/>
        <pt x="185" y="-94" on="0"/>
        <pt x="122" y="-46" on="0"/>
        <pt x="122" y="5" on="1"/>
        <pt x="122" y="27" on="0"/>
        <pt x="134" y="78" on="0"/>
        <pt x="149" y="129" on="0"/>
        <pt x="161" y="178" on="0"/>
        <pt x="161" y="198" on="1"/>
        <pt x="161" y="236" on="0"/>
        <pt x="116" y="271" on="0"/>
        <pt x="75" y="271" on="1"/>
        <pt x="41" y="271" on="1"/>
        <pt x="51" y="336" on="1"/>
        <pt x="89" y="336" on="1"/>
        <pt x="145" y="336" on="0"/>
        <pt x="201" y="401" on="0"/>
        <pt x="201" y="467" on="1"/>
        <pt x="201" y="539" on="1"/>
        <pt x="201" y="618" on="0"/>
        <pt x="279" y="700" on="0"/>
        <pt x="364" y="700" on="1"/>
      </contour>
    </TTGlyph>
    <TTGlyph name="braceright" xMin="-11" yMin="-94" xMax="399" yMax="700">
      <contour>
        <pt x="-11" y="-94" on="1"/>
        <pt x="-1" y="-28" on="1"/>
        <pt x="86" y="-28" on="1"/>
        <pt x="127" y="-28" on="0"/>
        <pt x="163" y="19" on="0"/>
        <pt x="163" y="61" on="1"/>
        <pt x="163" y="140" on="1"/>
        <pt x="163" y="212" on="0"/>
        <pt x="227" y="292" on="0"/>
        <pt x="286" y="304" on="1"/>
        <pt x="286" y="306" on="1"/>
        <pt x="246" y="315" on="0"/>
        <pt x="203" y="358" on="0"/>
        <pt x="203" y="401" on="1"/>
        <pt x="203" y="422" on="0"/>
        <pt x="215" y="473" on="0"/>
        <pt x="229" y="525" on="0"/>
        <pt x="241" y="571" on="0"/>
        <pt x="241" y="586" on="1"/>
        <pt x="241" y="609" on="0"/>
        <pt x="212" y="634" on="0"/>
        <pt x="182" y="634" on="1"/>
        <pt x="103" y="634" on="1"/>
        <pt x="103" y="700" on="1"/>
        <pt x="202" y="700" on="1"/>
        <pt x="261" y="700" on="0"/>
        <pt x="324" y="652" on="0"/>
        <pt x="324" y="602" on="1"/>
        <pt x="324" y="580" on="0"/>
        <pt x="312" y="529" on="0"/>
        <pt x="297" y="478" on="0"/>
        <pt x="285" y="429" on="0"/>
        <pt x="285" y="408" on="1"/>
        <pt x="285" y="370" on="0"/>
        <pt x="330" y="335" on="0"/>
        <pt x="371" y="335" on="1"/>
        <pt x="399" y="335" on="1"/>
        <pt x="399" y="270" on="1"/>
        <pt x="357" y="270" on="1"/>
        <pt x="301" y="270" on="0"/>
        <pt x="245" y="205" on="0"/>
        <pt x="245" y="139" on="1"/>
        <pt x="245" y="68" on="1"/>
        <pt x="245" y="-12" on="0"/>
        <pt x="167" y="-94" on="0"/>
        <pt x="82" y="-94" on="1"/>
      </contour>
    </TTGlyph>
    <TTGlyph name="braceright.flat" xMin="-11" yMin="-94" xMax="404" yMax="700">
      <contour>
        <pt x="-11" y="-94" on="1"/>
        <pt x="-1" y="-28" on="1"/>
        <pt x="86" y="-28" on="1"/>
        <pt x="127" y="-28" on="0"/>
        <pt x="163" y="19" on="0"/>
        <pt x="163" y="61" on="1"/>
        <pt x="163" y="140" on="1"/>
        <pt x="163" y="212" on="0"/>
        <pt x="227" y="292" on="0"/>
        <pt x="286" y="304" on="1"/>
        <pt x="286" y="306" on="1"/>
        <pt x="246" y="315" on="0"/>
        <pt x="203" y="358" on="0"/>
        <pt x="203" y="401" on="1"/>
        <pt x="203" y="422" on="0"/>
        <pt x="215" y="473" on="0"/>
        <pt x="229" y="525" on="0"/>
        <pt x="241" y="571" on="0"/>
        <pt x="241" y="586" on="1"/>
        <pt x="241" y="609" on="0"/>
        <pt x="212" y="634" on="0"/>
        <pt x="182" y="634" on="1"/>
        <pt x="98" y="634" on="1"/>
        <pt x="108" y="700" on="1"/>
        <pt x="202" y="700" on="1"/>
        <pt x="261" y="700" on="0"/>
        <pt x="324" y="652" on="0"/>
        <pt x="324" y="602" on="1"/>
        <pt x="324" y="580" on="0"/>
        <pt x="312" y="529" on="0"/>
        <pt x="297" y="478" on="0"/>
        <pt x="285" y="429" on="0"/>
        <pt x="285" y="408" on="1"/>
        <pt x="285" y="370" on="0"/>
        <pt x="330" y="335" on="0"/>
        <pt x="371" y="335" on="1"/>
        <pt x="404" y="335" on="1"/>
        <pt x="394" y="270" on="1"/>
        <pt x="357" y="270" on="1"/>
        <pt x="301" y="270" on="0"/>
        <pt x="245" y="205" on="0"/>
        <pt x="245" y="139" on="1"/>
        <pt x="245" y="68" on="1"/>
        <pt x="245" y="-12" on="0"/>
        <pt x="167" y="-94" on="0"/>
        <pt x="82" y="-94" on="1"/>
      </contour>
    </TTGlyph>
    <TTGlyph name="bracketleft" xMin="35" yMin="-94" xMax="399" yMax="700">
      <contour>
        <pt x="399" y="700" on="1"/>
        <pt x="389" y="633" on="1"/>
        <pt x="226" y="633" on="1"/>
        <pt x="126" y="-27" on="1"/>
        <pt x="285" y="-27" on="1"/>
        <pt x="285" y="-94" on="1"/>
        <pt x="35" y="-94" on="1"/>
        <pt x="154" y="700" on="1"/>
      </contour>
    </TTGlyph>
    <TTGlyph name="bracketleft.flat" xMin="35" yMin="-94" xMax="399" yMax="700">
      <contour>
        <pt x="399" y="700" on="1"/>
        <pt x="389" y="633" on="1"/>
        <pt x="226" y="633" on="1"/>
        <pt x="126" y="-27" on="1"/>
        <pt x="289" y="-27" on="1"/>
        <pt x="279" y="-94" on="1"/>
        <pt x="35" y="-94" on="1"/>
        <pt x="154" y="700" on="1"/>
      </contour>
    </TTGlyph>
    <TTGlyph name="bracketright" xMin="-10" yMin="-94" xMax="354" yMax="700">
      <contour>
        <pt x="354" y="700" on="1"/>
        <pt x="235" y="-94" on="1"/>
        <pt x="-10" y="-94" on="1"/>
        <pt x="0" y="-27" on="1"/>
        <pt x="164" y="-27" on="1"/>
        <pt x="263" y="634" on="1"/>
        <pt x="104" y="634" on="1"/>
        <pt x="104" y="700" on="1"/>
      </contour>
    </TTGlyph>
    <TTGlyph name="bracketright.flat" xMin="-10" yMin="-94" xMax="354" yMax="700">
      <contour>
        <pt x="-10" y="-94" on="1"/>
        <pt x="0" y="-27" on="1"/>
        <pt x="164" y="-27" on="1"/>
        <pt x="263" y="634" on="1"/>
        <pt x="100" y="634" on="1"/>
        <pt x="109" y="700" on="1"/>
        <pt x="354" y="700" on="1"/>
        <pt x="235" y="-94" on="1"/>
      </contour>
    </TTGlyph>
    <TTGlyph name="breve" xMin="144" yMin="542" xMax="392" yMax="669">
      <contour>
        <pt x="392" y="658" on="1"/>
        <pt x="379" y="600" on="0"/>
        <pt x="307" y="542" on="0"/>
        <pt x="256" y="542" on="1"/>
        <pt x="202" y="542" on="0"/>
        <pt x="144" y="602" on="0"/>
        <pt x="145" y="657" on="1"/>
        <pt x="206" y="669" on="1"/>
        <pt x="207" y="638" on="0"/>
        <pt x="236" y="609" on="0"/>
        <pt x="261" y="609" on="1"/>
        <pt x="286" y="609" on="0"/>
        <pt x="325" y="638" on="0"/>
        <pt x="335" y="669" on="1"/>
      </contour>
    </TTGlyph>
    <TTGlyph name="bullet" xMin="90" yMin="204" xMax="342" yMax="486">
      <contour>
        <pt x="342" y="345" on="1"/>
        <pt x="323" y="222" on="1"/>
        <pt x="216" y="204" on="1"/>
        <pt x="110" y="222" on="1"/>
        <pt x="90" y="345" on="1"/>
        <pt x="110" y="469" on="1"/>
        <pt x="216" y="486" on="1"/>
        <pt x="323" y="469" on="1"/>
      </contour>
    </TTGlyph>
    <TTGlyph name="c" xMin="29" yMin="-9" xMax="384" yMax="492">
      <contour>
        <pt x="384" y="455" on="1"/>
        <pt x="360" y="376" on="1"/>
        <pt x="338" y="395" on="0"/>
        <pt x="292" y="417" on="0"/>
        <pt x="264" y="417" on="1"/>
        <pt x="233" y="417" on="0"/>
        <pt x="179" y="380" on="0"/>
        <pt x="139" y="320" on="0"/>
        <pt x="116" y="242" on="0"/>
        <pt x="116" y="201" on="1"/>
        <pt x="116" y="130" on="0"/>
        <pt x="172" y="66" on="0"/>
        <pt x="215" y="66" on="1"/>
        <pt x="245" y="66" on="0"/>
        <pt x="299" y="92" on="0"/>
        <pt x="324" y="111" on="1"/>
        <pt x="324" y="29" on="1"/>
        <pt x="300" y="13" on="0"/>
        <pt x="239" y="-9" on="0"/>
        <pt x="205" y="-9" on="1"/>
        <pt x="127" y="-9" on="0"/>
        <pt x="31" y="95" on="0"/>
        <pt x="30" y="193" on="1"/>
        <pt x="29" y="252" on="0"/>
        <pt x="65" y="361" on="0"/>
        <pt x="129" y="443" on="0"/>
        <pt x="217" y="492" on="0"/>
        <pt x="268" y="492" on="1"/>
        <pt x="304" y="492" on="0"/>
        <pt x="361" y="471" on="0"/>
      </contour>
    </TTGlyph>
    <TTGlyph name="cacute" xMin="29" yMin="-9" xMax="430" yMax="689">
      <component glyphName="c" x="0" y="0" flags="0x204"/>
      <component glyphName="acute" x="69" y="0" flags="0x4"/>
    </TTGlyph>
    <TTGlyph name="caron" xMin="143" yMin="543" xMax="398" yMax="681">
      <contour>
        <pt x="143" y="681" on="1"/>
        <pt x="198" y="681" on="1"/>
        <pt x="256" y="610" on="1"/>
        <pt x="338" y="681" on="1"/>
        <pt x="398" y="681" on="1"/>
        <pt x="288" y="543" on="1"/>
        <pt x="210" y="543" on="1"/>
      </contour>
    </TTGlyph>
    <TTGlyph name="caron.alt" xMin="200" yMin="537" xMax="324" yMax="721">
      <contour>
        <pt x="313" y="721" on="1"/>
        <pt x="318" y="709" on="0"/>
        <pt x="324" y="684" on="0"/>
        <pt x="324" y="671" on="1"/>
        <pt x="324" y="634" on="0"/>
        <pt x="280" y="567" on="0"/>
        <pt x="242" y="537" on="1"/>
        <pt x="200" y="546" on="1"/>
        <pt x="225" y="576" on="0"/>
        <pt x="247" y="624" on="0"/>
        <pt x="247" y="648" on="1"/>
        <pt x="247" y="662" on="0"/>
        <pt x="239" y="692" on="0"/>
        <pt x="233" y="709" on="1"/>
      </contour>
    </TTGlyph>
    <TTGlyph name="ccaron" xMin="29" yMin="-9" xMax="420" yMax="681">
      <component glyphName="c" x="0" y="0" flags="0x204"/>
      <component glyphName="caron" x="22" y="0" flags="0x4"/>
    </TTGlyph>
    <TTGlyph name="ccedilla" xMin="29" yMin="-190" xMax="384" yMax="492">
      <component glyphName="cedilla" x="4" y="0" flags="0x4"/>
      <component glyphName="c" x="0" y="0" flags="0x204"/>
    </TTGlyph>
    <TTGlyph name="cdotaccent" xMin="29" yMin="-9" xMax="384" yMax="646">
      <component glyphName="c" x="0" y="0" flags="0x204"/>
      <component glyphName="dotaccent" x="21" y="0" flags="0x4"/>
    </TTGlyph>
    <TTGlyph name="cedilla" xMin="42" yMin="-190" xMax="228" yMax="-57">
      <contour>
        <pt x="228" y="-82" on="1"/>
        <pt x="100" y="-190" on="1"/>
        <pt x="42" y="-190" on="1"/>
        <pt x="131" y="-57" on="1"/>
      </contour>
    </TTGlyph>
    <TTGlyph name="cent" xMin="49" yMin="-11" xMax="421" yMax="692">
      <contour>
        <pt x="132" y="302" on="1"/>
        <pt x="132" y="259" on="0"/>
        <pt x="156" y="203" on="0"/>
        <pt x="175" y="188" on="1"/>
        <pt x="277" y="514" on="1"/>
        <pt x="276" y="514" on="1"/>
        <pt x="243" y="514" on="0"/>
        <pt x="190" y="478" on="0"/>
        <pt x="152" y="419" on="0"/>
        <pt x="132" y="343" on="0"/>
      </contour>
      <contour>
        <pt x="231" y="95" on="1"/>
        <pt x="226" y="95" on="0"/>
        <pt x="215" y="95" on="0"/>
        <pt x="210" y="96" on="1"/>
        <pt x="177" y="-11" on="1"/>
        <pt x="116" y="3" on="1"/>
        <pt x="150" y="113" on="1"/>
        <pt x="105" y="135" on="0"/>
        <pt x="49" y="228" on="0"/>
        <pt x="49" y="297" on="1"/>
        <pt x="49" y="355" on="0"/>
        <pt x="82" y="460" on="0"/>
        <pt x="143" y="540" on="0"/>
        <pt x="230" y="587" on="0"/>
        <pt x="283" y="587" on="1"/>
        <pt x="287" y="587" on="0"/>
        <pt x="294" y="587" on="0"/>
        <pt x="298" y="587" on="1"/>
        <pt x="328" y="692" on="1"/>
        <pt x="389" y="679" on="1"/>
        <pt x="357" y="575" on="1"/>
        <pt x="376" y="569" on="0"/>
        <pt x="408" y="551" on="0"/>
        <pt x="421" y="541" on="1"/>
        <pt x="399" y="465" on="1"/>
        <pt x="385" y="477" on="0"/>
        <pt x="352" y="497" on="0"/>
        <pt x="333" y="504" on="1"/>
        <pt x="231" y="169" on="1"/>
        <pt x="233" y="169" on="0"/>
        <pt x="239" y="169" on="0"/>
        <pt x="242" y="169" on="1"/>
        <pt x="276" y="169" on="0"/>
        <pt x="340" y="194" on="0"/>
        <pt x="367" y="212" on="1"/>
        <pt x="367" y="135" on="1"/>
        <pt x="344" y="121" on="0"/>
        <pt x="274" y="95" on="0"/>
      </contour>
    </TTGlyph>
    <TTGlyph name="cent.tab" xMin="74" yMin="-11" xMax="461" yMax="692">
      <contour>
        <pt x="156" y="303" on="1"/>
        <pt x="156" y="257" on="0"/>
        <pt x="183" y="199" on="0"/>
        <pt x="208" y="185" on="1"/>
        <pt x="307" y="513" on="1"/>
        <pt x="306" y="513" on="1"/>
        <pt x="271" y="513" on="0"/>
        <pt x="215" y="477" on="0"/>
        <pt x="177" y="419" on="0"/>
        <pt x="156" y="343" on="0"/>
      </contour>
      <contour>
        <pt x="266" y="97" on="1"/>
        <pt x="261" y="97" on="0"/>
        <pt x="250" y="97" on="0"/>
        <pt x="245" y="98" on="1"/>
        <pt x="212" y="-11" on="1"/>
        <pt x="151" y="3" on="1"/>
        <pt x="183" y="113" on="1"/>
        <pt x="134" y="133" on="0"/>
        <pt x="74" y="226" on="0"/>
        <pt x="74" y="295" on="1"/>
        <pt x="74" y="353" on="0"/>
        <pt x="109" y="459" on="0"/>
        <pt x="172" y="539" on="0"/>
        <pt x="263" y="586" on="0"/>
        <pt x="318" y="586" on="1"/>
        <pt x="320" y="586" on="0"/>
        <pt x="325" y="586" on="0"/>
        <pt x="327" y="586" on="1"/>
        <pt x="357" y="692" on="1"/>
        <pt x="418" y="679" on="1"/>
        <pt x="387" y="577" on="1"/>
        <pt x="409" y="570" on="0"/>
        <pt x="446" y="551" on="0"/>
        <pt x="461" y="540" on="1"/>
        <pt x="440" y="465" on="1"/>
        <pt x="424" y="478" on="0"/>
        <pt x="386" y="499" on="0"/>
        <pt x="364" y="506" on="1"/>
        <pt x="264" y="170" on="1"/>
        <pt x="267" y="170" on="0"/>
        <pt x="272" y="170" on="0"/>
        <pt x="275" y="170" on="1"/>
        <pt x="312" y="170" on="0"/>
        <pt x="375" y="193" on="0"/>
        <pt x="407" y="213" on="1"/>
        <pt x="407" y="137" on="1"/>
        <pt x="381" y="121" on="0"/>
        <pt x="310" y="97" on="0"/>
      </contour>
    </TTGlyph>
    <TTGlyph name="circumflex" xMin="122" yMin="543" xMax="377" yMax="682">
      <contour>
        <pt x="377" y="543" on="1"/>
        <pt x="322" y="543" on="1"/>
        <pt x="264" y="614" on="1"/>
        <pt x="182" y="543" on="1"/>
        <pt x="122" y="543" on="1"/>
        <pt x="232" y="682" on="1"/>
        <pt x="310" y="682" on="1"/>
      </contour>
    </TTGlyph>
    <TTGlyph name="colon" xMin="13" yMin="0" xMax="180" yMax="482">
      <contour>
        <pt x="180" y="482" on="1"/>
        <pt x="163" y="363" on="1"/>
        <pt x="67" y="363" on="1"/>
        <pt x="84" y="482" on="1"/>
      </contour>
      <contour>
        <pt x="127" y="119" on="1"/>
        <pt x="109" y="0" on="1"/>
        <pt x="13" y="0" on="1"/>
        <pt x="31" y="119" on="1"/>
      </contour>
    </TTGlyph>
    <TTGlyph name="colon.tab" xMin="39" yMin="0" xMax="206" yMax="482">
      <contour>
        <pt x="189" y="363" on="1"/>
        <pt x="93" y="363" on="1"/>
        <pt x="110" y="482" on="1"/>
        <pt x="206" y="482" on="1"/>
      </contour>
      <contour>
        <pt x="135" y="0" on="1"/>
        <pt x="39" y="0" on="1"/>
        <pt x="56" y="119" on="1"/>
        <pt x="152" y="119" on="1"/>
      </contour>
    </TTGlyph>
    <TTGlyph name="colonmonetary" xMin="47" yMin="-117" xMax="549" yMax="769">
      <contour>
        <pt x="129" y="255" on="1"/>
        <pt x="129" y="206" on="0"/>
        <pt x="147" y="138" on="0"/>
        <pt x="162" y="116" on="1"/>
        <pt x="311" y="614" on="1"/>
        <pt x="269" y="606" on="0"/>
        <pt x="201" y="542" on="0"/>
        <pt x="154" y="444" on="0"/>
        <pt x="129" y="321" on="0"/>
      </contour>
      <contour>
        <pt x="275" y="66" on="1"/>
        <pt x="277" y="66" on="0"/>
        <pt x="282" y="66" on="0"/>
        <pt x="285" y="66" on="1"/>
        <pt x="439" y="583" on="1"/>
        <pt x="424" y="593" on="0"/>
        <pt x="389" y="609" on="0"/>
        <pt x="369" y="613" on="1"/>
        <pt x="208" y="79" on="1"/>
        <pt x="223" y="72" on="0"/>
        <pt x="257" y="66" on="0"/>
      </contour>
      <contour>
        <pt x="227" y="-98" on="1"/>
        <pt x="255" y="-6" on="1"/>
        <pt x="239" y="-5" on="0"/>
        <pt x="207" y="1" on="0"/>
        <pt x="192" y="5" on="1"/>
        <pt x="156" y="-117" on="1"/>
        <pt x="96" y="-100" on="1"/>
        <pt x="136" y="35" on="1"/>
        <pt x="96" y="65" on="0"/>
        <pt x="47" y="176" on="0"/>
        <pt x="47" y="262" on="1"/>
        <pt x="47" y="338" on="0"/>
        <pt x="85" y="489" on="0"/>
        <pt x="157" y="608" on="0"/>
        <pt x="263" y="684" on="0"/>
        <pt x="331" y="687" on="1"/>
        <pt x="356" y="767" on="1"/>
        <pt x="417" y="750" on="1"/>
        <pt x="396" y="681" on="1"/>
        <pt x="412" y="677" on="0"/>
        <pt x="441" y="666" on="0"/>
        <pt x="454" y="660" on="1"/>
        <pt x="488" y="769" on="1"/>
        <pt x="549" y="753" on="1"/>
        <pt x="346" y="78" on="1"/>
        <pt x="366" y="85" on="0"/>
        <pt x="406" y="106" on="0"/>
        <pt x="423" y="119" on="1"/>
        <pt x="423" y="38" on="1"/>
        <pt x="402" y="26" on="0"/>
        <pt x="353" y="5" on="0"/>
        <pt x="322" y="-1" on="1"/>
        <pt x="288" y="-115" on="1"/>
      </contour>
    </TTGlyph>
    <TTGlyph name="comma" xMin="-32" yMin="-126" xMax="144" yMax="119">
      <contour>
        <pt x="144" y="119" on="1"/>
        <pt x="17" y="-126" on="1"/>
        <pt x="-32" y="-114" on="1"/>
        <pt x="42" y="119" on="1"/>
      </contour>
    </TTGlyph>
    <TTGlyph name="comma.alt" xMin="-36" yMin="-129" xMax="123" yMax="119">
      <contour>
        <pt x="32" y="119" on="1"/>
        <pt x="121" y="119" on="1"/>
        <pt x="122" y="110" on="0"/>
        <pt x="123" y="92" on="0"/>
        <pt x="123" y="82" on="1"/>
        <pt x="122" y="22" on="0"/>
        <pt x="64" y="-80" on="0"/>
        <pt x="13" y="-129" on="1"/>
        <pt x="-36" y="-107" on="1"/>
        <pt x="0" y="-60" on="0"/>
        <pt x="35" y="34" on="0"/>
        <pt x="35" y="82" on="1"/>
        <pt x="35" y="92" on="0"/>
        <pt x="33" y="108" on="0"/>
      </contour>
    </TTGlyph>
    <TTGlyph name="comma.tab" xMin="-2" yMin="-133" xMax="170" yMax="119">
      <contour>
        <pt x="170" y="119" on="1"/>
        <pt x="48" y="-133" on="1"/>
        <pt x="-2" y="-121" on="1"/>
        <pt x="70" y="119" on="1"/>
      </contour>
    </TTGlyph>
    <TTGlyph name="comma.tab_alt" xMin="-13" yMin="-133" xMax="147" yMax="119">
      <contour>
        <pt x="57" y="119" on="1"/>
        <pt x="145" y="119" on="1"/>
        <pt x="146" y="109" on="0"/>
        <pt x="147" y="91" on="0"/>
        <pt x="147" y="82" on="1"/>
        <pt x="146" y="22" on="0"/>
        <pt x="85" y="-82" on="0"/>
        <pt x="34" y="-133" on="1"/>
        <pt x="-13" y="-111" on="1"/>
        <pt x="24" y="-62" on="0"/>
        <pt x="60" y="32" on="0"/>
        <pt x="60" y="81" on="1"/>
        <pt x="60" y="92" on="0"/>
        <pt x="58" y="108" on="0"/>
      </contour>
    </TTGlyph>
    <TTGlyph name="commaaccent" xMin="93" yMin="-238" xMax="228" yMax="-57">
      <contour>
        <pt x="121" y="-79" on="1"/>
        <pt x="203" y="-57" on="1"/>
        <pt x="215" y="-73" on="0"/>
        <pt x="228" y="-101" on="0"/>
        <pt x="228" y="-117" on="1"/>
        <pt x="228" y="-145" on="0"/>
        <pt x="193" y="-201" on="0"/>
        <pt x="144" y="-238" on="1"/>
        <pt x="93" y="-225" on="1"/>
        <pt x="121" y="-194" on="0"/>
        <pt x="144" y="-150" on="0"/>
        <pt x="144" y="-131" on="1"/>
        <pt x="144" y="-118" on="0"/>
        <pt x="132" y="-94" on="0"/>
      </contour>
    </TTGlyph>
    <TTGlyph name="commaaccent.rot" xMin="242" yMin="541" xMax="377" yMax="722">
      <contour>
        <pt x="349" y="563" on="1"/>
        <pt x="267" y="541" on="1"/>
        <pt x="255" y="557" on="0"/>
        <pt x="242" y="586" on="0"/>
        <pt x="242" y="602" on="1"/>
        <pt x="242" y="629" on="0"/>
        <pt x="277" y="685" on="0"/>
        <pt x="326" y="722" on="1"/>
        <pt x="377" y="710" on="1"/>
        <pt x="349" y="679" on="0"/>
        <pt x="326" y="634" on="0"/>
        <pt x="326" y="615" on="1"/>
        <pt x="326" y="602" on="0"/>
        <pt x="338" y="578" on="0"/>
      </contour>
    </TTGlyph>
    <TTGlyph name="copyright" xMin="64" yMin="-18" xMax="687" yMax="708">
      <contour>
        <pt x="687" y="346" on="1"/>
        <pt x="687" y="265" on="0"/>
        <pt x="641" y="131" on="0"/>
        <pt x="559" y="35" on="0"/>
        <pt x="444" y="-18" on="0"/>
        <pt x="375" y="-18" on="1"/>
        <pt x="305" y="-18" on="0"/>
        <pt x="190" y="35" on="0"/>
        <pt x="109" y="129" on="0"/>
        <pt x="64" y="263" on="0"/>
        <pt x="64" y="344" on="1"/>
        <pt x="64" y="425" on="0"/>
        <pt x="109" y="560" on="0"/>
        <pt x="191" y="655" on="0"/>
        <pt x="307" y="708" on="0"/>
        <pt x="376" y="708" on="1"/>
        <pt x="445" y="708" on="0"/>
        <pt x="561" y="655" on="0"/>
        <pt x="642" y="561" on="0"/>
        <pt x="687" y="427" on="0"/>
      </contour>
      <contour>
        <pt x="644" y="345" on="1"/>
        <pt x="644" y="422" on="0"/>
        <pt x="602" y="544" on="0"/>
        <pt x="530" y="628" on="0"/>
        <pt x="432" y="672" on="0"/>
        <pt x="376" y="672" on="1"/>
        <pt x="319" y="672" on="0"/>
        <pt x="221" y="628" on="0"/>
        <pt x="148" y="544" on="0"/>
        <pt x="107" y="422" on="0"/>
        <pt x="107" y="345" on="1"/>
        <pt x="107" y="268" on="0"/>
        <pt x="149" y="146" on="0"/>
        <pt x="221" y="63" on="0"/>
        <pt x="320" y="19" on="0"/>
        <pt x="376" y="19" on="1"/>
        <pt x="432" y="19" on="0"/>
        <pt x="530" y="63" on="0"/>
        <pt x="602" y="146" on="0"/>
        <pt x="644" y="268" on="0"/>
      </contour>
      <contour>
        <pt x="493" y="180" on="1"/>
        <pt x="471" y="163" on="0"/>
        <pt x="416" y="143" on="0"/>
        <pt x="385" y="143" on="1"/>
        <pt x="312" y="143" on="0"/>
        <pt x="222" y="253" on="0"/>
        <pt x="222" y="348" on="1"/>
        <pt x="222" y="441" on="0"/>
        <pt x="314" y="553" on="0"/>
        <pt x="389" y="553" on="1"/>
        <pt x="418" y="553" on="0"/>
        <pt x="465" y="538" on="0"/>
        <pt x="487" y="524" on="1"/>
        <pt x="477" y="458" on="1"/>
        <pt x="454" y="475" on="0"/>
        <pt x="412" y="491" on="0"/>
        <pt x="389" y="491" on="1"/>
        <pt x="343" y="491" on="0"/>
        <pt x="288" y="411" on="0"/>
        <pt x="288" y="348" on="1"/>
        <pt x="288" y="285" on="0"/>
        <pt x="342" y="205" on="0"/>
        <pt x="388" y="205" on="1"/>
        <pt x="413" y="205" on="0"/>
        <pt x="458" y="224" on="0"/>
        <pt x="484" y="243" on="1"/>
      </contour>
    </TTGlyph>
    <TTGlyph name="d" xMin="28" yMin="-10" xMax="469" yMax="722">
      <contour>
        <pt x="336" y="401" on="1"/>
        <pt x="320" y="409" on="0"/>
        <pt x="292" y="415" on="0"/>
        <pt x="272" y="415" on="1"/>
        <pt x="243" y="415" on="0"/>
        <pt x="185" y="380" on="0"/>
        <pt x="141" y="317" on="0"/>
        <pt x="113" y="225" on="0"/>
        <pt x="113" y="168" on="1"/>
        <pt x="113" y="122" on="0"/>
        <pt x="144" y="66" on="0"/>
        <pt x="177" y="66" on="1"/>
        <pt x="207" y="66" on="0"/>
        <pt x="265" y="110" on="0"/>
        <pt x="298" y="145" on="1"/>
      </contour>
      <contour>
        <pt x="469" y="722" on="1"/>
        <pt x="379" y="119" on="1"/>
        <pt x="379" y="0" on="1"/>
        <pt x="303" y="0" on="1"/>
        <pt x="298" y="69" on="1"/>
        <pt x="270" y="37" on="0"/>
        <pt x="200" y="-10" on="0"/>
        <pt x="160" y="-10" on="1"/>
        <pt x="105" y="-10" on="0"/>
        <pt x="28" y="78" on="0"/>
        <pt x="28" y="163" on="1"/>
        <pt x="28" y="236" on="0"/>
        <pt x="69" y="356" on="0"/>
        <pt x="137" y="441" on="0"/>
        <pt x="227" y="488" on="0"/>
        <pt x="275" y="488" on="1"/>
        <pt x="296" y="488" on="0"/>
        <pt x="332" y="481" on="0"/>
        <pt x="348" y="476" on="1"/>
        <pt x="382" y="708" on="1"/>
      </contour>
    </TTGlyph>
    <TTGlyph name="dagger" xMin="77" yMin="-98" xMax="464" yMax="690">
      <contour>
        <pt x="331" y="618" on="1"/>
        <pt x="292" y="494" on="1"/>
        <pt x="261" y="494" on="1"/>
        <pt x="259" y="618" on="1"/>
        <pt x="270" y="690" on="1"/>
        <pt x="342" y="690" on="1"/>
      </contour>
      <contour>
        <pt x="232" y="442" on="1"/>
        <pt x="113" y="422" on="1"/>
        <pt x="77" y="422" on="1"/>
        <pt x="88" y="493" on="1"/>
        <pt x="123" y="493" on="1"/>
        <pt x="236" y="472" on="1"/>
      </contour>
      <contour>
        <pt x="453" y="422" on="1"/>
        <pt x="419" y="422" on="1"/>
        <pt x="305" y="442" on="1"/>
        <pt x="309" y="472" on="1"/>
        <pt x="429" y="493" on="1"/>
        <pt x="464" y="493" on="1"/>
      </contour>
      <contour>
        <pt x="240" y="31" on="1"/>
        <pt x="202" y="-98" on="1"/>
        <pt x="174" y="-98" on="1"/>
        <pt x="174" y="31" on="1"/>
        <pt x="215" y="302" on="1"/>
        <pt x="250" y="421" on="1"/>
        <pt x="281" y="421" on="1"/>
        <pt x="281" y="302" on="1"/>
      </contour>
    </TTGlyph>
    <TTGlyph name="daggerdbl" xMin="25" yMin="-163" xMax="468" yMax="690">
      <contour>
        <pt x="335" y="618" on="1"/>
        <pt x="297" y="494" on="1"/>
        <pt x="266" y="494" on="1"/>
        <pt x="264" y="618" on="1"/>
        <pt x="275" y="690" on="1"/>
        <pt x="347" y="690" on="1"/>
      </contour>
      <contour>
        <pt x="458" y="422" on="1"/>
        <pt x="423" y="422" on="1"/>
        <pt x="310" y="442" on="1"/>
        <pt x="314" y="472" on="1"/>
        <pt x="433" y="493" on="1"/>
        <pt x="468" y="493" on="1"/>
      </contour>
      <contour>
        <pt x="237" y="442" on="1"/>
        <pt x="117" y="422" on="1"/>
        <pt x="81" y="422" on="1"/>
        <pt x="92" y="493" on="1"/>
        <pt x="127" y="493" on="1"/>
        <pt x="241" y="472" on="1"/>
      </contour>
      <contour>
        <pt x="274" y="226" on="1"/>
        <pt x="239" y="107" on="1"/>
        <pt x="208" y="107" on="1"/>
        <pt x="208" y="226" on="1"/>
        <pt x="219" y="302" on="1"/>
        <pt x="254" y="421" on="1"/>
        <pt x="286" y="421" on="1"/>
        <pt x="285" y="302" on="1"/>
      </contour>
      <contour>
        <pt x="401" y="35" on="1"/>
        <pt x="366" y="35" on="1"/>
        <pt x="252" y="55" on="1"/>
        <pt x="256" y="86" on="1"/>
        <pt x="376" y="106" on="1"/>
        <pt x="412" y="106" on="1"/>
      </contour>
      <contour>
        <pt x="179" y="55" on="1"/>
        <pt x="60" y="35" on="1"/>
        <pt x="25" y="35" on="1"/>
        <pt x="36" y="106" on="1"/>
        <pt x="70" y="106" on="1"/>
        <pt x="183" y="86" on="1"/>
      </contour>
      <contour>
        <pt x="219" y="-163" on="1"/>
        <pt x="147" y="-163" on="1"/>
        <pt x="158" y="-91" on="1"/>
        <pt x="196" y="34" on="1"/>
        <pt x="227" y="34" on="1"/>
        <pt x="229" y="-91" on="1"/>
      </contour>
    </TTGlyph>
    <TTGlyph name="dcaron" xMin="28" yMin="-10" xMax="595" yMax="722">
      <component glyphName="caron.alt" x="271" y="1" flags="0x4"/>
      <component glyphName="d" x="0" y="0" flags="0x4"/>
    </TTGlyph>
    <TTGlyph name="dcroat" xMin="28" yMin="-10" xMax="525" yMax="722">
      <contour>
        <pt x="336" y="401" on="1"/>
        <pt x="320" y="409" on="0"/>
        <pt x="292" y="415" on="0"/>
        <pt x="272" y="415" on="1"/>
        <pt x="243" y="415" on="0"/>
        <pt x="185" y="380" on="0"/>
        <pt x="141" y="317" on="0"/>
        <pt x="113" y="225" on="0"/>
        <pt x="113" y="168" on="1"/>
        <pt x="113" y="122" on="0"/>
        <pt x="144" y="66" on="0"/>
        <pt x="177" y="66" on="1"/>
        <pt x="207" y="66" on="0"/>
        <pt x="265" y="110" on="0"/>
        <pt x="298" y="145" on="1"/>
      </contour>
      <contour>
        <pt x="298" y="69" on="1"/>
        <pt x="270" y="37" on="0"/>
        <pt x="200" y="-10" on="0"/>
        <pt x="160" y="-10" on="1"/>
        <pt x="105" y="-10" on="0"/>
        <pt x="28" y="78" on="0"/>
        <pt x="28" y="163" on="1"/>
        <pt x="28" y="236" on="0"/>
        <pt x="69" y="356" on="0"/>
        <pt x="137" y="441" on="0"/>
        <pt x="227" y="488" on="0"/>
        <pt x="275" y="488" on="1"/>
        <pt x="296" y="488" on="0"/>
        <pt x="332" y="481" on="0"/>
        <pt x="348" y="476" on="1"/>
        <pt x="361" y="567" on="1"/>
        <pt x="260" y="567" on="1"/>
        <pt x="260" y="637" on="1"/>
        <pt x="372" y="637" on="1"/>
        <pt x="382" y="708" on="1"/>
        <pt x="469" y="722" on="1"/>
        <pt x="456" y="637" on="1"/>
        <pt x="525" y="637" on="1"/>
        <pt x="514" y="567" on="1"/>
        <pt x="446" y="567" on="1"/>
        <pt x="379" y="119" on="1"/>
        <pt x="379" y="0" on="1"/>
        <pt x="303" y="0" on="1"/>
      </contour>
    </TTGlyph>
    <TTGlyph name="dcroat.flat" xMin="28" yMin="-10" xMax="525" yMax="722">
      <contour>
        <pt x="336" y="401" on="1"/>
        <pt x="320" y="409" on="0"/>
        <pt x="292" y="415" on="0"/>
        <pt x="272" y="415" on="1"/>
        <pt x="243" y="415" on="0"/>
        <pt x="185" y="380" on="0"/>
        <pt x="141" y="317" on="0"/>
        <pt x="113" y="225" on="0"/>
        <pt x="113" y="168" on="1"/>
        <pt x="113" y="122" on="0"/>
        <pt x="144" y="66" on="0"/>
        <pt x="177" y="66" on="1"/>
        <pt x="207" y="66" on="0"/>
        <pt x="265" y="110" on="0"/>
        <pt x="298" y="145" on="1"/>
      </contour>
      <contour>
        <pt x="298" y="69" on="1"/>
        <pt x="270" y="37" on="0"/>
        <pt x="200" y="-10" on="0"/>
        <pt x="160" y="-10" on="1"/>
        <pt x="105" y="-10" on="0"/>
        <pt x="28" y="78" on="0"/>
        <pt x="28" y="163" on="1"/>
        <pt x="28" y="236" on="0"/>
        <pt x="69" y="356" on="0"/>
        <pt x="137" y="441" on="0"/>
        <pt x="227" y="488" on="0"/>
        <pt x="275" y="488" on="1"/>
        <pt x="296" y="488" on="0"/>
        <pt x="332" y="481" on="0"/>
        <pt x="348" y="476" on="1"/>
        <pt x="361" y="567" on="1"/>
        <pt x="254" y="567" on="1"/>
        <pt x="265" y="637" on="1"/>
        <pt x="372" y="637" on="1"/>
        <pt x="382" y="708" on="1"/>
        <pt x="469" y="722" on="1"/>
        <pt x="456" y="637" on="1"/>
        <pt x="525" y="637" on="1"/>
        <pt x="514" y="567" on="1"/>
        <pt x="446" y="567" on="1"/>
        <pt x="379" y="119" on="1"/>
        <pt x="379" y="0" on="1"/>
        <pt x="303" y="0" on="1"/>
      </contour>
    </TTGlyph>
    <TTGlyph name="degree" xMin="85" yMin="389" xMax="386" yMax="690">
      <contour>
        <pt x="386" y="539" on="1"/>
        <pt x="386" y="474" on="0"/>
        <pt x="301" y="389" on="0"/>
        <pt x="236" y="389" on="1"/>
        <pt x="171" y="389" on="0"/>
        <pt x="85" y="474" on="0"/>
        <pt x="85" y="539" on="1"/>
        <pt x="85" y="604" on="0"/>
        <pt x="170" y="690" on="0"/>
        <pt x="236" y="690" on="1"/>
        <pt x="301" y="690" on="0"/>
        <pt x="386" y="604" on="0"/>
      </contour>
      <contour>
        <pt x="323" y="539" on="1"/>
        <pt x="323" y="577" on="0"/>
        <pt x="273" y="630" on="0"/>
        <pt x="236" y="630" on="1"/>
        <pt x="197" y="630" on="0"/>
        <pt x="149" y="577" on="0"/>
        <pt x="149" y="539" on="1"/>
        <pt x="149" y="501" on="0"/>
        <pt x="198" y="450" on="0"/>
        <pt x="236" y="450" on="1"/>
        <pt x="274" y="450" on="0"/>
        <pt x="323" y="501" on="0"/>
      </contour>
    </TTGlyph>
    <TTGlyph name="degree.tab" xMin="112" yMin="353" xMax="451" yMax="691">
      <contour>
        <pt x="282" y="353" on="1"/>
        <pt x="209" y="353" on="0"/>
        <pt x="112" y="448" on="0"/>
        <pt x="112" y="521" on="1"/>
        <pt x="112" y="594" on="0"/>
        <pt x="209" y="691" on="0"/>
        <pt x="282" y="691" on="1"/>
        <pt x="356" y="691" on="0"/>
        <pt x="451" y="594" on="0"/>
        <pt x="451" y="521" on="1"/>
        <pt x="451" y="448" on="0"/>
        <pt x="356" y="353" on="0"/>
      </contour>
      <contour>
        <pt x="282" y="629" on="1"/>
        <pt x="236" y="629" on="0"/>
        <pt x="177" y="567" on="0"/>
        <pt x="177" y="521" on="1"/>
        <pt x="177" y="474" on="0"/>
        <pt x="236" y="414" on="0"/>
        <pt x="282" y="414" on="1"/>
        <pt x="326" y="414" on="0"/>
        <pt x="387" y="474" on="0"/>
        <pt x="387" y="521" on="1"/>
        <pt x="387" y="567" on="0"/>
        <pt x="326" y="629" on="0"/>
      </contour>
    </TTGlyph>
    <TTGlyph name="dieresis" xMin="125" yMin="547" xMax="391" yMax="646">
      <contour>
        <pt x="215" y="547" on="1"/>
        <pt x="125" y="547" on="1"/>
        <pt x="140" y="646" on="1"/>
        <pt x="230" y="646" on="1"/>
      </contour>
      <contour>
        <pt x="376" y="547" on="1"/>
        <pt x="285" y="547" on="1"/>
        <pt x="300" y="646" on="1"/>
        <pt x="391" y="646" on="1"/>
      </contour>
    </TTGlyph>
    <TTGlyph name="divide" xMin="57" yMin="129" xMax="469" yMax="555">
      <contour>
        <pt x="324" y="456" on="1"/>
        <pt x="236" y="456" on="1"/>
        <pt x="251" y="555" on="1"/>
        <pt x="339" y="555" on="1"/>
      </contour>
      <contour>
        <pt x="458" y="306" on="1"/>
        <pt x="57" y="306" on="1"/>
        <pt x="68" y="377" on="1"/>
        <pt x="469" y="377" on="1"/>
      </contour>
      <contour>
        <pt x="275" y="129" on="1"/>
        <pt x="187" y="129" on="1"/>
        <pt x="202" y="228" on="1"/>
        <pt x="290" y="228" on="1"/>
      </contour>
    </TTGlyph>
    <TTGlyph name="divide.tab" xMin="46" yMin="120" xMax="471" yMax="564">
      <contour>
        <pt x="322" y="463" on="1"/>
        <pt x="232" y="463" on="1"/>
        <pt x="247" y="564" on="1"/>
        <pt x="337" y="564" on="1"/>
      </contour>
      <contour>
        <pt x="460" y="306" on="1"/>
        <pt x="46" y="306" on="1"/>
        <pt x="56" y="378" on="1"/>
        <pt x="471" y="378" on="1"/>
      </contour>
      <contour>
        <pt x="270" y="120" on="1"/>
        <pt x="180" y="120" on="1"/>
        <pt x="196" y="221" on="1"/>
        <pt x="286" y="221" on="1"/>
      </contour>
    </TTGlyph>
    <TTGlyph name="dollar" xMin="4" yMin="-123" xMax="474" yMax="766">
      <contour>
        <pt x="177" y="518" on="1"/>
        <pt x="177" y="490" on="0"/>
        <pt x="208" y="443" on="0"/>
        <pt x="248" y="413" on="1"/>
        <pt x="307" y="614" on="1"/>
        <pt x="303" y="615" on="0"/>
        <pt x="295" y="615" on="0"/>
        <pt x="291" y="615" on="1"/>
        <pt x="238" y="615" on="0"/>
        <pt x="177" y="559" on="0"/>
      </contour>
      <contour>
        <pt x="215" y="69" on="1"/>
        <pt x="269" y="69" on="0"/>
        <pt x="344" y="133" on="0"/>
        <pt x="344" y="183" on="1"/>
        <pt x="344" y="216" on="0"/>
        <pt x="313" y="268" on="0"/>
        <pt x="274" y="296" on="1"/>
        <pt x="208" y="69" on="1"/>
        <pt x="209" y="69" on="0"/>
        <pt x="214" y="69" on="0"/>
      </contour>
      <contour>
        <pt x="208" y="-5" on="1"/>
        <pt x="203" y="-5" on="0"/>
        <pt x="192" y="-5" on="0"/>
        <pt x="187" y="-4" on="1"/>
        <pt x="151" y="-123" on="1"/>
        <pt x="92" y="-111" on="1"/>
        <pt x="126" y="6" on="1"/>
        <pt x="89" y="16" on="0"/>
        <pt x="26" y="46" on="0"/>
        <pt x="4" y="60" on="1"/>
        <pt x="26" y="139" on="1"/>
        <pt x="54" y="120" on="0"/>
        <pt x="116" y="87" on="0"/>
        <pt x="150" y="78" on="1"/>
        <pt x="224" y="329" on="1"/>
        <pt x="166" y="367" on="0"/>
        <pt x="96" y="451" on="0"/>
        <pt x="96" y="511" on="1"/>
        <pt x="96" y="548" on="0"/>
        <pt x="123" y="612" on="0"/>
        <pt x="174" y="660" on="0"/>
        <pt x="249" y="688" on="0"/>
        <pt x="296" y="688" on="1"/>
        <pt x="304" y="688" on="0"/>
        <pt x="320" y="687" on="0"/>
        <pt x="328" y="687" on="1"/>
        <pt x="351" y="766" on="1"/>
        <pt x="410" y="752" on="1"/>
        <pt x="388" y="676" on="1"/>
        <pt x="413" y="669" on="0"/>
        <pt x="458" y="650" on="0"/>
        <pt x="474" y="640" on="1"/>
        <pt x="452" y="562" on="1"/>
        <pt x="433" y="575" on="0"/>
        <pt x="388" y="597" on="0"/>
        <pt x="363" y="604" on="1"/>
        <pt x="298" y="380" on="1"/>
        <pt x="365" y="335" on="0"/>
        <pt x="426" y="247" on="0"/>
        <pt x="426" y="191" on="1"/>
        <pt x="426" y="147" on="0"/>
        <pt x="393" y="75" on="0"/>
        <pt x="335" y="23" on="0"/>
        <pt x="255" y="-5" on="0"/>
      </contour>
    </TTGlyph>
    <TTGlyph name="dollar.tab" xMin="3" yMin="-123" xMax="485" yMax="766">
      <contour>
        <pt x="176" y="519" on="1"/>
        <pt x="176" y="490" on="0"/>
        <pt x="209" y="444" on="0"/>
        <pt x="254" y="413" on="1"/>
        <pt x="313" y="616" on="1"/>
        <pt x="309" y="616" on="0"/>
        <pt x="303" y="616" on="0"/>
        <pt x="299" y="616" on="1"/>
        <pt x="242" y="616" on="0"/>
        <pt x="176" y="562" on="0"/>
      </contour>
      <contour>
        <pt x="218" y="68" on="1"/>
        <pt x="277" y="68" on="0"/>
        <pt x="357" y="131" on="0"/>
        <pt x="357" y="184" on="1"/>
        <pt x="357" y="217" on="0"/>
        <pt x="322" y="267" on="0"/>
        <pt x="280" y="297" on="1"/>
        <pt x="213" y="68" on="1"/>
      </contour>
      <contour>
        <pt x="213" y="-5" on="1"/>
        <pt x="208" y="-5" on="0"/>
        <pt x="197" y="-5" on="0"/>
        <pt x="193" y="-4" on="1"/>
        <pt x="157" y="-123" on="1"/>
        <pt x="97" y="-111" on="1"/>
        <pt x="131" y="5" on="1"/>
        <pt x="92" y="15" on="0"/>
        <pt x="26" y="46" on="0"/>
        <pt x="3" y="60" on="1"/>
        <pt x="27" y="137" on="1"/>
        <pt x="55" y="118" on="0"/>
        <pt x="118" y="84" on="0"/>
        <pt x="155" y="76" on="1"/>
        <pt x="229" y="330" on="1"/>
        <pt x="169" y="370" on="0"/>
        <pt x="96" y="451" on="0"/>
        <pt x="96" y="511" on="1"/>
        <pt x="96" y="586" on="0"/>
        <pt x="204" y="688" on="0"/>
        <pt x="303" y="688" on="1"/>
        <pt x="310" y="688" on="0"/>
        <pt x="326" y="688" on="0"/>
        <pt x="333" y="687" on="1"/>
        <pt x="356" y="766" on="1"/>
        <pt x="416" y="752" on="1"/>
        <pt x="394" y="677" on="1"/>
        <pt x="422" y="670" on="0"/>
        <pt x="467" y="650" on="0"/>
        <pt x="485" y="640" on="1"/>
        <pt x="462" y="563" on="1"/>
        <pt x="442" y="576" on="0"/>
        <pt x="395" y="599" on="0"/>
        <pt x="370" y="606" on="1"/>
        <pt x="304" y="380" on="1"/>
        <pt x="375" y="334" on="0"/>
        <pt x="437" y="248" on="0"/>
        <pt x="437" y="192" on="1"/>
        <pt x="437" y="148" on="0"/>
        <pt x="403" y="75" on="0"/>
        <pt x="344" y="24" on="0"/>
        <pt x="262" y="-5" on="0"/>
      </contour>
    </TTGlyph>
    <TTGlyph name="dotaccent" xMin="204" yMin="547" xMax="312" yMax="646">
      <contour>
        <pt x="297" y="547" on="1"/>
        <pt x="204" y="547" on="1"/>
        <pt x="219" y="646" on="1"/>
        <pt x="312" y="646" on="1"/>
      </contour>
    </TTGlyph>
    <TTGlyph name="dotlessi" xMin="25" yMin="0" xMax="181" yMax="482">
      <contour>
        <pt x="181" y="482" on="1"/>
        <pt x="110" y="0" on="1"/>
        <pt x="25" y="0" on="1"/>
        <pt x="96" y="482" on="1"/>
      </contour>
    </TTGlyph>
    <TTGlyph name="e" xMin="29" yMin="-10" xMax="390" yMax="492">
      <contour>
        <pt x="241" y="425" on="1"/>
        <pt x="204" y="425" on="0"/>
        <pt x="143" y="348" on="0"/>
        <pt x="127" y="291" on="1"/>
        <pt x="306" y="291" on="1"/>
        <pt x="310" y="351" on="0"/>
        <pt x="281" y="425" on="0"/>
      </contour>
      <contour>
        <pt x="347" y="39" on="1"/>
        <pt x="313" y="17" on="0"/>
        <pt x="243" y="-10" on="0"/>
        <pt x="200" y="-10" on="1"/>
        <pt x="120" y="-10" on="0"/>
        <pt x="29" y="97" on="0"/>
        <pt x="29" y="190" on="1"/>
        <pt x="29" y="250" on="0"/>
        <pt x="62" y="360" on="0"/>
        <pt x="120" y="443" on="0"/>
        <pt x="200" y="492" on="0"/>
        <pt x="247" y="492" on="1"/>
        <pt x="319" y="492" on="0"/>
        <pt x="390" y="392" on="0"/>
        <pt x="390" y="318" on="1"/>
        <pt x="390" y="293" on="0"/>
        <pt x="385" y="245" on="0"/>
        <pt x="381" y="224" on="1"/>
        <pt x="115" y="224" on="1"/>
        <pt x="114" y="216" on="0"/>
        <pt x="114" y="198" on="0"/>
        <pt x="114" y="190" on="1"/>
        <pt x="114" y="131" on="0"/>
        <pt x="164" y="64" on="0"/>
        <pt x="210" y="64" on="1"/>
        <pt x="246" y="64" on="0"/>
        <pt x="313" y="95" on="0"/>
        <pt x="347" y="121" on="1"/>
      </contour>
    </TTGlyph>
    <TTGlyph name="eacute" xMin="29" yMin="-10" xMax="418" yMax="689">
      <component glyphName="e" x="0" y="0" flags="0x204"/>
      <component glyphName="acute" x="57" y="0" flags="0x4"/>
    </TTGlyph>
    <TTGlyph name="ebreve" xMin="29" yMin="-10" xMax="397" yMax="669">
      <component glyphName="e" x="0" y="0" flags="0x204"/>
      <component glyphName="breve" x="5" y="0" flags="0x4"/>
    </TTGlyph>
    <TTGlyph name="ecaron" xMin="29" yMin="-10" xMax="408" yMax="681">
      <component glyphName="e" x="0" y="0" flags="0x204"/>
      <component glyphName="caron" x="10" y="0" flags="0x4"/>
    </TTGlyph>
    <TTGlyph name="ecircumflex" xMin="29" yMin="-10" xMax="390" yMax="682">
      <component glyphName="e" x="0" y="0" flags="0x204"/>
      <component glyphName="circumflex" x="8" y="0" flags="0x4"/>
    </TTGlyph>
    <TTGlyph name="edieresis" xMin="29" yMin="-10" xMax="401" yMax="646">
      <component glyphName="e" x="0" y="0" flags="0x204"/>
      <component glyphName="dieresis" x="10" y="0" flags="0x4"/>
    </TTGlyph>
    <TTGlyph name="edotaccent" xMin="29" yMin="-10" xMax="390" yMax="646">
      <component glyphName="e" x="0" y="0" flags="0x204"/>
      <component glyphName="dotaccent" x="10" y="0" flags="0x4"/>
    </TTGlyph>
    <TTGlyph name="egrave" xMin="29" yMin="-10" xMax="390" yMax="689">
      <component glyphName="e" x="0" y="0" flags="0x204"/>
      <component glyphName="grave" x="-44" y="0" flags="0x4"/>
    </TTGlyph>
    <TTGlyph name="eight" xMin="29" yMin="-11" xMax="486" yMax="696">
      <contour>
        <pt x="234" y="-11" on="1"/>
        <pt x="185" y="-11" on="0"/>
        <pt x="109" y="16" on="0"/>
        <pt x="57" y="63" on="0"/>
        <pt x="29" y="126" on="0"/>
        <pt x="29" y="161" on="1"/>
        <pt x="29" y="229" on="0"/>
        <pt x="107" y="330" on="0"/>
        <pt x="181" y="370" on="1"/>
        <pt x="145" y="397" on="0"/>
        <pt x="101" y="470" on="0"/>
        <pt x="101" y="515" on="1"/>
        <pt x="101" y="592" on="0"/>
        <pt x="213" y="696" on="0"/>
        <pt x="300" y="696" on="1"/>
        <pt x="384" y="696" on="0"/>
        <pt x="486" y="605" on="0"/>
        <pt x="486" y="538" on="1"/>
        <pt x="486" y="475" on="0"/>
        <pt x="413" y="383" on="0"/>
        <pt x="358" y="352" on="1"/>
        <pt x="403" y="322" on="0"/>
        <pt x="458" y="241" on="0"/>
        <pt x="458" y="187" on="1"/>
        <pt x="458" y="103" on="0"/>
        <pt x="333" y="-11" on="0"/>
      </contour>
      <contour>
        <pt x="186" y="518" on="1"/>
        <pt x="186" y="478" on="0"/>
        <pt x="238" y="419" on="0"/>
        <pt x="296" y="388" on="1"/>
        <pt x="345" y="416" on="0"/>
        <pt x="401" y="488" on="0"/>
        <pt x="401" y="533" on="1"/>
        <pt x="401" y="573" on="0"/>
        <pt x="347" y="624" on="0"/>
        <pt x="299" y="624" on="1"/>
        <pt x="246" y="624" on="0"/>
        <pt x="186" y="561" on="0"/>
      </contour>
      <contour>
        <pt x="241" y="61" on="1"/>
        <pt x="301" y="61" on="0"/>
        <pt x="372" y="131" on="0"/>
        <pt x="372" y="183" on="1"/>
        <pt x="372" y="232" on="0"/>
        <pt x="311" y="294" on="0"/>
        <pt x="242" y="332" on="1"/>
        <pt x="180" y="302" on="0"/>
        <pt x="116" y="218" on="0"/>
        <pt x="116" y="169" on="1"/>
        <pt x="116" y="118" on="0"/>
        <pt x="187" y="61" on="0"/>
      </contour>
    </TTGlyph>
    <TTGlyph name="eight.den" xMin="18" yMin="-9" xMax="282" yMax="359">
      <component glyphName="eight.num" x="-49" y="-334" flags="0x4"/>
    </TTGlyph>
    <TTGlyph name="eight.inf" xMin="-6" yMin="-159" xMax="258" yMax="209">
      <component glyphName="eight.num" x="-73" y="-484" flags="0x4"/>
    </TTGlyph>
    <TTGlyph name="eight.num" xMin="67" yMin="325" xMax="331" yMax="693">
      <contour>
        <pt x="185" y="325" on="1"/>
        <pt x="131" y="325" on="0"/>
        <pt x="67" y="379" on="0"/>
        <pt x="67" y="421" on="1"/>
        <pt x="67" y="454" on="0"/>
        <pt x="108" y="505" on="0"/>
        <pt x="145" y="523" on="1"/>
        <pt x="126" y="536" on="0"/>
        <pt x="103" y="572" on="0"/>
        <pt x="103" y="597" on="1"/>
        <pt x="103" y="635" on="0"/>
        <pt x="168" y="693" on="0"/>
        <pt x="221" y="693" on="1"/>
        <pt x="272" y="693" on="0"/>
        <pt x="331" y="641" on="0"/>
        <pt x="331" y="603" on="1"/>
        <pt x="331" y="570" on="0"/>
        <pt x="292" y="527" on="0"/>
        <pt x="265" y="512" on="1"/>
        <pt x="287" y="497" on="0"/>
        <pt x="314" y="458" on="0"/>
        <pt x="314" y="432" on="1"/>
        <pt x="314" y="386" on="0"/>
        <pt x="242" y="325" on="0"/>
      </contour>
      <contour>
        <pt x="166" y="598" on="1"/>
        <pt x="166" y="578" on="0"/>
        <pt x="197" y="551" on="0"/>
        <pt x="223" y="536" on="1"/>
        <pt x="245" y="550" on="0"/>
        <pt x="268" y="581" on="0"/>
        <pt x="268" y="599" on="1"/>
        <pt x="268" y="618" on="0"/>
        <pt x="242" y="645" on="0"/>
        <pt x="219" y="645" on="1"/>
        <pt x="197" y="645" on="0"/>
        <pt x="166" y="618" on="0"/>
      </contour>
      <contour>
        <pt x="187" y="375" on="1"/>
        <pt x="215" y="375" on="0"/>
        <pt x="250" y="407" on="0"/>
        <pt x="250" y="430" on="1"/>
        <pt x="250" y="453" on="0"/>
        <pt x="214" y="482" on="0"/>
        <pt x="186" y="498" on="1"/>
        <pt x="158" y="483" on="0"/>
        <pt x="131" y="446" on="0"/>
        <pt x="131" y="427" on="1"/>
        <pt x="131" y="405" on="0"/>
        <pt x="162" y="375" on="0"/>
      </contour>
    </TTGlyph>
    <TTGlyph name="eight.sup" xMin="80" yMin="418" xMax="344" yMax="786">
      <component glyphName="eight.num" x="13" y="93" flags="0x4"/>
    </TTGlyph>
    <TTGlyph name="eight.tab" xMin="29" yMin="-10" xMax="481" yMax="695">
      <contour>
        <pt x="232" y="-10" on="1"/>
        <pt x="184" y="-10" on="0"/>
        <pt x="108" y="18" on="0"/>
        <pt x="56" y="65" on="0"/>
        <pt x="29" y="128" on="0"/>
        <pt x="29" y="163" on="1"/>
        <pt x="29" y="232" on="0"/>
        <pt x="112" y="333" on="0"/>
        <pt x="176" y="372" on="1"/>
        <pt x="143" y="397" on="0"/>
        <pt x="98" y="466" on="0"/>
        <pt x="98" y="512" on="1"/>
        <pt x="98" y="552" on="0"/>
        <pt x="128" y="619" on="0"/>
        <pt x="181" y="668" on="0"/>
        <pt x="253" y="695" on="0"/>
        <pt x="294" y="695" on="1"/>
        <pt x="377" y="695" on="0"/>
        <pt x="481" y="605" on="0"/>
        <pt x="481" y="536" on="1"/>
        <pt x="481" y="471" on="0"/>
        <pt x="402" y="378" on="0"/>
        <pt x="351" y="347" on="1"/>
        <pt x="389" y="319" on="0"/>
        <pt x="447" y="241" on="0"/>
        <pt x="447" y="186" on="1"/>
        <pt x="447" y="144" on="0"/>
        <pt x="414" y="72" on="0"/>
        <pt x="357" y="20" on="0"/>
        <pt x="278" y="-10" on="0"/>
      </contour>
      <contour>
        <pt x="183" y="515" on="1"/>
        <pt x="183" y="471" on="0"/>
        <pt x="246" y="414" on="0"/>
        <pt x="295" y="383" on="1"/>
        <pt x="338" y="411" on="0"/>
        <pt x="395" y="486" on="0"/>
        <pt x="395" y="532" on="1"/>
        <pt x="395" y="572" on="0"/>
        <pt x="340" y="624" on="0"/>
        <pt x="294" y="624" on="1"/>
        <pt x="243" y="624" on="0"/>
        <pt x="183" y="559" on="0"/>
      </contour>
      <contour>
        <pt x="237" y="62" on="1"/>
        <pt x="290" y="62" on="0"/>
        <pt x="362" y="132" on="0"/>
        <pt x="362" y="185" on="1"/>
        <pt x="362" y="237" on="0"/>
        <pt x="286" y="299" on="0"/>
        <pt x="229" y="335" on="1"/>
        <pt x="178" y="304" on="0"/>
        <pt x="115" y="219" on="0"/>
        <pt x="115" y="169" on="1"/>
        <pt x="115" y="119" on="0"/>
        <pt x="185" y="62" on="0"/>
      </contour>
    </TTGlyph>
    <TTGlyph name="ellipsis" xMin="15" yMin="0" xMax="542" yMax="119">
      <contour>
        <pt x="111" y="0" on="1"/>
        <pt x="15" y="0" on="1"/>
        <pt x="33" y="119" on="1"/>
        <pt x="129" y="119" on="1"/>
      </contour>
      <contour>
        <pt x="318" y="0" on="1"/>
        <pt x="222" y="0" on="1"/>
        <pt x="240" y="119" on="1"/>
        <pt x="336" y="119" on="1"/>
      </contour>
      <contour>
        <pt x="524" y="0" on="1"/>
        <pt x="428" y="0" on="1"/>
        <pt x="446" y="119" on="1"/>
        <pt x="542" y="119" on="1"/>
      </contour>
    </TTGlyph>
    <TTGlyph name="emacron" xMin="29" yMin="-10" xMax="399" yMax="633">
      <component glyphName="e" x="0" y="0" flags="0x204"/>
      <component glyphName="macron" x="10" y="0" flags="0x4"/>
    </TTGlyph>
    <TTGlyph name="emdash" xMin="41" yMin="244" xMax="761" yMax="325">
      <contour>
        <pt x="748" y="244" on="1"/>
        <pt x="41" y="244" on="1"/>
        <pt x="53" y="325" on="1"/>
        <pt x="761" y="325" on="1"/>
      </contour>
    </TTGlyph>
    <TTGlyph name="endash" xMin="41" yMin="243" xMax="369" yMax="325">
      <contour>
        <pt x="356" y="243" on="1"/>
        <pt x="41" y="243" on="1"/>
        <pt x="53" y="325" on="1"/>
        <pt x="369" y="325" on="1"/>
      </contour>
    </TTGlyph>
    <TTGlyph name="eogonek" xMin="29" yMin="-175" xMax="390" yMax="492">
      <contour>
        <pt x="233" y="-175" on="1"/>
        <pt x="202" y="-175" on="0"/>
        <pt x="167" y="-145" on="0"/>
        <pt x="167" y="-118" on="1"/>
        <pt x="167" y="-93" on="0"/>
        <pt x="196" y="-42" on="0"/>
        <pt x="228" y="-8" on="1"/>
        <pt x="221" y="-9" on="0"/>
        <pt x="208" y="-10" on="0"/>
        <pt x="201" y="-10" on="1"/>
        <pt x="123" y="-10" on="0"/>
        <pt x="29" y="92" on="0"/>
        <pt x="29" y="188" on="1"/>
        <pt x="29" y="251" on="0"/>
        <pt x="63" y="362" on="0"/>
        <pt x="122" y="444" on="0"/>
        <pt x="201" y="492" on="0"/>
        <pt x="245" y="492" on="1"/>
        <pt x="319" y="492" on="0"/>
        <pt x="390" y="393" on="0"/>
        <pt x="390" y="318" on="1"/>
        <pt x="390" y="293" on="0"/>
        <pt x="385" y="245" on="0"/>
        <pt x="381" y="224" on="1"/>
        <pt x="115" y="224" on="1"/>
        <pt x="114" y="215" on="0"/>
        <pt x="114" y="197" on="0"/>
        <pt x="114" y="187" on="1"/>
        <pt x="114" y="129" on="0"/>
        <pt x="164" y="64" on="0"/>
        <pt x="212" y="64" on="1"/>
        <pt x="250" y="64" on="0"/>
        <pt x="315" y="95" on="0"/>
        <pt x="349" y="121" on="1"/>
        <pt x="349" y="44" on="1"/>
        <pt x="344" y="41" on="0"/>
        <pt x="325" y="23" on="0"/>
        <pt x="305" y="2" on="0"/>
        <pt x="287" y="-16" on="0"/>
        <pt x="284" y="-19" on="1"/>
        <pt x="262" y="-43" on="0"/>
        <pt x="242" y="-76" on="0"/>
        <pt x="242" y="-89" on="1"/>
        <pt x="242" y="-100" on="0"/>
        <pt x="256" y="-113" on="0"/>
        <pt x="272" y="-113" on="1"/>
        <pt x="281" y="-113" on="0"/>
        <pt x="301" y="-110" on="0"/>
        <pt x="311" y="-109" on="1"/>
        <pt x="303" y="-161" on="1"/>
        <pt x="287" y="-167" on="0"/>
        <pt x="250" y="-175" on="0"/>
      </contour>
      <contour>
        <pt x="127" y="291" on="1"/>
        <pt x="306" y="291" on="1"/>
        <pt x="310" y="351" on="0"/>
        <pt x="281" y="425" on="0"/>
        <pt x="240" y="425" on="1"/>
        <pt x="205" y="425" on="0"/>
        <pt x="143" y="351" on="0"/>
      </contour>
    </TTGlyph>
    <TTGlyph name="equal" xMin="55" yMin="209" xMax="481" yMax="475">
      <contour>
        <pt x="469" y="400" on="1"/>
        <pt x="84" y="400" on="1"/>
        <pt x="95" y="475" on="1"/>
        <pt x="481" y="475" on="1"/>
      </contour>
      <contour>
        <pt x="440" y="209" on="1"/>
        <pt x="55" y="209" on="1"/>
        <pt x="66" y="284" on="1"/>
        <pt x="452" y="284" on="1"/>
      </contour>
    </TTGlyph>
    <TTGlyph name="equal.tab" xMin="40" yMin="206" xMax="479" yMax="477">
      <contour>
        <pt x="467" y="402" on="1"/>
        <pt x="69" y="402" on="1"/>
        <pt x="80" y="477" on="1"/>
        <pt x="479" y="477" on="1"/>
      </contour>
      <contour>
        <pt x="438" y="206" on="1"/>
        <pt x="40" y="206" on="1"/>
        <pt x="51" y="281" on="1"/>
        <pt x="450" y="281" on="1"/>
      </contour>
    </TTGlyph>
    <TTGlyph name="eth" xMin="31" yMin="-10" xMax="433" yMax="725">
      <contour>
        <pt x="196" y="-10" on="1"/>
        <pt x="126" y="-10" on="0"/>
        <pt x="31" y="89" on="0"/>
        <pt x="31" y="190" on="1"/>
        <pt x="31" y="240" on="0"/>
        <pt x="62" y="334" on="0"/>
        <pt x="116" y="406" on="0"/>
        <pt x="194" y="449" on="0"/>
        <pt x="240" y="449" on="1"/>
        <pt x="274" y="449" on="0"/>
        <pt x="326" y="427" on="0"/>
        <pt x="348" y="408" on="1"/>
        <pt x="344" y="455" on="0"/>
        <pt x="319" y="526" on="0"/>
        <pt x="299" y="553" on="1"/>
        <pt x="262" y="507" on="1"/>
        <pt x="188" y="507" on="1"/>
        <pt x="257" y="597" on="1"/>
        <pt x="240" y="612" on="0"/>
        <pt x="197" y="638" on="0"/>
        <pt x="173" y="650" on="1"/>
        <pt x="190" y="725" on="1"/>
        <pt x="222" y="712" on="0"/>
        <pt x="280" y="678" on="0"/>
        <pt x="304" y="658" on="1"/>
        <pt x="354" y="723" on="1"/>
        <pt x="423" y="708" on="1"/>
        <pt x="348" y="615" on="1"/>
        <pt x="389" y="566" on="0"/>
        <pt x="433" y="437" on="0"/>
        <pt x="433" y="356" on="1"/>
        <pt x="433" y="259" on="0"/>
        <pt x="372" y="92" on="0"/>
        <pt x="327" y="46" on="1"/>
        <pt x="299" y="18" on="0"/>
        <pt x="234" y="-10" on="0"/>
      </contour>
      <contour>
        <pt x="201" y="59" on="1"/>
        <pt x="230" y="59" on="0"/>
        <pt x="281" y="102" on="0"/>
        <pt x="321" y="174" on="0"/>
        <pt x="346" y="271" on="0"/>
        <pt x="349" y="324" on="1"/>
        <pt x="324" y="353" on="0"/>
        <pt x="273" y="379" on="0"/>
        <pt x="242" y="379" on="1"/>
        <pt x="213" y="379" on="0"/>
        <pt x="166" y="346" on="0"/>
        <pt x="134" y="294" on="0"/>
        <pt x="116" y="225" on="0"/>
        <pt x="116" y="189" on="1"/>
        <pt x="116" y="123" on="0"/>
        <pt x="162" y="59" on="0"/>
      </contour>
    </TTGlyph>
    <TTGlyph name="exclam" xMin="36" yMin="0" xMax="241" yMax="690">
      <contour>
        <pt x="241" y="690" on="1"/>
        <pt x="145" y="217" on="1"/>
        <pt x="90" y="205" on="1"/>
        <pt x="138" y="690" on="1"/>
      </contour>
      <contour>
        <pt x="150" y="119" on="1"/>
        <pt x="132" y="0" on="1"/>
        <pt x="36" y="0" on="1"/>
        <pt x="54" y="119" on="1"/>
      </contour>
    </TTGlyph>
    <TTGlyph name="exclam.flat" xMin="36" yMin="0" xMax="241" yMax="690">
      <contour>
        <pt x="241" y="690" on="1"/>
        <pt x="144" y="212" on="1"/>
        <pt x="91" y="212" on="1"/>
        <pt x="138" y="690" on="1"/>
      </contour>
      <contour>
        <pt x="150" y="119" on="1"/>
        <pt x="132" y="0" on="1"/>
        <pt x="36" y="0" on="1"/>
        <pt x="54" y="119" on="1"/>
      </contour>
    </TTGlyph>
    <TTGlyph name="exclamdown" xMin="34" yMin="0" xMax="239" yMax="690">
      <contour>
        <pt x="239" y="690" on="1"/>
        <pt x="221" y="571" on="1"/>
        <pt x="125" y="571" on="1"/>
        <pt x="143" y="690" on="1"/>
      </contour>
      <contour>
        <pt x="185" y="485" on="1"/>
        <pt x="137" y="0" on="1"/>
        <pt x="34" y="0" on="1"/>
        <pt x="130" y="473" on="1"/>
      </contour>
    </TTGlyph>
    <TTGlyph name="exclamdown.flat" xMin="34" yMin="0" xMax="239" yMax="690">
      <contour>
        <pt x="125" y="571" on="1"/>
        <pt x="143" y="690" on="1"/>
        <pt x="239" y="690" on="1"/>
        <pt x="221" y="571" on="1"/>
      </contour>
      <contour>
        <pt x="34" y="0" on="1"/>
        <pt x="131" y="479" on="1"/>
        <pt x="184" y="479" on="1"/>
        <pt x="137" y="0" on="1"/>
      </contour>
    </TTGlyph>
    <TTGlyph name="f" xMin="20" yMin="-186" xMax="328" yMax="716">
      <contour>
        <pt x="328" y="635" on="1"/>
        <pt x="321" y="636" on="0"/>
        <pt x="299" y="640" on="0"/>
        <pt x="286" y="640" on="1"/>
        <pt x="257" y="640" on="0"/>
        <pt x="221" y="610" on="0"/>
        <pt x="215" y="568" on="1"/>
        <pt x="201" y="482" on="1"/>
        <pt x="285" y="482" on="1"/>
        <pt x="285" y="410" on="1"/>
        <pt x="190" y="410" on="1"/>
        <pt x="105" y="-173" on="1"/>
        <pt x="20" y="-186" on="1"/>
        <pt x="108" y="410" on="1"/>
        <pt x="43" y="410" on="1"/>
        <pt x="54" y="482" on="1"/>
        <pt x="119" y="482" on="1"/>
        <pt x="134" y="582" on="1"/>
        <pt x="145" y="652" on="0"/>
        <pt x="218" y="716" on="0"/>
        <pt x="284" y="716" on="1"/>
        <pt x="300" y="716" on="0"/>
        <pt x="321" y="714" on="0"/>
        <pt x="328" y="713" on="1"/>
      </contour>
    </TTGlyph>
    <TTGlyph name="f.flat" xMin="20" yMin="-186" xMax="328" yMax="716">
      <contour>
        <pt x="328" y="635" on="1"/>
        <pt x="321" y="636" on="0"/>
        <pt x="299" y="640" on="0"/>
        <pt x="286" y="640" on="1"/>
        <pt x="257" y="640" on="0"/>
        <pt x="221" y="610" on="0"/>
        <pt x="215" y="568" on="1"/>
        <pt x="201" y="482" on="1"/>
        <pt x="291" y="482" on="1"/>
        <pt x="280" y="410" on="1"/>
        <pt x="190" y="410" on="1"/>
        <pt x="105" y="-173" on="1"/>
        <pt x="20" y="-186" on="1"/>
        <pt x="108" y="410" on="1"/>
        <pt x="43" y="410" on="1"/>
        <pt x="54" y="482" on="1"/>
        <pt x="119" y="482" on="1"/>
        <pt x="134" y="582" on="1"/>
        <pt x="145" y="652" on="0"/>
        <pt x="218" y="716" on="0"/>
        <pt x="284" y="716" on="1"/>
        <pt x="300" y="716" on="0"/>
        <pt x="321" y="714" on="0"/>
        <pt x="328" y="713" on="1"/>
      </contour>
    </TTGlyph>
    <TTGlyph name="f_f" xMin="20" yMin="-186" xMax="607" yMax="716">
      <component glyphName="f" x="0" y="0" flags="0x4"/>
      <component glyphName="f" x="279" y="0" flags="0x4"/>
    </TTGlyph>
    <TTGlyph name="f_f.flat" xMin="20" yMin="-186" xMax="605" yMax="716">
      <component glyphName="f.flat" x="0" y="0" flags="0x4"/>
      <component glyphName="f.flat" x="277" y="0" flags="0x4"/>
    </TTGlyph>
    <TTGlyph name="f_f_i" xMin="20" yMin="-186" xMax="776" yMax="716">
      <component glyphName="f" x="0" y="0" flags="0x4"/>
      <component glyphName="f" x="279" y="0" flags="0x4"/>
      <component glyphName="i" x="555" y="0" flags="0x4"/>
    </TTGlyph>
    <TTGlyph name="f_f_i.flat" xMin="20" yMin="-186" xMax="773" yMax="716">
      <component glyphName="f.flat" x="0" y="0" flags="0x4"/>
      <component glyphName="f.flat" x="277" y="0" flags="0x4"/>
      <component glyphName="i" x="552" y="0" flags="0x4"/>
    </TTGlyph>
    <TTGlyph name="f_f_l" xMin="20" yMin="-186" xMax="776" yMax="722">
      <component glyphName="f" x="0" y="0" flags="0x4"/>
      <component glyphName="f" x="279" y="0" flags="0x4"/>
      <component glyphName="l" x="555" y="0" flags="0x4"/>
    </TTGlyph>
    <TTGlyph name="f_f_l.flat" xMin="20" yMin="-186" xMax="773" yMax="722">
      <component glyphName="f.flat" x="0" y="0" flags="0x4"/>
      <component glyphName="f.flat" x="277" y="0" flags="0x4"/>
      <component glyphName="l" x="552" y="0" flags="0x4"/>
    </TTGlyph>
    <TTGlyph name="fi" xMin="20" yMin="-186" xMax="497" yMax="716">
      <component glyphName="f" x="0" y="0" flags="0x4"/>
      <component glyphName="i" x="276" y="0" flags="0x4"/>
    </TTGlyph>
    <TTGlyph name="fi.flat" xMin="20" yMin="-186" xMax="496" yMax="716">
      <component glyphName="f.flat" x="0" y="0" flags="0x4"/>
      <component glyphName="i" x="275" y="0" flags="0x4"/>
    </TTGlyph>
    <TTGlyph name="five" xMin="3" yMin="-11" xMax="455" yMax="683">
      <contour>
        <pt x="455" y="604" on="1"/>
        <pt x="212" y="604" on="1"/>
        <pt x="172" y="428" on="1"/>
        <pt x="285" y="407" on="0"/>
        <pt x="413" y="300" on="0"/>
        <pt x="413" y="207" on="1"/>
        <pt x="413" y="157" on="0"/>
        <pt x="377" y="76" on="0"/>
        <pt x="316" y="20" on="0"/>
        <pt x="235" y="-11" on="0"/>
        <pt x="190" y="-11" on="1"/>
        <pt x="133" y="-11" on="0"/>
        <pt x="43" y="20" on="0"/>
        <pt x="3" y="43" on="1"/>
        <pt x="29" y="123" on="1"/>
        <pt x="68" y="98" on="0"/>
        <pt x="149" y="68" on="0"/>
        <pt x="191" y="68" on="1"/>
        <pt x="251" y="68" on="0"/>
        <pt x="325" y="142" on="0"/>
        <pt x="325" y="199" on="1"/>
        <pt x="325" y="269" on="0"/>
        <pt x="207" y="346" on="0"/>
        <pt x="79" y="362" on="1"/>
        <pt x="149" y="683" on="1"/>
        <pt x="455" y="683" on="1"/>
      </contour>
    </TTGlyph>
    <TTGlyph name="five.den" xMin="9" yMin="-9" xMax="271" yMax="349">
      <component glyphName="five.num" x="-49" y="-334" flags="0x4"/>
    </TTGlyph>
    <TTGlyph name="five.den_flat" xMin="9" yMin="-9" xMax="275" yMax="349">
      <component glyphName="five.num_flat" x="-49" y="-334" flags="0x4"/>
    </TTGlyph>
    <TTGlyph name="five.flat" xMin="3" yMin="-11" xMax="461" yMax="683">
      <contour>
        <pt x="449" y="604" on="1"/>
        <pt x="212" y="604" on="1"/>
        <pt x="172" y="428" on="1"/>
        <pt x="285" y="407" on="0"/>
        <pt x="413" y="300" on="0"/>
        <pt x="413" y="207" on="1"/>
        <pt x="413" y="157" on="0"/>
        <pt x="377" y="76" on="0"/>
        <pt x="316" y="20" on="0"/>
        <pt x="235" y="-11" on="0"/>
        <pt x="190" y="-11" on="1"/>
        <pt x="133" y="-11" on="0"/>
        <pt x="43" y="20" on="0"/>
        <pt x="3" y="43" on="1"/>
        <pt x="29" y="123" on="1"/>
        <pt x="68" y="98" on="0"/>
        <pt x="149" y="68" on="0"/>
        <pt x="191" y="68" on="1"/>
        <pt x="251" y="68" on="0"/>
        <pt x="325" y="142" on="0"/>
        <pt x="325" y="199" on="1"/>
        <pt x="325" y="269" on="0"/>
        <pt x="207" y="346" on="0"/>
        <pt x="79" y="362" on="1"/>
        <pt x="149" y="683" on="1"/>
        <pt x="461" y="683" on="1"/>
      </contour>
    </TTGlyph>
    <TTGlyph name="five.inf" xMin="-15" yMin="-159" xMax="247" yMax="199">
      <component glyphName="five.num" x="-73" y="-484" flags="0x4"/>
    </TTGlyph>
    <TTGlyph name="five.inf_flat" xMin="-15" yMin="-159" xMax="251" yMax="199">
      <component glyphName="five.num_flat" x="-73" y="-484" flags="0x4"/>
    </TTGlyph>
    <TTGlyph name="five.num" xMin="58" yMin="325" xMax="320" yMax="683">
      <contour>
        <pt x="301" y="441" on="1"/>
        <pt x="301" y="387" on="0"/>
        <pt x="226" y="325" on="0"/>
        <pt x="170" y="325" on="1"/>
        <pt x="141" y="325" on="0"/>
        <pt x="81" y="341" on="0"/>
        <pt x="58" y="354" on="1"/>
        <pt x="78" y="410" on="1"/>
        <pt x="101" y="397" on="0"/>
        <pt x="149" y="383" on="0"/>
        <pt x="169" y="383" on="1"/>
        <pt x="199" y="383" on="0"/>
        <pt x="232" y="412" on="0"/>
        <pt x="232" y="437" on="1"/>
        <pt x="232" y="465" on="0"/>
        <pt x="172" y="499" on="0"/>
        <pt x="98" y="509" on="1"/>
        <pt x="138" y="683" on="1"/>
        <pt x="320" y="683" on="1"/>
        <pt x="320" y="622" on="1"/>
        <pt x="184" y="622" on="1"/>
        <pt x="169" y="554" on="1"/>
        <pt x="229" y="542" on="0"/>
        <pt x="301" y="490" on="0"/>
      </contour>
    </TTGlyph>
    <TTGlyph name="five.num_flat" xMin="58" yMin="325" xMax="324" yMax="683">
      <contour>
        <pt x="301" y="441" on="1"/>
        <pt x="301" y="387" on="0"/>
        <pt x="226" y="325" on="0"/>
        <pt x="170" y="325" on="1"/>
        <pt x="141" y="325" on="0"/>
        <pt x="81" y="341" on="0"/>
        <pt x="58" y="354" on="1"/>
        <pt x="78" y="410" on="1"/>
        <pt x="101" y="397" on="0"/>
        <pt x="149" y="383" on="0"/>
        <pt x="169" y="383" on="1"/>
        <pt x="199" y="383" on="0"/>
        <pt x="232" y="412" on="0"/>
        <pt x="232" y="437" on="1"/>
        <pt x="232" y="465" on="0"/>
        <pt x="172" y="499" on="0"/>
        <pt x="98" y="509" on="1"/>
        <pt x="138" y="683" on="1"/>
        <pt x="324" y="683" on="1"/>
        <pt x="315" y="622" on="1"/>
        <pt x="184" y="622" on="1"/>
        <pt x="169" y="554" on="1"/>
        <pt x="229" y="542" on="0"/>
        <pt x="301" y="490" on="0"/>
      </contour>
    </TTGlyph>
    <TTGlyph name="five.sup" xMin="71" yMin="418" xMax="333" yMax="776">
      <component glyphName="five.num" x="13" y="93" flags="0x4"/>
    </TTGlyph>
    <TTGlyph name="five.sup_flat" xMin="71" yMin="418" xMax="337" yMax="776">
      <component glyphName="five.num_flat" x="13" y="93" flags="0x4"/>
    </TTGlyph>
    <TTGlyph name="five.tab" xMin="15" yMin="-10" xMax="472" yMax="683">
      <contour>
        <pt x="436" y="205" on="1"/>
        <pt x="436" y="156" on="0"/>
        <pt x="399" y="76" on="0"/>
        <pt x="336" y="20" on="0"/>
        <pt x="254" y="-10" on="0"/>
        <pt x="209" y="-10" on="1"/>
        <pt x="152" y="-10" on="0"/>
        <pt x="54" y="24" on="0"/>
        <pt x="15" y="49" on="1"/>
        <pt x="40" y="126" on="1"/>
        <pt x="82" y="98" on="0"/>
        <pt x="168" y="67" on="0"/>
        <pt x="211" y="67" on="1"/>
        <pt x="268" y="67" on="0"/>
        <pt x="350" y="138" on="0"/>
        <pt x="350" y="197" on="1"/>
        <pt x="350" y="269" on="0"/>
        <pt x="222" y="349" on="0"/>
        <pt x="94" y="368" on="1"/>
        <pt x="163" y="683" on="1"/>
        <pt x="472" y="683" on="1"/>
        <pt x="472" y="603" on="1"/>
        <pt x="227" y="603" on="1"/>
        <pt x="188" y="429" on="1"/>
        <pt x="307" y="406" on="0"/>
        <pt x="436" y="296" on="0"/>
      </contour>
    </TTGlyph>
    <TTGlyph name="five.tab_flat" xMin="15" yMin="-10" xMax="478" yMax="683">
      <contour>
        <pt x="436" y="205" on="1"/>
        <pt x="436" y="156" on="0"/>
        <pt x="399" y="76" on="0"/>
        <pt x="336" y="20" on="0"/>
        <pt x="254" y="-10" on="0"/>
        <pt x="209" y="-10" on="1"/>
        <pt x="152" y="-10" on="0"/>
        <pt x="54" y="24" on="0"/>
        <pt x="15" y="49" on="1"/>
        <pt x="40" y="126" on="1"/>
        <pt x="82" y="98" on="0"/>
        <pt x="168" y="67" on="0"/>
        <pt x="211" y="67" on="1"/>
        <pt x="268" y="67" on="0"/>
        <pt x="350" y="138" on="0"/>
        <pt x="350" y="197" on="1"/>
        <pt x="350" y="269" on="0"/>
        <pt x="222" y="349" on="0"/>
        <pt x="94" y="368" on="1"/>
        <pt x="163" y="683" on="1"/>
        <pt x="478" y="683" on="1"/>
        <pt x="466" y="603" on="1"/>
        <pt x="227" y="603" on="1"/>
        <pt x="188" y="429" on="1"/>
        <pt x="307" y="406" on="0"/>
        <pt x="436" y="296" on="0"/>
      </contour>
    </TTGlyph>
    <TTGlyph name="fiveeighths" xMin="58" yMin="-11" xMax="686" yMax="693">
      <component glyphName="five.num" x="0" y="0" flags="0x4"/>
      <component glyphName="fraction" x="243" y="0" flags="0x4"/>
      <component glyphName="eight.num" x="355" y="-334" flags="0x4"/>
    </TTGlyph>
    <TTGlyph name="fiveeighths.flat" xMin="58" yMin="-11" xMax="686" yMax="693">
      <component glyphName="five.num_flat" x="0" y="0" flags="0x4"/>
      <component glyphName="fraction" x="243" y="0" flags="0x4"/>
      <component glyphName="eight.num" x="355" y="-334" flags="0x4"/>
    </TTGlyph>
    <TTGlyph name="fivesixths" xMin="58" yMin="-11" xMax="674" yMax="693">
      <component glyphName="five.num" x="0" y="0" flags="0x4"/>
      <component glyphName="fraction" x="250" y="0" flags="0x4"/>
      <component glyphName="six.num" x="354" y="-334" flags="0x4"/>
    </TTGlyph>
    <TTGlyph name="fivesixths.flat" xMin="58" yMin="-11" xMax="674" yMax="693">
      <component glyphName="five.num_flat" x="0" y="0" flags="0x4"/>
      <component glyphName="fraction" x="250" y="0" flags="0x4"/>
      <component glyphName="six.num" x="354" y="-334" flags="0x4"/>
    </TTGlyph>
    <TTGlyph name="fl" xMin="20" yMin="-186" xMax="497" yMax="722">
      <component glyphName="f" x="0" y="0" flags="0x4"/>
      <component glyphName="l" x="276" y="0" flags="0x4"/>
    </TTGlyph>
    <TTGlyph name="fl.flat" xMin="20" yMin="-186" xMax="496" yMax="722">
      <component glyphName="f.flat" x="0" y="0" flags="0x4"/>
      <component glyphName="l" x="275" y="0" flags="0x4"/>
    </TTGlyph>
    <TTGlyph name="florin" xMin="47" yMin="0" xMax="388" yMax="690">
      <contour>
        <pt x="325" y="384" on="1"/>
        <pt x="223" y="384" on="1"/>
        <pt x="134" y="0" on="1"/>
        <pt x="47" y="0" on="1"/>
        <pt x="136" y="384" on="1"/>
        <pt x="66" y="384" on="1"/>
        <pt x="83" y="456" on="1"/>
        <pt x="153" y="456" on="1"/>
        <pt x="176" y="555" on="1"/>
        <pt x="191" y="625" on="0"/>
        <pt x="269" y="690" on="0"/>
        <pt x="340" y="690" on="1"/>
        <pt x="356" y="690" on="0"/>
        <pt x="380" y="688" on="0"/>
        <pt x="388" y="687" on="1"/>
        <pt x="382" y="609" on="1"/>
        <pt x="372" y="610" on="0"/>
        <pt x="348" y="613" on="0"/>
        <pt x="335" y="613" on="1"/>
        <pt x="303" y="613" on="0"/>
        <pt x="268" y="580" on="0"/>
        <pt x="260" y="544" on="1"/>
        <pt x="240" y="456" on="1"/>
        <pt x="331" y="456" on="1"/>
      </contour>
    </TTGlyph>
    <TTGlyph name="four" xMin="19" yMin="0" xMax="495" yMax="683">
      <contour>
        <pt x="495" y="230" on="1"/>
        <pt x="484" y="157" on="1"/>
        <pt x="388" y="157" on="1"/>
        <pt x="365" y="0" on="1"/>
        <pt x="287" y="0" on="1"/>
        <pt x="310" y="157" on="1"/>
        <pt x="19" y="157" on="1"/>
        <pt x="28" y="221" on="1"/>
        <pt x="359" y="683" on="1"/>
        <pt x="468" y="683" on="1"/>
        <pt x="399" y="230" on="1"/>
      </contour>
      <contour>
        <pt x="321" y="230" on="1"/>
        <pt x="375" y="589" on="1"/>
        <pt x="119" y="230" on="1"/>
      </contour>
    </TTGlyph>
    <TTGlyph name="four.alt" xMin="19" yMin="0" xMax="495" yMax="688">
      <contour>
        <pt x="484" y="156" on="1"/>
        <pt x="387" y="156" on="1"/>
        <pt x="364" y="0" on="1"/>
        <pt x="284" y="0" on="1"/>
        <pt x="308" y="156" on="1"/>
        <pt x="19" y="156" on="1"/>
        <pt x="29" y="220" on="1"/>
        <pt x="360" y="688" on="1"/>
        <pt x="440" y="667" on="1"/>
        <pt x="127" y="230" on="1"/>
        <pt x="318" y="230" on="1"/>
        <pt x="345" y="405" on="1"/>
        <pt x="428" y="424" on="1"/>
        <pt x="398" y="230" on="1"/>
        <pt x="495" y="230" on="1"/>
      </contour>
    </TTGlyph>
    <TTGlyph name="four.alt_flat" xMin="19" yMin="0" xMax="495" yMax="683">
      <contour>
        <pt x="484" y="156" on="1"/>
        <pt x="387" y="156" on="1"/>
        <pt x="364" y="0" on="1"/>
        <pt x="284" y="0" on="1"/>
        <pt x="308" y="156" on="1"/>
        <pt x="19" y="156" on="1"/>
        <pt x="29" y="220" on="1"/>
        <pt x="357" y="683" on="1"/>
        <pt x="451" y="683" on="1"/>
        <pt x="127" y="230" on="1"/>
        <pt x="318" y="230" on="1"/>
        <pt x="346" y="413" on="1"/>
        <pt x="426" y="413" on="1"/>
        <pt x="398" y="230" on="1"/>
        <pt x="495" y="230" on="1"/>
      </contour>
    </TTGlyph>
    <TTGlyph name="four.den" xMin="6" yMin="-3" xMax="284" yMax="353">
      <component glyphName="four.num" x="-49" y="-334" flags="0x4"/>
    </TTGlyph>
</ttFont>
